<svg width="22" height="22" viewBox="0 0 22 22" fill="none" xmlns="http://www.w3.org/2000/svg"> <path fill-rule="evenodd" clip-rule="evenodd" d="M1.12688 20.8737C0.736353 20.4832 0.736353 19.85 1.12688 19.4595L19.4602 1.12615C19.8507 0.73562 20.4839 0.73562 20.8744 1.12615C21.2649 1.51667 21.2649 2.14984 20.8744 2.54036L2.54109 20.8737C2.15057 21.2642 1.5174 21.2642 1.12688 20.8737Z" fill="currentColor"/> <path fill-rule="evenodd" clip-rule="evenodd" d="M2.66602 1.83333C2.66602 1.28105 3.11373 0.833334 3.66602 0.833334H20.166C20.7183 0.833334 21.166 1.28105 21.166 1.83333V18.3333C21.166 18.8856 20.7183 19.3333 20.166 19.3333C19.6137 19.3333 19.166 18.8856 19.166 18.3333V2.83333H3.66602C3.11373 2.83333 2.66602 2.38562 2.66602 1.83333Z" fill="currentColor"/> </svg>