<svg width="14" height="15" viewBox="0 0 14 15" fill="none" xmlns="http://www.w3.org/2000/svg">
<g clip-path="url(#clip0_1904_1660)">
<path d="M5.8335 9.25015L9.092 5.99224C8.95632 5.8566 8.85618 5.68959 8.80046 5.50601C8.74473 5.32243 8.73514 5.12793 8.77254 4.93976C8.80993 4.75159 8.89315 4.57554 9.01483 4.42721C9.13651 4.27888 9.2929 4.16285 9.47013 4.08939C9.64736 4.01594 9.83998 3.98732 10.0309 4.00608C10.2218 4.02484 10.4052 4.0904 10.5647 4.19694C10.7243 4.30349 10.8551 4.44774 10.9456 4.61691C11.0361 4.78609 11.0834 4.97497 11.0835 5.16682C11.2754 5.16668 11.4644 5.21389 11.6337 5.30425C11.803 5.39461 11.9474 5.52533 12.0541 5.68484C12.1607 5.84435 12.2264 6.02771 12.2453 6.21868C12.2642 6.40965 12.2357 6.60233 12.1623 6.77965C12.0889 6.95696 11.9729 7.11344 11.8246 7.2352C11.6763 7.35697 11.5002 7.44027 11.312 7.47772C11.1238 7.51517 10.9293 7.50562 10.7456 7.4499C10.562 7.39419 10.3949 7.29404 10.2592 7.15832L8.16683 9.25015" stroke="white" stroke-width="0.875" stroke-linecap="round" stroke-linejoin="round"/>
<path d="M6.99986 8.08349L4.90802 5.99224C5.0437 5.8566 5.14384 5.68959 5.19956 5.50601C5.25529 5.32243 5.26487 5.12793 5.22748 4.93976C5.19009 4.75159 5.10686 4.57554 4.98518 4.42721C4.8635 4.27888 4.70712 4.16285 4.52989 4.08939C4.35266 4.01594 4.16004 3.98732 3.96911 4.00608C3.77818 4.02484 3.59482 4.0904 3.43527 4.19694C3.27572 4.30349 3.14491 4.44774 3.05443 4.61691C2.96394 4.78609 2.91658 4.97497 2.91652 5.16682C2.72462 5.16668 2.53565 5.21389 2.36635 5.30425C2.19705 5.39461 2.05266 5.52533 1.94596 5.68484C1.83927 5.84435 1.77357 6.02771 1.75469 6.21868C1.7358 6.40965 1.76432 6.60233 1.83771 6.77965C1.91109 6.95696 2.02709 7.11344 2.17541 7.2352C2.32373 7.35697 2.4998 7.44027 2.68801 7.47772C2.87622 7.51517 3.07077 7.50562 3.2544 7.4499C3.43804 7.39419 3.6051 7.29404 3.74077 7.15832L5.83319 9.25015" stroke="white" stroke-width="0.875" stroke-linecap="round" stroke-linejoin="round"/>
<path d="M1.75 12.1667H12.25C12.1479 11.1919 12.2232 10.2154 11.0833 9.25H2.91667C2.13908 9.83333 1.75 10.8058 1.75 12.1667Z" stroke="white" stroke-width="0.875" stroke-linecap="round" stroke-linejoin="round"/>
</g>
<defs>
<clipPath id="clip0_1904_1660">
<rect width="14" height="14" fill="white" transform="translate(0 0.5)"/>
</clipPath>
</defs>
</svg>
