<svg width="571" height="436" viewBox="0 0 571 436" fill="none" xmlns="http://www.w3.org/2000/svg">
<path fill-rule="evenodd" clip-rule="evenodd" d="M194.239 17.1185C127.702 6.64461 52.504 10.3425 2.24678 17.2823L0.878906 7.37633C51.7615 0.350178 127.997 -3.43213 195.794 7.24012C229.688 12.5757 261.76 21.5668 287.555 35.7783C312.648 49.6036 332.086 68.542 341.147 94.0738C385.733 111.288 449.247 148.19 498.123 204.345C547.914 261.552 582.656 338.953 566.297 435.704L556.437 434.037C572.187 340.892 538.886 266.411 490.579 210.91C445.469 159.081 387.397 123.991 344.547 106.208C344.935 108.057 345.271 109.933 345.556 111.838C356.473 184.858 340.655 252.421 302.427 293.648C263.819 335.285 203.399 348.97 128.077 316.025C109.096 307.724 95.7384 297.61 87.5366 286.002C79.2632 274.293 76.4702 261.385 78.1089 248.108C81.3341 221.979 101.626 194.835 129.398 171C157.37 146.993 193.787 125.601 230.909 111.149C264.831 97.9432 299.775 90.3659 329.664 92.1981C320.948 72.1555 304.522 56.5435 282.729 44.5369C258.331 31.0946 227.511 22.356 194.239 17.1185ZM333.348 102.517C304.637 99.7517 269.475 106.866 234.537 120.468C198.365 134.55 162.946 155.386 135.911 178.588C108.676 201.963 90.7894 227.008 88.0336 249.333C86.6819 260.285 88.9477 270.67 95.7036 280.232C102.531 289.895 114.173 299.029 132.084 306.863C204.327 338.461 259.943 324.758 295.094 286.848C330.626 248.529 346.291 184.387 335.666 113.317C335.108 109.582 334.33 105.984 333.348 102.517Z" fill="#F670C7" fill-opacity="0.6"/>
</svg>
