<svg width="14" height="15" viewBox="0 0 14 15" fill="none" xmlns="http://www.w3.org/2000/svg">
<g clip-path="url(#clip0_1904_1380)">
<path d="M2.91667 4.5835H3.5C3.80942 4.5835 4.10617 4.46058 4.32496 4.24179C4.54375 4.023 4.66667 3.72625 4.66667 3.41683C4.66667 3.26212 4.72812 3.11375 4.83752 3.00435C4.94692 2.89495 5.09529 2.8335 5.25 2.8335H8.75C8.90471 2.8335 9.05308 2.89495 9.16248 3.00435C9.27187 3.11375 9.33333 3.26212 9.33333 3.41683C9.33333 3.72625 9.45625 4.023 9.67504 4.24179C9.89383 4.46058 10.1906 4.5835 10.5 4.5835H11.0833C11.3928 4.5835 11.6895 4.70641 11.9083 4.9252C12.1271 5.144 12.25 5.44074 12.25 5.75016V11.0002C12.25 11.3096 12.1271 11.6063 11.9083 11.8251C11.6895 12.0439 11.3928 12.1668 11.0833 12.1668H2.91667C2.60725 12.1668 2.3105 12.0439 2.09171 11.8251C1.87292 11.6063 1.75 11.3096 1.75 11.0002V5.75016C1.75 5.44074 1.87292 5.144 2.09171 4.9252C2.3105 4.70641 2.60725 4.5835 2.91667 4.5835Z" stroke="#FFFEFE" stroke-width="0.875" stroke-linecap="round" stroke-linejoin="round"/>
<path d="M5.5415 9.25C5.7316 9.44402 5.9585 9.59815 6.20891 9.70337C6.45932 9.8086 6.72822 9.8628 6.99984 9.8628C7.27146 9.8628 7.54035 9.8086 7.79076 9.70337C8.04118 9.59815 8.26807 9.44402 8.45817 9.25" stroke="#FFFEFE" stroke-width="0.875" stroke-linecap="round" stroke-linejoin="round"/>
<path d="M8.75 6.9165H8.75583" stroke="#FFFEFE" stroke-width="0.875" stroke-linecap="round" stroke-linejoin="round"/>
<path d="M5.25 6.9165H5.25583" stroke="#FFFEFE" stroke-width="0.875" stroke-linecap="round" stroke-linejoin="round"/>
</g>
<defs>
<clipPath id="clip0_1904_1380">
<rect width="14" height="14" fill="white" transform="translate(0 0.5)"/>
</clipPath>
</defs>
</svg>
