<svg width="658" height="78" viewBox="0 0 658 78" fill="none" xmlns="http://www.w3.org/2000/svg">
<path d="M122.505 30.9739C114.654 48.0435 107.387 63.6039 106.337 65.5652C102.877 72.2715 100.116 75.0608 95.9968 75.9256C94.9852 76.115 94.7141 76.3778 94.7141 77.0956V78H120.756V77.1324C120.756 76.3043 120.523 76.1913 117.648 75.8126C113.955 75.287 112.439 74.6087 111.427 72.9865C109.873 70.5759 110.456 67.4474 113.8 60.0995L115.392 56.5217H143.495L146.218 62.6261C147.693 66.0174 149.133 69.5585 149.404 70.5759C150.337 74.1565 148.742 75.6628 143.652 76.0019C140.737 76.228 140.58 76.2648 140.58 77.0956V78H178.285V77.1324C178.285 76.3778 177.974 76.1913 176.262 75.7391C173.114 74.9846 171.172 72.7604 167.907 66.2434C166.391 63.2648 159.004 47.1759 151.424 30.4454C143.845 13.6783 137.472 0 137.239 0C137.006 0 130.397 13.9411 122.505 30.9739ZM135.682 39.2628C138.793 46.2348 141.358 52.0367 141.358 52.1498C141.358 52.2628 136.032 52.3759 129.502 52.3759C122.972 52.3759 117.648 52.2628 117.648 52.113C117.648 51.3952 129.543 26.0735 129.776 26.2995C129.93 26.4522 132.574 32.2908 135.682 39.2628Z" fill="#E874B2"/>
<path d="M0 0.926731C0 1.77814 0.157686 1.85344 3.07665 2.00982C5.32497 2.12566 6.58728 2.43263 7.80996 3.09001C11.0839 4.90578 10.8473 2.0098 10.9656 38.2268C11.0443 66.5696 11.0049 70.6616 10.4526 72.0517C9.42726 74.716 6.7056 76.0684 2.28766 76.0684C0.118324 76.0684 0 76.106 0 77.0327V78H41.4164V77.0327C41.4164 76.106 41.3374 76.0684 38.8524 76.0684C34.6714 76.0684 31.5554 74.2932 30.7665 71.4725C30.5298 70.6616 30.3721 63.8677 30.3721 55.2956V40.5435H58.7719L58.7323 54.5224C58.7323 62.2459 58.5746 69.3874 58.4169 70.3923C57.7856 74.1368 55.577 75.7585 50.607 75.9902C47.4907 76.1466 47.333 76.2219 47.333 77.0733V78H89.1429V77.0733C89.1429 76.1842 89.0245 76.1466 85.8296 75.9902C83.0695 75.8367 82.2411 75.6427 80.901 74.7941C77.706 72.7091 77.9013 75.2199 77.9013 39.194C77.9013 8.45625 77.9427 7.06619 78.6527 5.67612C79.8745 3.24351 81.8861 2.20095 85.8296 2.00982C89.0245 1.85344 89.1429 1.81579 89.1429 0.926731V0H47.333V0.926731C47.333 1.81579 47.4514 1.85344 50.6857 2.00982C53.6046 2.16331 54.2753 2.3168 55.7346 3.3217C58.614 5.29096 58.5746 5.02163 58.693 21.1232L58.8506 35.5248H30.3325L30.5691 6.29583L31.6738 4.90579C33.2121 2.89599 34.8291 2.20095 38.3791 2.00982C41.2587 1.85344 41.4164 1.77814 41.4164 0.926731V0H0V0.926731Z" fill="#E874B2"/>
<path d="M178.287 0.926731C178.287 1.77814 178.444 1.81579 181.441 2.04747C186.454 2.43263 188.661 4.09492 189.134 7.80175C189.253 8.9196 189.333 23.7469 189.253 40.7376C189.134 75.411 189.371 72.7091 186.175 74.7565C184.953 75.5268 184.006 75.799 181.482 75.9525C178.444 76.1842 178.287 76.2219 178.287 77.0733V78H218.923V77.0733C218.923 76.2219 218.766 76.1842 215.845 75.9525C211.427 75.6832 209.099 74.2526 208.27 71.3972C208.033 70.6616 207.877 64.0993 207.877 56.2976V42.4752H213.123C215.964 42.4752 219.949 42.2811 221.881 42.09C233.481 40.7752 241.174 35.7942 244.251 27.5696C245.435 24.3667 245.435 17.7639 244.29 14.6362C242.003 8.57207 237.15 4.28605 229.968 1.96927C224.485 0.231691 220.896 0 198.92 0H178.287V0.926731ZM214.15 4.63355C222.038 5.90777 225.867 11.3522 225.749 21.2767C225.669 29.6953 223.222 34.4823 217.739 36.9931C216.002 37.804 214.818 38.0356 211.741 38.1515L207.877 38.305V4.2484H209.77C210.794 4.2484 212.768 4.44241 214.15 4.63355Z" fill="#E874B2"/>
<path d="M250.712 0.926731C250.712 1.77814 250.868 1.81579 253.816 2.04747C257.235 2.27915 259.673 3.28405 260.772 4.94344C261.875 6.56518 262.069 12.3948 262.069 39C262.069 65.6053 261.875 71.4348 260.772 73.0566C259.673 74.716 257.235 75.7209 253.816 75.9525C250.868 76.1842 250.712 76.2219 250.712 77.0733V78H291.193V77.0733C291.193 76.2219 291.037 76.1466 288.325 75.9902C283.57 75.6832 281.25 74.0615 280.543 70.6239C280.387 69.6972 280.227 62.9786 280.189 55.6808V42.4752H285.613C298.229 42.4752 305.973 40.2366 311.474 35.0615C316.505 30.3121 318.589 23.4776 317.095 16.5273C315.642 9.80866 309.587 4.01671 301.728 1.77813C296.187 0.231682 292.57 0 271.266 0H250.712V0.926731ZM286.674 4.6741C291.234 5.48497 294.536 7.80176 296.304 11.3522C297.993 14.6739 298.583 19.5391 297.955 24.442C297.13 31.123 295.125 34.4446 290.645 36.6832C288.245 37.8793 287.579 38.0356 284.08 38.1515L280.189 38.305V4.2484H282.273C283.411 4.2484 285.415 4.44242 286.674 4.6741Z" fill="#E874B2"/>
<path d="M323.143 0.889082C323.143 1.6623 323.455 1.85342 325.475 2.24148C329.944 3.16819 330.527 4.05437 345.416 30.9695L355.406 48.9998V59.1559C355.406 69.6972 355.173 71.6665 353.928 73.3259C352.491 75.2575 350.896 75.8367 346.582 75.9902C342.655 76.1466 342.579 76.1842 342.579 77.0733V78H386.891V77.0733C386.891 76.1842 386.812 76.1466 382.847 75.9902C379.233 75.8743 378.687 75.7585 377.212 74.7941C374.451 72.9784 374.373 72.515 374.14 58.6144L373.947 46.376L383.976 29.6547C393.809 13.2838 396.762 8.57206 399.018 5.75429C400.339 4.13254 403.138 2.51083 405.274 2.12567C406.441 1.89399 406.715 1.69995 406.715 0.926731V0H382.614V0.926731C382.614 1.7376 382.847 1.85344 384.868 2.12567C388.133 2.51083 390.31 3.55338 390.931 5.05928C391.398 6.13948 391.398 6.60282 390.893 8.2651C390.039 11.1205 389.573 11.9314 380.361 27.3003C373.906 38.0356 371.848 41.2009 371.498 40.8158C371.07 40.3524 356.806 14.364 354.899 10.6195C354.395 9.53933 353.657 7.83941 353.307 6.79686C352.724 5.05928 352.724 4.82757 353.266 3.97906C354.123 2.66429 356.106 1.93162 358.709 1.93162C360.729 1.93162 360.846 1.89399 360.846 0.967278V0H323.143V0.889082Z" fill="#E874B2"/>
<path d="M434.575 0.926731C434.575 1.77814 434.732 1.81579 437.644 2.04747C441.105 2.27915 443.506 3.2435 444.569 4.82759C445.749 6.60282 445.985 11.8156 445.985 39C445.985 66.4914 445.749 71.513 444.527 73.1348C443.229 74.8318 441.066 75.7585 437.682 75.9525C434.732 76.1842 434.575 76.2219 434.575 77.0733V78H475.094V77.0733C475.094 76.2219 474.938 76.1466 472.223 75.9902C467.464 75.6832 465.142 74.0615 464.434 70.6239C464.278 69.6972 464.118 63.0163 464.08 55.759V42.591L471.869 42.3593C480.602 42.1276 484.771 41.3168 489.846 38.9624C495.039 36.4892 499.485 31.3546 500.901 26.1043C501.61 23.5934 501.61 18.5342 500.901 16.0263C499.093 9.34531 493.348 3.97906 485.639 1.77813C480.092 0.231682 476.472 0 455.149 0H434.575V0.926731ZM470.571 4.6741C478.794 6.13945 482.727 12.3571 482.057 22.7826C481.585 30.1586 479.304 34.4041 474.465 36.7209C472.143 37.8416 471.359 38.0356 467.936 38.1515L464.08 38.305V4.2484H466.166C467.305 4.2484 469.311 4.44242 470.571 4.6741Z" fill="#E874B2"/>
<path d="M507 0.926731C507 1.77814 507.157 1.85344 510.109 2.00982C515.069 2.27914 517.431 3.93852 518.062 7.60771C518.494 10.1185 518.494 66.3379 518.062 69.5814C517.431 74.1773 515.583 75.7209 510.269 75.9902C507.157 76.1466 507 76.2219 507 77.0733V78L541.521 77.9218L576.046 77.806L577.737 66.2221C578.644 59.851 579.391 54.3283 579.429 53.9432C579.429 53.5175 579.116 53.2858 578.484 53.2858C577.699 53.2858 577.463 53.6333 576.872 55.2956C574.351 62.9786 569.863 68.3448 563.487 71.2813C559.433 73.1348 555.734 73.7516 548.332 73.7516C541.209 73.7516 539.948 73.4417 538.451 71.3972L537.506 70.0824L537.27 40.5435H538.767C541.403 40.5435 544.908 41.3168 546.641 42.3217C549.868 44.1345 552.663 48.9621 553.726 54.5224C554.08 56.2976 554.393 57.9599 554.473 58.1916C554.553 58.4609 555.064 58.6926 555.616 58.6926H556.599V17.7233L555.536 17.8392C554.553 17.955 554.473 18.1114 553.962 21.045C553.685 22.7449 553.056 25.1776 552.622 26.4518C550.222 33.014 546.915 35.6783 540.459 36.1822L537.311 36.4139V4.13255L546.286 4.36424C557.818 4.59592 560.888 5.40677 565.376 9.26709C567.581 11.1611 569.905 15.6006 571.006 19.9648C571.676 22.6291 571.794 22.7826 572.816 22.7826H573.92V0H507V0.926731Z" fill="#E874B2"/>
<path d="M585.003 20.851H585.958C586.793 20.851 586.993 20.544 587.549 18.2272C588.465 14.7521 590.336 11.1205 592.443 8.88194C595.547 5.52262 599.648 4.2484 607.408 4.2484H611.268L611.187 37.9575L611.068 71.7042L609.954 73.0942C608.364 75.1417 606.811 75.799 603.03 75.9902C599.887 76.1466 599.726 76.2219 599.726 77.0733V78H641.911V77.0327C641.911 76.106 641.83 76.0684 639.165 76.0684C635.542 76.0684 632.638 74.6783 631.405 72.3992C630.569 70.8556 630.569 70.6239 630.569 37.6476V4.44244L636.539 4.48009C641.792 4.48009 642.747 4.59591 644.457 5.32859C649.113 7.37604 651.939 10.8135 653.927 16.8748C655.163 20.6598 655.282 20.851 656.357 20.851H657.431V0H585.003V20.851Z" fill="#E874B2"/>
</svg>
