<svg width="142" height="124" viewBox="0 0 142 124" fill="none" xmlns="http://www.w3.org/2000/svg">
<path d="M99.3478 4.86818C99.4173 5.07731 99.1941 5.38378 98.8595 5.49502C98.023 5.77314 96.2082 9.39568 96.4863 10.2322C96.5975 10.5668 96.5275 10.9152 96.2766 10.9986C96.0675 11.0682 95.9835 11.5141 96.1364 11.9742C96.2894 12.4343 96.2473 12.8663 95.9963 12.9498C95.7872 13.0193 95.7032 13.4653 95.8562 13.9253C96.0091 14.3854 95.967 14.8175 95.716 14.9009C95.5069 14.9705 95.4229 15.4164 95.5759 15.8765C95.7288 16.3366 95.6867 16.7686 95.4357 16.8521C95.2266 16.9216 95.2678 17.744 95.5737 18.6642C95.8796 19.5843 95.9626 20.3928 95.7116 20.4762C95.5025 20.5458 95.5437 21.3682 95.8496 22.2883C96.1555 23.2085 96.2385 24.017 95.9876 24.1004C95.7784 24.17 95.8196 24.9923 96.1255 25.9125C96.4315 26.8327 96.5145 27.6412 96.2635 27.7246C96.0544 27.7941 96.0955 28.6165 96.4015 29.5367C96.7074 30.4569 96.7904 31.2653 96.5394 31.3488C96.3303 31.4183 96.302 32.0316 96.5384 32.7426C96.7608 33.4118 96.7882 34.053 96.5373 34.1364C96.3281 34.206 96.2998 34.8192 96.5362 35.5303C96.7587 36.1995 96.786 36.8407 96.5351 36.9241C96.326 36.9936 96.2976 37.6069 96.534 38.3179C96.8538 39.2799 96.7839 39.6283 96.1146 39.8508C95.3618 40.1011 95.1808 39.8361 94.4438 37.6194C93.9849 36.2391 93.4421 35.1654 93.1912 35.2489C92.9402 35.3323 92.2584 33.8404 91.5214 31.6236C90.7844 29.4069 90.1026 27.9149 89.8517 27.9983C89.6425 28.0679 89.1831 27.3845 88.8772 26.4644C88.5713 25.5442 88.1537 24.847 87.9027 24.9304C87.6936 24.9999 87.2898 24.4839 87.0673 23.8147C86.8309 23.1036 86.4828 22.6155 86.2319 22.699C86.0227 22.7685 85.6884 22.4616 85.5355 22.0015C85.3825 21.5414 85.0901 21.2206 84.8391 21.304C84.63 21.3736 84.2957 21.0667 84.1427 20.6066C83.9898 20.1465 83.6973 19.8257 83.4464 19.9091C83.2372 19.9786 82.9308 19.7554 82.8195 19.4208C82.5414 18.5843 78.9189 16.7695 78.0824 17.0476C77.7478 17.1588 77.3854 17.047 77.3159 16.8379C77.2325 16.5869 76.2567 16.7256 75.0856 17.1149C73.9563 17.4904 73.0499 17.9775 73.1333 18.2285C73.2029 18.4376 72.9796 18.7441 72.6032 18.8692C71.8085 19.1334 71.0966 20.4849 71.3469 21.2377C71.4581 21.5723 71.2486 22.1994 70.8997 22.687C70.5091 23.1884 70.4248 24.0526 70.6472 24.7218C70.8558 25.3492 70.8693 25.9485 70.6183 26.0319C70.4092 26.1015 70.3809 26.7147 70.6173 27.4258C70.8397 28.095 70.8671 28.7362 70.6162 28.8196C70.407 28.8891 70.4482 29.7115 70.7541 30.6317C71.06 31.5519 71.143 32.3603 70.8921 32.4438C70.6411 32.5272 71.9061 36.8909 74.5065 44.7123C77.1068 52.5337 78.7064 56.7862 78.9573 56.7027C79.2083 56.6193 79.8345 57.9439 80.488 59.9098C81.1416 61.8756 81.7678 63.2002 82.0188 63.1168C82.2697 63.0333 82.8542 64.2325 83.4104 65.9055C83.9666 67.5785 84.5511 68.7777 84.8021 68.6943C85.053 68.6108 85.6375 69.81 86.1937 71.483C86.7499 73.156 87.3344 74.3552 87.5854 74.2718C87.8363 74.1883 88.4625 75.513 89.1161 77.4788C89.7696 79.4446 90.3958 80.7692 90.6468 80.6858C90.8977 80.6023 91.5795 82.0943 92.3165 84.311C93.0535 86.5278 93.7353 88.0197 93.9863 87.9363C94.2372 87.8529 94.7105 88.7174 95.0998 89.8885C95.4753 91.0178 96.0042 91.9103 96.2134 91.8408C96.4643 91.7573 96.8124 92.2455 97.0488 92.9565C97.2713 93.6257 97.6751 94.1417 97.8842 94.0722C98.1352 93.9888 98.4832 94.4769 98.7196 95.1879C98.9421 95.8572 99.3459 96.3732 99.5551 96.3037C99.806 96.2202 100.071 96.4574 100.182 96.792C100.307 97.1684 101.017 97.7683 101.784 98.1174C102.912 98.7176 103.553 98.6902 105.477 98.0506C106.732 97.6334 107.708 97.0766 107.639 96.8675C107.555 96.6166 107.793 96.3519 108.127 96.2407C108.88 95.9904 110.792 92.3818 110.57 91.7126C110.473 91.4198 110.92 90.2494 111.548 89.0651C112.176 87.8808 112.581 86.5849 112.47 86.2503C112.345 85.8739 112.456 85.5116 112.666 85.442C112.917 85.3586 112.959 84.9265 112.806 84.4665C112.653 84.0064 112.737 83.5604 112.946 83.4909C113.197 83.4075 113.239 82.9754 113.086 82.5153C112.933 82.0552 113.017 81.6093 113.226 81.5397C113.477 81.4563 113.519 81.0243 113.366 80.5642C113.213 80.1041 113.297 79.6581 113.506 79.5886C113.757 79.5052 113.8 79.0731 113.647 78.613C113.494 78.1529 113.578 77.707 113.787 77.6375C114.038 77.554 114.08 77.122 113.927 76.6619C113.774 76.2018 113.858 75.7558 114.067 75.6863C114.318 75.6029 114.36 75.1708 114.207 74.7107C114.054 74.2507 114.138 73.8047 114.347 73.7352C114.598 73.6517 114.64 73.2197 114.487 72.7596C114.335 72.2995 114.418 71.8535 114.628 71.784C114.879 71.7006 114.921 71.2685 114.768 70.8084C114.615 70.3484 114.699 69.9024 114.908 69.8329C115.159 69.7494 115.201 69.3174 115.048 68.8573C114.895 68.3972 114.979 67.9513 115.188 67.8817C115.439 67.7983 115.481 67.3662 115.328 66.9062C115.175 66.4461 115.259 66.0001 115.468 65.9306C115.719 65.8472 115.762 65.4151 115.609 64.955C115.456 64.4949 115.54 64.049 115.749 63.9794C116 63.896 116.042 63.464 115.889 63.0039C115.736 62.5438 115.82 62.0978 116.029 62.0283C116.28 61.9449 116.336 61.5546 116.197 61.1364C116.058 60.7181 116.24 60.0074 116.589 59.5198C116.937 59.0323 117.119 58.3216 116.98 57.9033C116.841 57.485 116.939 57.0809 117.148 57.0114C117.399 56.9279 117.441 56.4959 117.288 56.0358C117.135 55.5757 117.219 55.1298 117.428 55.0602C117.679 54.9768 117.721 54.5448 117.569 54.0847C117.416 53.6246 117.5 53.1786 117.709 53.1091C117.96 53.0257 118.002 52.5936 117.849 52.1335C117.696 51.6734 117.78 51.2275 117.989 51.158C118.24 51.0745 118.296 50.6843 118.157 50.266C118.018 49.8478 118.2 49.1371 118.548 48.6495C118.995 48.0366 119.023 47.2839 118.662 46.1964C118.37 45.3181 118.343 44.5375 118.552 44.468C118.803 44.3846 118.775 43.7434 118.553 43.0742C118.316 42.3631 118.345 41.7499 118.554 41.6803C118.805 41.5969 118.847 41.1649 118.694 40.7048C118.541 40.2447 118.625 39.7987 118.834 39.7292C119.085 39.6458 119.058 39.0046 118.835 38.3354C118.599 37.6243 118.627 37.0111 118.836 36.9415C119.087 36.8581 119.06 36.2169 118.837 35.5477C118.601 34.8367 118.629 34.2234 118.839 34.1539C119.089 34.0704 119.062 33.4293 118.84 32.76C118.603 32.049 118.632 31.4357 118.841 31.3662C119.092 31.2828 119.064 30.6416 118.842 29.9724C118.605 29.2613 118.634 28.6481 118.843 28.5786C119.094 28.4951 119.066 27.8539 118.844 27.1847C118.608 26.4737 118.636 25.8604 118.845 25.7909C119.096 25.7075 119.013 24.899 118.707 23.9788C118.401 23.0586 118.36 22.2362 118.569 22.1667C118.82 22.0833 118.612 20.8984 118.153 19.5181C117.694 18.1379 117.486 16.9529 117.737 16.8695C117.988 16.7861 117.599 15.0574 116.765 12.5479C115.93 10.0383 115.207 8.42092 114.956 8.50435C114.747 8.57388 114.343 8.05784 114.12 7.38863C113.884 6.67759 113.536 6.18948 113.285 6.27291C113.076 6.34244 112.742 6.03554 112.589 5.57545C112.436 5.11537 112.143 4.79456 111.892 4.87799C111.683 4.94752 111.377 4.72427 111.252 4.34784C110.987 3.55314 109.636 2.84124 108.883 3.09154C108.548 3.20278 107.921 2.99321 107.434 2.64438C106.654 2.11411 106.068 2.1694 102.889 3.22623C100.714 3.94932 99.2644 4.61722 99.3478 4.86818ZM104.087 5.15065C104.156 5.35978 104.686 5.41595 105.271 5.22127C106.735 4.73457 111.194 6.96819 111.68 8.43209C111.875 9.01765 112.237 9.40821 112.446 9.33868C112.697 9.25525 113.421 10.8727 114.255 13.3822C115.089 15.8918 115.478 17.6204 115.227 17.7038C114.976 17.7873 115.185 18.9722 115.644 20.3525C116.102 21.7327 116.311 22.9176 116.06 23.0011C115.85 23.0706 115.822 23.6838 116.059 24.3949C116.281 25.0641 116.308 25.7053 116.057 25.7887C115.848 25.8582 115.889 26.6806 116.195 27.6008C116.501 28.521 116.584 29.3295 116.333 29.4129C116.124 29.4824 116.096 30.0957 116.332 30.8067C116.555 31.4759 116.582 32.1171 116.331 32.2005C116.122 32.2701 116.094 32.8833 116.33 33.5944C116.553 34.2636 116.58 34.9048 116.329 34.9882C116.12 35.0577 116.092 35.671 116.328 36.382C116.55 37.0513 116.578 37.6924 116.327 37.7759C116.118 37.8454 116.034 38.2914 116.187 38.7514C116.34 39.2115 116.297 39.6436 116.047 39.727C115.837 39.7965 115.809 40.4098 116.045 41.1208C116.268 41.7901 116.295 42.4312 116.044 42.5147C115.835 42.5842 115.751 43.0302 115.904 43.4902C116.057 43.9503 116.015 44.3824 115.764 44.4658C115.555 44.5353 115.596 45.3577 115.902 46.2779C116.208 47.1981 116.291 48.0066 116.04 48.09C115.831 48.1595 115.733 48.5637 115.872 48.9819C116.011 49.4002 115.829 50.1109 115.48 50.5985C115.132 51.086 114.95 51.7967 115.089 52.215C115.228 52.6332 115.172 53.0235 114.921 53.1069C114.712 53.1764 114.628 53.6224 114.781 54.0825C114.934 54.5426 114.892 54.9746 114.641 55.0581C114.432 55.1276 114.348 55.5735 114.501 56.0336C114.654 56.4937 114.611 56.9258 114.36 57.0092C114.151 57.0787 114.067 57.5247 114.22 57.9848C114.373 58.4449 114.331 58.8769 114.08 58.9603C113.871 59.0299 113.787 59.4758 113.94 59.9359C114.093 60.396 114.051 60.8281 113.8 60.9115C113.591 60.981 113.507 61.427 113.66 61.8871C113.813 62.3471 113.77 62.7792 113.52 62.8626C113.31 62.9322 113.226 63.3781 113.379 63.8382C113.532 64.2983 113.49 64.7303 113.239 64.8138C113.03 64.8833 112.946 65.3293 113.099 65.7893C113.252 66.2494 113.21 66.6815 112.959 66.7649C112.75 66.8344 112.666 67.2804 112.819 67.7405C112.972 68.2006 112.93 68.6326 112.679 68.7161C112.47 68.7856 112.386 69.2316 112.539 69.6916C112.691 70.1517 112.649 70.5838 112.398 70.6672C112.189 70.7367 112.105 71.1827 112.258 71.6428C112.411 72.1029 112.369 72.5349 112.118 72.6184C111.909 72.6879 111.825 73.1338 111.978 73.5939C112.131 74.054 112.089 74.4861 111.838 74.5695C111.629 74.639 111.545 75.085 111.698 75.5451C111.851 76.0052 111.808 76.4372 111.557 76.5206C111.348 76.5902 111.25 76.9943 111.39 77.4126C111.529 77.8308 111.347 78.5415 110.998 79.0291C110.649 79.5167 110.467 80.2274 110.606 80.6456C110.746 81.0639 110.689 81.4541 110.438 81.5376C110.229 81.6071 110.145 82.053 110.298 82.5131C110.451 82.9732 110.409 83.4053 110.158 83.4887C109.949 83.5582 109.851 83.9624 109.99 84.3806C110.129 84.7989 109.948 85.5096 109.599 85.9972C109.25 86.4847 109.054 87.1536 109.152 87.4464C109.263 87.781 108.983 88.7565 108.481 89.6202C108.02 90.4701 107.685 91.4177 107.782 91.7104C108.005 92.3797 107.251 93.745 106.498 93.9953C106.122 94.1205 105.885 94.3851 105.968 94.6361C106.038 94.8452 105.354 95.3046 104.434 95.6106C103.054 96.0694 102.719 96.0413 102.483 95.3303C102.33 94.8702 102.037 94.5494 101.787 94.6328C101.577 94.7023 101.243 94.3954 101.09 93.9353C100.937 93.4753 100.645 93.1544 100.394 93.2379C100.185 93.3074 99.7808 92.7914 99.5583 92.1222C99.3219 91.4111 98.9739 90.923 98.7229 91.0064C98.5138 91.076 97.9848 90.1835 97.6094 89.0542C97.22 87.8831 96.7468 87.0185 96.4958 87.102C96.2449 87.1854 95.5631 85.6935 94.8261 83.4767C94.0891 81.2599 93.4073 79.768 93.1563 79.8514C92.9054 79.9349 92.2792 78.6102 91.6256 76.6444C90.972 74.6786 90.3459 73.354 90.0949 73.4374C89.8439 73.5209 89.3012 72.4472 88.8423 71.0669C88.3834 69.6867 87.8407 68.613 87.5897 68.6964C87.3388 68.7799 86.7126 67.4552 86.059 65.4894C85.4054 63.5236 84.7793 62.199 84.5283 62.2824C84.2773 62.3659 83.6512 61.0412 82.9976 59.0754C82.344 57.1096 81.7178 55.785 81.4669 55.8684C81.2159 55.9518 80.3534 53.9162 79.2409 50.5701C78.1285 47.224 77.2659 45.1884 77.0149 45.2718C76.764 45.3552 76.1795 44.1561 75.6233 42.4831C75.067 40.81 74.8172 39.4996 75.0681 39.4162C75.3191 39.3328 74.9719 37.7296 74.2349 35.5128C73.4979 33.2961 73.1507 31.6929 73.4016 31.6094C73.6526 31.526 73.5696 30.7175 73.2637 29.7974C72.9578 28.8772 72.9166 28.0548 73.1257 27.9853C73.3767 27.9018 73.3493 27.2607 73.1268 26.5914C72.8904 25.8804 72.9188 25.2671 73.1279 25.1976C73.3788 25.1142 73.4488 24.7658 73.3376 24.4312C72.976 23.3437 74.9161 19.9582 76.129 19.5549C76.7146 19.3603 77.2303 19.3746 77.3137 19.6256C77.3833 19.8347 77.7456 19.9465 78.0802 19.8352C78.9167 19.5571 81.4246 20.8135 81.7027 21.65C81.814 21.9846 82.1204 22.2079 82.3296 22.1384C82.5805 22.0549 82.873 22.3758 83.0259 22.8358C83.1789 23.2959 83.5132 23.6028 83.7223 23.5333C83.9733 23.4499 84.3213 23.938 84.5577 24.649C84.7802 25.3182 85.184 25.8343 85.3932 25.7647C85.6441 25.6813 86.0617 26.3785 86.3676 27.2987C86.6736 28.2189 87.133 28.9022 87.3421 28.8327C87.5931 28.7493 88.2193 30.0739 88.8728 32.0397C89.5264 34.0055 90.1526 35.3301 90.4035 35.2467C90.6545 35.1633 91.2807 36.4879 91.9342 38.4537C92.5878 40.4195 93.214 41.7442 93.4649 41.6607C93.7159 41.5773 94.1335 42.2745 94.4394 43.1947C94.7454 44.1149 95.2048 44.7982 95.4139 44.7287C95.6649 44.6452 95.9295 44.8824 96.0547 45.2588C96.305 46.0117 97.6285 46.7793 98.3395 46.5429C99.2597 46.237 99.6093 44.7738 99.1226 43.3099C98.8445 42.4733 98.8311 41.7346 99.0403 41.6651C99.2912 41.5816 99.2638 40.9405 99.0414 40.2712C98.805 39.5602 98.8333 38.9469 99.0424 38.8774C99.2934 38.794 99.3356 38.3619 99.1826 37.9018C99.0296 37.4418 99.1136 36.9958 99.3227 36.9263C99.5737 36.8428 99.5463 36.2017 99.3238 35.5324C99.0874 34.8214 99.1158 34.2081 99.3249 34.1386C99.5759 34.0552 99.4929 33.2467 99.187 32.3265C98.881 31.4064 98.8399 30.584 99.049 30.5144C99.2999 30.431 99.2169 29.6225 98.911 28.7024C98.6051 27.7822 98.5639 26.9598 98.7731 26.8903C99.024 26.8068 98.941 25.9983 98.6351 25.0782C98.3292 24.158 98.288 23.3356 98.4971 23.2661C98.7481 23.1827 98.6651 22.3742 98.3592 21.454C98.0532 20.5338 98.0121 19.7114 98.2212 19.6419C98.4721 19.5585 98.4448 18.9173 98.2223 18.2481C97.9859 17.537 98.0142 16.9238 98.2234 16.8542C98.4743 16.7708 98.447 16.1296 98.2245 15.4604C97.9881 14.7494 98.0164 14.1361 98.2256 14.0666C98.4765 13.9832 98.5326 13.5929 98.3935 13.1747C98.2545 12.7564 98.4362 12.0457 98.785 11.5581C99.1339 11.0706 99.3435 10.4435 99.2322 10.1089C98.9819 9.35603 99.6938 8.00457 100.489 7.74036C100.865 7.61521 101.088 7.30875 101.019 7.09962C100.935 6.84866 101.256 6.55621 101.716 6.40325C102.176 6.25028 102.483 5.916 102.414 5.70688C102.33 5.45592 102.651 5.16347 103.111 5.01051C103.571 4.85755 104.003 4.89969 104.087 5.15065Z" fill="#B1F1FD"/>
<path d="M39.4432 38.0222L38.5357 39.9032L40.2878 45.1732C41.2473 48.0592 41.9424 50.4293 41.8169 50.471C41.6914 50.5127 39.8244 49.6471 37.7066 48.5861C35.5749 47.4833 33.5544 46.7151 33.178 46.8403C32.8434 46.9515 32.4811 46.8397 32.4116 46.6306C32.3281 46.3796 31.436 46.4904 30.3903 46.8381C28.9264 47.3248 28.2988 47.8121 27.8102 48.8571C27.1262 50.1528 27.1817 50.4595 28.7113 55.0604C29.6847 57.9882 30.4778 59.8147 30.7287 59.7313C30.9797 59.6478 31.3277 60.136 31.5641 60.847C31.7866 61.5162 32.1904 62.0322 32.3996 61.9627C32.6505 61.8793 32.9986 62.3674 33.235 63.0784C33.4575 63.7476 33.8613 64.2637 34.0704 64.1942C34.3214 64.1107 34.6138 64.4315 34.7668 64.8916C34.9197 65.3517 35.254 65.6586 35.4632 65.5891C35.7141 65.5056 36.0622 65.9938 36.2986 66.7048C36.5211 67.374 36.9249 67.89 37.134 67.8205C37.385 67.7371 37.6635 68.0161 37.8026 68.4343C37.9416 68.8526 38.5127 69.313 39.0841 69.4946C39.6554 69.6763 40.2265 70.1367 40.3656 70.5549C40.5046 70.9732 40.825 71.2383 41.0341 71.1688C41.2851 71.0853 41.5636 71.3643 41.7027 71.7826C41.8417 72.2008 42.4128 72.6612 42.9842 72.8429C43.5555 73.0245 44.1127 73.4431 44.21 73.7359C44.3213 74.0705 45.1711 74.6705 46.0488 75.0754C46.9685 75.4664 47.7625 76.0385 47.8459 76.2894C48.0684 76.9587 51.7328 78.7596 52.402 78.5371C52.7366 78.4258 53.3637 78.6354 53.8512 78.9842C54.5896 79.5284 55.2168 79.4592 57.81 78.5971C60.4869 77.7071 60.9471 77.4148 61.5195 76.2026C61.9243 75.4642 62.1341 74.5583 62.0089 74.1819C61.8977 73.8473 62.0095 73.485 62.2186 73.4155C62.4695 73.332 62.4422 72.6908 62.2197 72.0216C61.9833 71.3106 62.0116 70.6973 62.2208 70.6278C62.4717 70.5444 62.3192 69.5267 61.9437 68.3974C61.5544 67.2263 61.4576 66.2366 61.6667 66.1671C61.9177 66.0837 61.6261 64.6478 60.9725 62.682C60.319 60.7162 60.0274 59.2803 60.2783 59.1969C60.5293 59.1134 59.6815 56.0045 57.9155 50.6926C56.1495 45.3808 54.9671 42.3831 54.7161 42.4665C54.507 42.5361 54.1032 42.02 53.8807 41.3508C53.6443 40.6398 53.2962 40.1517 53.0453 40.2351C52.8361 40.3046 52.4462 39.8304 52.2376 39.203C52.0151 38.5338 51.4302 37.8922 50.8171 37.7245C50.2458 37.5428 49.7025 37.1661 49.5912 36.8315C49.3548 36.1204 47.9615 35.4224 47.2505 35.6588C46.9159 35.77 46.2888 35.5605 45.8013 35.2116C45.0769 34.7093 44.4775 34.7228 42.6092 35.3903C40.5598 36.0717 40.239 36.3642 39.4432 38.0222ZM43.2906 37.4398C43.3602 37.6489 43.7225 37.7607 44.0571 37.6495C44.8936 37.3714 49.6308 39.7446 49.9089 40.5811C50.0201 40.9157 50.3266 41.139 50.5357 41.0694C50.7867 40.986 51.1347 41.4741 51.3711 42.1852C51.5936 42.8544 51.9974 43.3704 52.2066 43.3009C52.4575 43.2174 53.6399 46.2151 55.4059 51.527C57.1719 56.8389 58.0198 59.9478 57.7688 60.0312C57.5178 60.1146 57.865 61.7178 58.602 63.9346C59.339 66.1513 59.6862 67.7545 59.4353 67.838C59.2262 67.9075 59.2673 68.7299 59.5733 69.65C59.8792 70.5702 59.9622 71.3787 59.7112 71.4621C59.5021 71.5317 59.4181 71.9776 59.5711 72.4377C59.724 72.8978 59.6819 73.3298 59.4309 73.4133C59.2218 73.4828 59.1378 73.9288 59.2908 74.3888C59.4716 74.9326 59.2761 75.3227 58.7742 75.4896C58.3141 75.6425 57.9375 76.0464 57.8954 76.3391C57.8254 76.8269 57.7417 76.8547 57.3935 76.506C57.1846 76.2967 56.5156 76.2405 55.9719 76.4212C55.2608 76.6576 53.6862 76.1128 50.7882 74.661C48.5032 73.5162 46.5249 72.316 46.4276 72.0232C46.3302 71.7304 45.7869 71.3537 45.2156 71.172C44.6443 70.9904 44.0871 70.5718 43.9619 70.1954C43.8368 69.8189 43.2796 69.4003 42.7082 69.2187C42.1369 69.0371 41.5658 68.5766 41.4267 68.1584C41.2877 67.7401 41.0091 67.4611 40.7582 67.5446C40.5491 67.6141 40.2148 67.3072 40.0618 66.8471C39.9088 66.387 39.6164 66.0662 39.3654 66.1497C39.1563 66.2192 38.822 65.9123 38.6691 65.4522C38.5161 64.9921 38.2237 64.6713 37.9727 64.7547C37.7636 64.8243 37.4293 64.5174 37.2763 64.0573C37.1234 63.5972 36.8309 63.2764 36.58 63.3598C36.3708 63.4293 35.967 62.9133 35.7445 62.2441C35.5081 61.5331 35.1601 61.0449 34.9091 61.1284C34.7 61.1979 34.2962 60.6819 34.0737 60.0127C33.8373 59.3016 33.4892 58.8135 33.2383 58.8969C32.9873 58.9804 32.4445 57.9067 31.9857 56.5265C31.5268 55.1462 30.984 54.0725 30.7331 54.156C30.5239 54.2255 30.1897 53.9186 30.0367 53.4585C29.8837 52.9984 29.9677 52.5525 30.1768 52.4829C30.4278 52.3995 30.4282 51.842 30.2336 51.2564C29.8303 50.0435 30.5985 48.023 31.1833 48.804C31.3504 49.0271 31.7684 49.1669 32.103 49.0556C32.8141 48.8192 38.7356 51.6812 38.972 52.3922C39.0554 52.6432 39.8913 53.2014 40.7691 53.6063C41.6887 53.9973 42.4966 54.6112 42.6079 54.9458C42.7052 55.2386 43.2624 55.6572 43.8338 55.8388C44.4051 56.0204 44.9484 56.3972 45.0596 56.7318C45.3099 57.4847 46.6893 58.1409 47.484 57.8767C48.0277 57.6959 47.9864 57.1523 47.3189 55.1446C46.86 53.7644 46.3172 52.6907 46.0663 52.7741C45.8153 52.8576 45.2309 51.6584 44.6746 49.9854C44.1184 48.3123 43.5339 47.1132 43.283 47.1966C43.0739 47.2661 42.5449 46.3737 42.1695 45.2444C41.7801 44.0733 41.6833 43.0836 41.8924 43.014C42.1434 42.9306 42.0882 42.2058 41.824 41.4111C41.5042 40.4491 41.5468 39.4595 41.9517 38.5817C42.5939 37.1605 43.0681 36.7706 43.2906 37.4398Z" fill="#B1F1FD"/>
<path d="M9.90029 65.5408C10.1784 66.3773 11.516 67.0474 12.3525 66.7693C12.7289 66.6442 13.0773 66.7141 13.1607 66.9651C13.2303 67.1742 14.0527 67.133 14.9728 66.8271C15.893 66.5212 16.7015 66.4382 16.7849 66.6892C16.8684 66.9401 18.1787 66.6902 19.8518 66.134C22.2359 65.3414 22.7379 65.0352 22.5571 64.4914C22.1399 63.2366 20.816 63.0265 18.4319 63.8192C17.1353 64.2502 16.0201 64.3887 15.9506 64.1796C15.8671 63.9287 15.2678 63.9421 14.5568 64.1785C13.8875 64.401 13.2324 64.3866 13.1629 64.1774C13.0795 63.9265 12.271 64.0095 11.3508 64.3154C10.0961 64.7326 9.73342 65.0389 9.90029 65.5408Z" fill="#B1F1FD"/>
<path d="M22.6316 75.894C22.7011 76.1032 21.8504 76.6182 20.6793 77.0076C18.6299 77.6889 18.6019 77.7447 19.0052 78.9576C19.3806 80.0869 19.5478 80.1707 20.6771 79.7952C21.3882 79.5588 21.8624 79.1689 21.7929 78.9598C21.7094 78.7089 22.7831 78.1661 24.1633 77.7072C25.5436 77.2483 26.7285 77.0402 26.812 77.2911C27.0205 77.9185 28.1918 77.3898 28.6803 76.4842C28.9037 76.0383 28.96 75.3693 28.8487 75.0347C28.6679 74.491 28.1243 74.5324 26.1167 75.1998C24.7364 75.6587 23.5515 75.8669 23.4681 75.6159C23.3846 75.365 23.1617 75.2533 22.9108 75.3367C22.7016 75.4063 22.5481 75.6431 22.6316 75.894Z" fill="#B1F1FD"/>
<path d="M29.5931 85.6559C29.6626 85.8651 29.2302 86.2411 28.6447 86.4357C27.2644 86.8946 26.6781 88.065 27.137 89.4452C27.4012 90.2399 27.7077 90.4632 28.3351 90.2546C28.7951 90.1016 29.102 89.7674 29.0325 89.5582C28.9491 89.3073 29.2699 89.0148 29.73 88.8619C30.1901 88.7089 30.497 88.3746 30.4274 88.1655C30.344 87.9145 30.7903 87.5804 31.3758 87.3857C32.5888 86.9824 33.3424 85.7564 33.0226 84.7945C32.8557 84.2925 32.3818 84.2643 31.1271 84.6815C30.2069 84.9874 29.5097 85.405 29.5931 85.6559Z" fill="#B1F1FD"/>
</svg>
