<svg width="155" height="14" viewBox="0 0 155 14" fill="none" xmlns="http://www.w3.org/2000/svg">
<path fill-rule="evenodd" clip-rule="evenodd" d="M92.6642 6.33042C72.1695 6.57659 51.6647 7.55314 31.2594 9.2987C21.558 10.1288 10.2918 10.025 0.882692 12.8549C0.41386 12.9973 0.503147 13.4246 0.513295 13.4673C0.533591 13.5548 0.618855 13.8457 0.992297 13.8599C1.03289 13.862 1.31904 13.8213 1.42864 13.807C4.20713 13.4408 6.97547 13.0136 9.75599 12.6678C19.3559 11.4695 28.9842 10.5641 38.6267 9.77071C51.4252 8.71686 64.3333 8.15533 77.1664 7.71589C84.1907 7.47583 91.3835 7.79522 98.4302 7.29882C101.018 7.28458 103.606 7.28258 106.193 7.29072C117.011 7.32938 127.816 7.74033 138.616 8.30387C142.088 8.48494 144.737 8.68025 148.137 8.81249C149.427 8.86335 151.475 8.89794 152.9 8.92032C153.109 8.92439 153.643 8.92842 153.864 8.93045C153.886 8.93452 153.909 8.93453 153.933 8.93453C154.018 8.93453 154.059 8.92842 154.067 8.92842C154.55 8.85721 154.505 8.39947 154.493 8.3303C154.491 8.31606 154.418 7.9295 154.002 7.91526C153.903 7.91119 153.19 7.90716 152.916 7.90309C151.5 7.88072 149.46 7.84613 148.175 7.7973C144.782 7.66506 142.135 7.46975 138.669 7.28869C127.853 6.72514 117.031 6.31215 106.197 6.2735C104.874 6.26943 103.549 6.26739 102.226 6.26942C102.181 6.15346 102.081 6.02326 101.862 5.96629C101.657 5.9134 100.19 5.86661 99.6236 5.81982C95.4325 5.47396 95.5564 5.49023 90.9452 5.20745C83.9614 4.77818 82.8979 4.68048 75.634 4.49941C62.4397 4.16983 49.2394 4.19631 36.0431 4.22886C29.5281 4.24717 22.5525 4.68864 15.9381 3.86469C18.1178 3.60835 20.3057 3.42118 22.4896 3.20756C29.9462 2.47923 37.409 2.02756 44.8961 1.71018C62.8558 0.949299 80.8439 0.64619 98.7976 1.68376C94.9759 1.72038 91.1562 1.8058 87.3345 1.86073C71.7778 2.08859 56.0709 1.91771 40.5467 3.09973C40.2686 3.12211 40.0596 3.36623 40.0799 3.64495C40.1002 3.9257 40.3458 4.13526 40.6238 4.11492C56.1278 2.9329 71.8123 3.10582 87.3487 2.87796C93.1209 2.79455 98.8909 2.64401 104.663 2.68877C106.644 2.70504 108.625 2.7783 110.606 2.80271C110.997 2.80881 112.006 2.88612 112.15 2.85357C112.469 2.78236 112.538 2.54635 112.558 2.43039C112.568 2.36122 112.601 1.96246 112.114 1.82005C108.789 0.847584 102.654 0.892342 99.4227 0.701104C81.2478 -0.377156 63.0364 -0.0760648 44.8535 0.692958C37.3481 1.01237 29.8671 1.46608 22.3901 2.19645C19.778 2.45075 17.1599 2.67047 14.558 3.00819C14.1379 3.06312 13.1941 3.14248 12.7375 3.22589C12.5467 3.26048 12.4087 3.30927 12.3478 3.34386C12.1103 3.47813 12.0677 3.67344 12.0677 3.80568C12.0657 3.9074 12.1083 4.26546 12.6055 4.36312C20.1819 5.8503 28.4261 5.26643 36.0451 5.24609C49.2333 5.21354 62.4235 5.18705 75.6097 5.51664C82.8552 5.6977 83.9147 5.79337 90.8843 6.22263C91.5723 6.26332 92.1548 6.2999 92.6642 6.33042Z" fill="#20B4BD" fill-opacity="0.4"/>
</svg>
