<svg width="98" height="76" viewBox="0 0 98 76" fill="none" xmlns="http://www.w3.org/2000/svg">
<path fill-rule="evenodd" clip-rule="evenodd" d="M72.0695 14.7713C76.4096 15.4455 79.6654 17.7425 82.8955 20.275C93.4875 28.5896 96.0838 39.9669 87.1074 49.8782C73.1539 65.2445 43.7317 73.0679 22.4052 65.615C17.6815 63.9699 11.2286 62.2679 7.01741 56.3098C3.09978 50.7697 3.94672 44.7895 6.60852 39.4597C9.32307 33.9934 13.9261 29.1942 17.5029 26.1773C33.1376 13.0176 62.6784 2.74481 87.2888 12.584C87.7957 12.7772 88.3433 12.6012 88.5391 12.1939C88.7348 11.7867 88.5237 11.3037 88.054 11.1146C62.7207 0.988006 32.2537 11.4492 16.1618 24.9923C11.7105 28.7552 5.71987 35.1951 3.42987 42.2884C1.87736 47.138 2.02732 52.2865 5.4186 57.1241C9.88903 63.4691 16.7353 65.3691 21.7492 67.1193C43.7658 74.8158 74.192 66.7795 88.5785 50.9065C98.24 40.2552 95.5121 28.0221 84.1208 19.0843C80.65 16.3404 77.0695 13.9051 72.3584 13.1738C71.8391 13.0934 71.3543 13.3863 71.3053 13.8306C71.2192 14.2707 71.5874 14.695 72.0695 14.7713Z" fill="#EE46BC"/>
</svg>
