<svg width="14" height="15" viewBox="0 0 14 15" fill="none" xmlns="http://www.w3.org/2000/svg">
<g clip-path="url(#clip0_1904_834)">
<path d="M8.1665 2.25V4.58333C8.1665 4.73804 8.22796 4.88642 8.33736 4.99581C8.44675 5.10521 8.59513 5.16667 8.74984 5.16667H11.0832" stroke="#FFFEFE" stroke-width="0.875" stroke-linecap="round" stroke-linejoin="round"/>
<path d="M9.9165 12.75H4.08317C3.77375 12.75 3.47701 12.6271 3.25821 12.4083C3.03942 12.1895 2.9165 11.8928 2.9165 11.5833V3.41667C2.9165 3.10725 3.03942 2.8105 3.25821 2.59171C3.47701 2.37292 3.77375 2.25 4.08317 2.25H8.1665L11.0832 5.16667V11.5833C11.0832 11.8928 10.9603 12.1895 10.7415 12.4083C10.5227 12.6271 10.2259 12.75 9.9165 12.75Z" stroke="#FFFEFE" stroke-width="0.875" stroke-linecap="round" stroke-linejoin="round"/>
<path d="M5.25 9.25016L6.41667 10.4168L8.75 8.0835" stroke="#FFFEFE" stroke-width="0.875" stroke-linecap="round" stroke-linejoin="round"/>
</g>
<defs>
<clipPath id="clip0_1904_834">
<rect width="14" height="14" fill="white" transform="translate(0 0.5)"/>
</clipPath>
</defs>
</svg>
