<svg width="44" height="44" viewBox="0 0 44 44" fill="none" xmlns="http://www.w3.org/2000/svg">
<g clip-path="url(#clip0_1217_5241)">
<path d="M27.5 5.5V12.8333C27.5 13.3196 27.6932 13.7859 28.037 14.1297C28.3808 14.4735 28.8471 14.6667 29.3333 14.6667H36.6667" stroke="#393A3A" stroke-width="2.75" stroke-linecap="round" stroke-linejoin="round"/>
<path d="M33 31.1667H20.1667C19.1942 31.1667 18.2616 30.7804 17.5739 30.0927C16.8863 29.4051 16.5 28.4725 16.5 27.5V9.16667C16.5 8.19421 16.8863 7.26158 17.5739 6.57394C18.2616 5.88631 19.1942 5.5 20.1667 5.5H27.5L36.6667 14.6667V27.5C36.6667 28.4725 36.2804 29.4051 35.5927 30.0927C34.9051 30.7804 33.9725 31.1667 33 31.1667Z" stroke="#393A3A" stroke-width="2.75" stroke-linecap="round" stroke-linejoin="round"/>
<path d="M29.3346 31.1654V34.832C29.3346 35.8045 28.9483 36.7371 28.2607 37.4248C27.5731 38.1124 26.6404 38.4987 25.668 38.4987H12.8346C11.8622 38.4987 10.9295 38.1124 10.2419 37.4248C9.55428 36.7371 9.16797 35.8045 9.16797 34.832V16.4987C9.16797 15.5262 9.55428 14.5936 10.2419 13.906C10.9295 13.2183 11.8622 12.832 12.8346 12.832H16.5013" stroke="#393A3A" stroke-width="2.75" stroke-linecap="round" stroke-linejoin="round"/>
</g>
<defs>
<clipPath id="clip0_1217_5241">
<rect width="44" height="44" fill="white"/>
</clipPath>
</defs>
</svg>
