<svg width="24" height="24" viewBox="0 0 24 24" fill="none" xmlns="http://www.w3.org/2000/svg">
<path fill-rule="evenodd" clip-rule="evenodd" d="M14.4934 19.2698C14.5577 19.6512 14.6061 20.0283 14.6374 20.4055C14.6846 20.9712 14.6554 21.5412 14.6721 22.1069C14.6794 22.3469 14.7081 22.9726 14.6966 23.0626C14.5916 23.8469 13.9586 23.9669 13.7734 23.9884C13.6839 24.0012 12.7641 24.104 12.5657 23.084C12.3223 21.8369 12.2443 20.5812 12.3304 19.3512C12.1294 18.3055 11.7857 17.2641 11.3318 16.3212C9.52585 12.5712 6.08443 12.2069 2.35586 12.2412C1.78243 12.2498 1.30627 11.7998 1.27627 11.2298C1.24627 10.6555 1.67313 10.1583 2.24398 10.1069C4.32813 9.90549 8.02587 8.23404 9.3043 6.49404C9.57172 6.12976 9.72729 5.25117 9.933 4.38974C10.2201 3.19403 10.5617 2.01119 10.9444 1.51404C11.0019 1.4369 11.7 0.648312 11.9083 0.532598C12.4089 0.258312 12.8096 0.416912 13.0371 0.562628C13.2647 0.708342 13.5223 0.995481 13.6251 1.4712C13.7327 1.96834 13.6419 2.98836 13.6586 3.20693C13.7194 3.99979 13.878 5.55549 14.2016 6.89264C14.376 7.61263 14.562 8.27692 14.8697 8.60692C16.0089 9.82835 17.8303 9.64833 19.3641 9.4469C19.5403 9.42548 19.7164 9.39975 19.8921 9.37832C20.5166 9.19403 21.1796 9.05691 21.8803 8.97549C22.9384 8.8512 23.1124 9.82406 23.1219 9.88834C23.1416 10.0298 23.2149 10.7583 22.4173 11.0498C22.3303 11.0798 21.6883 11.2212 21.441 11.2769C21.0964 11.3541 20.748 11.414 20.3983 11.4697C16.7859 12.5926 14.8239 15.7469 14.4934 19.2698ZM13.2536 15.374C11.8899 12.554 9.82029 11.1912 7.36714 10.574H7.36756C8.89928 9.77262 10.2926 8.76974 11.031 7.7626C11.3113 7.38117 11.5684 6.61405 11.8003 5.75262C11.9259 6.55405 12.0956 7.40693 12.3197 8.1355C12.5747 8.96693 12.918 9.65688 13.3011 10.0683C14.0409 10.8612 14.9692 11.3026 15.9673 11.5212C14.7724 12.5797 13.8664 13.8997 13.2536 15.374Z" fill="#393A3A"/>
</svg>
