<svg width="1159" height="191" viewBox="0 0 1159 191" fill="none" xmlns="http://www.w3.org/2000/svg">
<path fill-rule="evenodd" clip-rule="evenodd" d="M16.255 179.855C15.2878 181.606 14.8646 183.42 14.3256 185.307C14.2204 185.676 14.4552 186.063 14.8492 186.175C15.2434 186.286 15.6488 186.076 15.7542 185.708C16.2653 183.918 16.6529 182.19 17.5712 180.527C17.757 180.191 17.6128 179.767 17.2493 179.582C16.8865 179.395 16.4405 179.519 16.255 179.855Z" fill="#FF8DA9"/>
<path fill-rule="evenodd" clip-rule="evenodd" d="M12.7208 174.484C8.74003 176.577 4.7365 179.552 1.64457 182.796C1.3748 183.079 1.39104 183.527 1.68124 183.794C1.97145 184.061 2.42574 184.05 2.69551 183.766C5.68525 180.63 9.55721 177.753 13.406 175.731C13.7541 175.547 13.883 175.119 13.6938 174.775C13.5046 174.432 13.0689 174.3 12.7208 174.484Z" fill="#FF8DA9"/>
<path fill-rule="evenodd" clip-rule="evenodd" d="M13.0804 171.437C10.2411 170.217 6.98718 170.256 4.00817 170.722C3.61919 170.784 3.35875 171.141 3.42657 171.519C3.49405 171.899 3.86473 172.158 4.25314 172.098C6.96646 171.673 9.9327 171.599 12.5188 172.71C12.8815 172.867 13.3019 172.707 13.4566 172.357C13.6114 172.006 13.4429 171.593 13.0804 171.437Z" fill="#FF8DA9"/>
<path fill-rule="evenodd" clip-rule="evenodd" d="M1141.66 19.2818C1141.93 17.3003 1141.67 15.4555 1141.5 13.5007C1141.46 13.119 1141.11 12.8417 1140.7 12.8797C1140.29 12.9176 1139.99 13.259 1140.02 13.6408C1140.19 15.4944 1140.45 17.246 1140.19 19.128C1140.14 19.5087 1140.42 19.8528 1140.83 19.8941C1141.24 19.9378 1141.61 19.6624 1141.66 19.2818Z" fill="#FF8DA9"/>
<path fill-rule="evenodd" clip-rule="evenodd" d="M1146.89 23.0213C1149.85 19.6357 1152.52 15.4195 1154.23 11.2807C1154.38 10.9192 1154.21 10.5074 1153.84 10.3626C1153.47 10.2178 1153.05 10.392 1152.9 10.7535C1151.24 14.7552 1148.67 18.8329 1145.8 22.1048C1145.54 22.4014 1145.58 22.8472 1145.88 23.0995C1146.18 23.3518 1146.63 23.3179 1146.89 23.0213Z" fill="#FF8DA9"/>
<path fill-rule="evenodd" clip-rule="evenodd" d="M1147.65 25.9934C1150.74 26.1105 1153.76 24.9026 1156.37 23.3966C1156.71 23.1988 1156.83 22.7716 1156.63 22.4433C1156.43 22.1128 1155.99 22.005 1155.65 22.2006C1153.27 23.5731 1150.53 24.7095 1147.72 24.6033C1147.32 24.5883 1146.99 24.8882 1146.97 25.2709C1146.95 25.6537 1147.26 25.9783 1147.65 25.9934Z" fill="#FF8DA9"/>
<path fill-rule="evenodd" clip-rule="evenodd" d="M520.493 71.3966C514.25 82.3773 501.779 86.8416 490.196 80.6597C489.81 80.4539 489.321 80.5826 489.104 80.9428C488.886 81.3095 489.022 81.7726 489.408 81.9784C501.823 88.6106 515.213 83.8826 521.904 72.1171C522.114 71.7504 521.968 71.2872 521.578 71.0878C521.188 70.8948 520.702 71.0299 520.493 71.3966Z" fill="#FF8DA9"/>
<path d="M500.5 75C501.881 75 503 74.1046 503 73C503 71.8954 501.881 71 500.5 71C499.119 71 498 71.8954 498 73C498 74.1046 499.119 75 500.5 75Z" fill="#FF8DA9"/>
<path d="M509.5 73C510.881 73 512 72.1046 512 71C512 69.8954 510.881 69 509.5 69C508.119 69 507 69.8954 507 71C507 72.1046 508.119 73 509.5 73Z" fill="#FF8DA9"/>
<path d="M1003.95 31C1004.21 21.4981 1003.49 3.26479 998.564 6.34648C990.365 11.4733 976 24.3351 976 29.2905" stroke="#FF8DA9" stroke-width="3.10941"/>
<path d="M914.045 31C913.786 21.4981 914.512 3.26479 919.487 6.34648C924.462 9.42817 946 23.8395 947 29.2905" stroke="#FF8DA9" stroke-width="3.10941"/>
<path d="M923.044 27L929 24.0403C927.346 22.0672 923.739 18.3183 922.548 19.1075C921.357 19.8968 922.382 24.698 923.044 27Z" fill="#FF8DA9"/>
<path d="M995.956 26L990 23.0403C991.654 21.0672 995.261 17.3183 996.452 18.1075C997.643 18.8968 996.618 23.698 995.956 26Z" fill="#FF8DA9"/>
<path fill-rule="evenodd" clip-rule="evenodd" d="M403.502 150.308C403.751 150.305 403.993 150.315 404.22 150.335C404.903 150.4 404.885 151.056 404.883 151.107C404.878 151.213 404.837 151.688 404.301 151.784C404.269 151.79 404.038 151.799 403.949 151.801C403.76 151.804 403.573 151.803 403.387 151.77C403.07 151.783 402.743 151.825 402.434 151.917C401.978 152.049 401.554 152.275 401.321 152.702C400.902 153.465 400.893 154.488 400.77 155.339C400.719 155.694 400.424 155.956 400.075 155.956C399.726 155.954 399.428 155.691 399.373 155.334C399.208 154.259 398.296 152.998 397.557 152.19C397.33 151.942 396.781 151.653 396.433 151.34C396.154 151.087 395.97 150.811 395.9 150.554C395.873 150.453 395.779 149.898 396.339 149.67C396.496 149.607 397.315 149.395 397.409 149.376C397.943 149.264 398.423 149.093 398.855 148.741C399.229 148.436 399.559 148.061 399.748 147.603C399.824 147.418 399.883 147.226 399.944 147.034C399.954 146.966 399.982 146.775 400.006 146.708C400.054 146.571 400.127 146.471 400.198 146.401C400.334 146.267 400.494 146.202 400.674 146.196C400.793 146.191 400.933 146.213 401.087 146.305C401.196 146.375 401.36 146.529 401.461 146.799C401.568 147.083 401.661 147.686 401.686 147.794C401.862 148.543 402.139 149.282 402.636 149.87C402.885 150.163 403.159 150.238 403.502 150.308ZM401.488 150.715C400.905 150.982 400.41 151.392 400.09 151.977C399.957 152.217 399.854 152.481 399.772 152.755C399.401 152.171 398.976 151.627 398.581 151.193C398.452 151.053 398.242 150.897 398.011 150.731C398.642 150.568 399.212 150.316 399.738 149.887C400.048 149.633 400.333 149.344 400.573 149.019C400.789 149.629 401.084 150.21 401.488 150.715Z" fill="#FF8DA9"/>
<path fill-rule="evenodd" clip-rule="evenodd" d="M384.623 135.021C384.359 140.653 384.468 146.421 382.572 151.75C382.436 152.132 382.611 152.564 382.959 152.715C383.308 152.866 383.703 152.676 383.839 152.294C385.788 146.816 385.711 140.892 385.981 135.104C386 134.693 385.712 134.344 385.339 134.321C384.963 134.299 384.645 134.612 384.623 135.021Z" fill="#FF8DA9"/>
<path fill-rule="evenodd" clip-rule="evenodd" d="M392.15 134.316C393.698 136.083 394.844 137.993 395.379 140.273C395.471 140.665 395.867 140.912 396.262 140.826C396.658 140.738 396.904 140.35 396.812 139.955C396.221 137.435 394.967 135.32 393.257 133.366C392.989 133.061 392.524 133.025 392.219 133.287C391.913 133.549 391.882 134.01 392.15 134.316Z" fill="#FF8DA9"/>
<path fill-rule="evenodd" clip-rule="evenodd" d="M408.469 130.092C411.082 130.975 413.104 132.602 414.533 135.038C414.737 135.386 415.177 135.502 415.514 135.293C415.852 135.086 415.959 134.634 415.755 134.286C414.14 131.532 411.857 129.692 408.904 128.694C408.528 128.569 408.126 128.778 408.006 129.164C407.885 129.55 408.093 129.967 408.469 130.092Z" fill="#FF8DA9"/>
<mask id="path-18-outside-1_762_59371" maskUnits="userSpaceOnUse" x="20" y="27" width="1124" height="147" fill="black">
<rect fill="white" x="20" y="27" width="1124" height="147"/>
<path d="M23 171V31H47.6V89.2H114.4V31H139V171H114.4V112H47.6V171H23ZM158.953 171L220.553 30H243.353L304.953 171H278.953L264.753 137.2H198.553L184.153 171H158.953ZM207.553 115.4H255.753L231.553 59.4L207.553 115.4ZM324.961 171V31H380.161C396.428 31 409.361 35.2667 418.961 43.8C428.561 52.3333 433.361 63.8 433.361 78.2C433.361 93.2667 428.028 105 417.361 113.4C406.828 121.8 393.494 126 377.361 126H349.561V171H324.961ZM349.561 103.8H378.161C387.361 103.8 394.694 101.467 400.161 96.8C405.628 92.1333 408.361 86 408.361 78.4C408.361 70.4 405.628 64.2667 400.161 60C394.828 55.6 387.494 53.4 378.161 53.4H349.561V103.8ZM454.555 171V31H509.755C526.021 31 538.955 35.2667 548.555 43.8C558.155 52.3333 562.955 63.8 562.955 78.2C562.955 93.2667 557.621 105 546.955 113.4C536.421 121.8 523.088 126 506.955 126H479.155V171H454.555ZM479.155 103.8H507.755C516.955 103.8 524.288 101.467 529.755 96.8C535.221 92.1333 537.955 86 537.955 78.4C537.955 70.4 535.221 64.2667 529.755 60C524.421 55.6 517.088 53.4 507.755 53.4H479.155V103.8ZM623.395 171V115.8L567.795 31H596.795L635.995 93L675.595 31H703.795L648.195 115.2V171H623.395Z"/>
<path d="M777.32 171V31H832.52C848.787 31 861.72 35.2667 871.32 43.8C880.92 52.3333 885.72 63.8 885.72 78.2C885.72 93.2667 880.387 105 869.72 113.4C859.187 121.8 845.854 126 829.72 126H801.92V171H777.32ZM801.92 103.8H830.52C839.72 103.8 847.054 101.467 852.52 96.8C857.987 92.1333 860.72 86 860.72 78.4C860.72 70.4 857.987 64.2667 852.52 60C847.187 55.6 839.854 53.4 830.52 53.4H801.92V103.8ZM906.914 171V31H1010.71V53H931.514V89.4H1001.71V111.4H931.514V149H1011.71V171H906.914ZM1071.3 171V53.8H1026.9V31H1140.5V53.8H1096.1V171H1071.3Z"/>
</mask>
<path d="M23 171V31H47.6V89.2H114.4V31H139V171H114.4V112H47.6V171H23ZM158.953 171L220.553 30H243.353L304.953 171H278.953L264.753 137.2H198.553L184.153 171H158.953ZM207.553 115.4H255.753L231.553 59.4L207.553 115.4ZM324.961 171V31H380.161C396.428 31 409.361 35.2667 418.961 43.8C428.561 52.3333 433.361 63.8 433.361 78.2C433.361 93.2667 428.028 105 417.361 113.4C406.828 121.8 393.494 126 377.361 126H349.561V171H324.961ZM349.561 103.8H378.161C387.361 103.8 394.694 101.467 400.161 96.8C405.628 92.1333 408.361 86 408.361 78.4C408.361 70.4 405.628 64.2667 400.161 60C394.828 55.6 387.494 53.4 378.161 53.4H349.561V103.8ZM454.555 171V31H509.755C526.021 31 538.955 35.2667 548.555 43.8C558.155 52.3333 562.955 63.8 562.955 78.2C562.955 93.2667 557.621 105 546.955 113.4C536.421 121.8 523.088 126 506.955 126H479.155V171H454.555ZM479.155 103.8H507.755C516.955 103.8 524.288 101.467 529.755 96.8C535.221 92.1333 537.955 86 537.955 78.4C537.955 70.4 535.221 64.2667 529.755 60C524.421 55.6 517.088 53.4 507.755 53.4H479.155V103.8ZM623.395 171V115.8L567.795 31H596.795L635.995 93L675.595 31H703.795L648.195 115.2V171H623.395Z" fill="#FF8DA9"/>
<path d="M23 171H20V174H23V171ZM23 31V28H20V31H23ZM47.6 31H50.6V28H47.6V31ZM47.6 89.2H44.6V92.2H47.6V89.2ZM114.4 89.2V92.2H117.4V89.2H114.4ZM114.4 31V28H111.4V31H114.4ZM139 31H142V28H139V31ZM139 171V174H142V171H139ZM114.4 171H111.4V174H114.4V171ZM114.4 112H117.4V109H114.4V112ZM47.6 112V109H44.6V112H47.6ZM47.6 171V174H50.6V171H47.6ZM26 171V31H20V171H26ZM23 34H47.6V28H23V34ZM44.6 31V89.2H50.6V31H44.6ZM47.6 92.2H114.4V86.2H47.6V92.2ZM117.4 89.2V31H111.4V89.2H117.4ZM114.4 34H139V28H114.4V34ZM136 31V171H142V31H136ZM139 168H114.4V174H139V168ZM117.4 171V112H111.4V171H117.4ZM114.4 109H47.6V115H114.4V109ZM44.6 112V171H50.6V112H44.6ZM47.6 168H23V174H47.6V168ZM158.953 171L156.204 169.799L154.369 174H158.953V171ZM220.553 30V27H218.59L217.804 28.799L220.553 30ZM243.353 30L246.102 28.799L245.316 27H243.353V30ZM304.953 171V174H309.538L307.702 169.799L304.953 171ZM278.953 171L276.187 172.162L276.96 174H278.953V171ZM264.753 137.2L267.519 136.038L266.747 134.2H264.753V137.2ZM198.553 137.2V134.2H196.57L195.793 136.024L198.553 137.2ZM184.153 171V174H186.136L186.913 172.176L184.153 171ZM207.553 115.4L204.796 114.218L203.004 118.4H207.553V115.4ZM255.753 115.4V118.4H260.318L258.507 114.21L255.753 115.4ZM231.553 59.4L234.307 58.2099L231.542 51.8109L228.796 58.2182L231.553 59.4ZM161.702 172.201L223.302 31.201L217.804 28.799L156.204 169.799L161.702 172.201ZM220.553 33H243.353V27H220.553V33ZM240.604 31.201L302.204 172.201L307.702 169.799L246.102 28.799L240.604 31.201ZM304.953 168H278.953V174H304.953V168ZM281.719 169.838L267.519 136.038L261.987 138.362L276.187 172.162L281.719 169.838ZM264.753 134.2H198.553V140.2H264.753V134.2ZM195.793 136.024L181.393 169.824L186.913 172.176L201.313 138.376L195.793 136.024ZM184.153 168H158.953V174H184.153V168ZM207.553 118.4H255.753V112.4H207.553V118.4ZM258.507 114.21L234.307 58.2099L228.799 60.5901L252.999 116.59L258.507 114.21ZM228.796 58.2182L204.796 114.218L210.311 116.582L234.311 60.5818L228.796 58.2182ZM324.961 171H321.961V174H324.961V171ZM324.961 31V28H321.961V31H324.961ZM418.961 43.8L416.968 46.0422V46.0422L418.961 43.8ZM417.361 113.4L415.505 111.043L415.498 111.049L415.49 111.054L417.361 113.4ZM349.561 126V123H346.561V126H349.561ZM349.561 171V174H352.561V171H349.561ZM349.561 103.8H346.561V106.8H349.561V103.8ZM400.161 60L398.252 62.3141L398.283 62.34L398.315 62.3649L400.161 60ZM349.561 53.4V50.4H346.561V53.4H349.561ZM327.961 171V31H321.961V171H327.961ZM324.961 34H380.161V28H324.961V34ZM380.161 34C395.895 34 408.051 38.1165 416.968 46.0422L420.954 41.5578C410.67 32.4168 396.96 28 380.161 28V34ZM416.968 46.0422C425.846 53.9337 430.361 64.5413 430.361 78.2H436.361C436.361 63.0587 431.276 50.7329 420.954 41.5578L416.968 46.0422ZM430.361 78.2C430.361 92.4623 425.363 103.28 415.505 111.043L419.217 115.757C430.692 106.72 436.361 94.071 436.361 78.2H430.361ZM415.49 111.054C405.588 118.951 392.954 123 377.361 123V129C394.035 129 408.067 124.649 419.231 115.745L415.49 111.054ZM377.361 123H349.561V129H377.361V123ZM346.561 126V171H352.561V126H346.561ZM349.561 168H324.961V174H349.561V168ZM349.561 106.8H378.161V100.8H349.561V106.8ZM378.161 106.8C387.87 106.8 395.961 104.33 402.109 99.0817L398.213 94.5183C393.427 98.6038 386.852 100.8 378.161 100.8V106.8ZM402.109 99.0817C408.286 93.8088 411.361 86.8204 411.361 78.4H405.361C405.361 85.1795 402.97 90.4579 398.213 94.5183L402.109 99.0817ZM411.361 78.4C411.361 69.6364 408.32 62.5621 402.007 57.6351L398.315 62.3649C402.936 65.9712 405.361 71.1636 405.361 78.4H411.361ZM402.07 57.6859C396.037 52.7088 387.947 50.4 378.161 50.4V56.4C387.041 56.4 393.618 58.4912 398.252 62.3141L402.07 57.6859ZM378.161 50.4H349.561V56.4H378.161V50.4ZM346.561 53.4V103.8H352.561V53.4H346.561ZM454.555 171H451.555V174H454.555V171ZM454.555 31V28H451.555V31H454.555ZM548.555 43.8L546.562 46.0422V46.0422L548.555 43.8ZM546.955 113.4L545.099 111.043L545.091 111.049L545.084 111.054L546.955 113.4ZM479.155 126V123H476.155V126H479.155ZM479.155 171V174H482.155V171H479.155ZM479.155 103.8H476.155V106.8H479.155V103.8ZM529.755 60L527.846 62.3141L527.877 62.34L527.909 62.3649L529.755 60ZM479.155 53.4V50.4H476.155V53.4H479.155ZM457.555 171V31H451.555V171H457.555ZM454.555 34H509.755V28H454.555V34ZM509.755 34C525.489 34 537.645 38.1165 546.562 46.0422L550.548 41.5578C540.264 32.4168 526.554 28 509.755 28V34ZM546.562 46.0422C555.44 53.9337 559.955 64.5413 559.955 78.2H565.955C565.955 63.0587 560.87 50.7329 550.548 41.5578L546.562 46.0422ZM559.955 78.2C559.955 92.4623 554.957 103.28 545.099 111.043L548.811 115.757C560.286 106.72 565.955 94.071 565.955 78.2H559.955ZM545.084 111.054C535.182 118.951 522.548 123 506.955 123V129C523.628 129 537.661 124.649 548.825 115.745L545.084 111.054ZM506.955 123H479.155V129H506.955V123ZM476.155 126V171H482.155V126H476.155ZM479.155 168H454.555V174H479.155V168ZM479.155 106.8H507.755V100.8H479.155V106.8ZM507.755 106.8C517.464 106.8 525.555 104.33 531.702 99.0817L527.807 94.5183C523.021 98.6038 516.445 100.8 507.755 100.8V106.8ZM531.702 99.0817C537.879 93.8088 540.955 86.8204 540.955 78.4H534.955C534.955 85.1795 532.563 90.4579 527.807 94.5183L531.702 99.0817ZM540.955 78.4C540.955 69.6364 537.913 62.5621 531.601 57.6351L527.909 62.3649C532.529 65.9712 534.955 71.1636 534.955 78.4H540.955ZM531.664 57.6859C525.631 52.7088 517.541 50.4 507.755 50.4V56.4C516.635 56.4 523.212 58.4912 527.846 62.3141L531.664 57.6859ZM507.755 50.4H479.155V56.4H507.755V50.4ZM476.155 53.4V103.8H482.155V53.4H476.155ZM623.395 171H620.395V174H623.395V171ZM623.395 115.8H626.395V114.904L625.904 114.155L623.395 115.8ZM567.795 31V28H562.241L565.286 32.6449L567.795 31ZM596.795 31L599.331 29.3968L598.448 28H596.795V31ZM635.995 93L633.46 94.6032L635.982 98.5934L638.524 94.6148L635.995 93ZM675.595 31V28H673.952L673.067 29.3851L675.595 31ZM703.795 31L706.299 32.6531L709.371 28H703.795V31ZM648.195 115.2L645.692 113.547L645.195 114.299V115.2H648.195ZM648.195 171V174H651.195V171H648.195ZM626.395 171V115.8H620.395V171H626.395ZM625.904 114.155L570.304 29.3551L565.286 32.6449L620.886 117.445L625.904 114.155ZM567.795 34H596.795V28H567.795V34ZM594.26 32.6032L633.46 94.6032L638.531 91.3968L599.331 29.3968L594.26 32.6032ZM638.524 94.6148L678.124 32.6148L673.067 29.3851L633.467 91.3852L638.524 94.6148ZM675.595 34H703.795V28H675.595V34ZM701.292 29.3469L645.692 113.547L650.699 116.853L706.299 32.6531L701.292 29.3469ZM645.195 115.2V171H651.195V115.2H645.195ZM648.195 168H623.395V174H648.195V168ZM777.32 171H774.32V174H777.32V171ZM777.32 31V28H774.32V31H777.32ZM871.32 43.8L869.327 46.0422V46.0422L871.32 43.8ZM869.72 113.4L867.864 111.043L867.857 111.049L867.85 111.054L869.72 113.4ZM801.92 126V123H798.92V126H801.92ZM801.92 171V174H804.92V171H801.92ZM801.92 103.8H798.92V106.8H801.92V103.8ZM852.52 60L850.611 62.3141L850.643 62.34L850.674 62.3649L852.52 60ZM801.92 53.4V50.4H798.92V53.4H801.92ZM780.32 171V31H774.32V171H780.32ZM777.32 34H832.52V28H777.32V34ZM832.52 34C848.255 34 860.411 38.1165 869.327 46.0422L873.313 41.5578C863.03 32.4168 849.319 28 832.52 28V34ZM869.327 46.0422C878.205 53.9337 882.72 64.5413 882.72 78.2H888.72C888.72 63.0587 883.635 50.7329 873.313 41.5578L869.327 46.0422ZM882.72 78.2C882.72 92.4623 877.723 103.28 867.864 111.043L871.576 115.757C883.051 106.72 888.72 94.071 888.72 78.2H882.72ZM867.85 111.054C857.947 118.951 845.313 123 829.72 123V129C846.394 129 860.427 124.649 871.591 115.745L867.85 111.054ZM829.72 123H801.92V129H829.72V123ZM798.92 126V171H804.92V126H798.92ZM801.92 168H777.32V174H801.92V168ZM801.92 106.8H830.52V100.8H801.92V106.8ZM830.52 106.8C840.23 106.8 848.321 104.33 854.468 99.0817L850.573 94.5183C845.787 98.6038 839.211 100.8 830.52 100.8V106.8ZM854.468 99.0817C860.645 93.8088 863.72 86.8204 863.72 78.4H857.72C857.72 85.1795 855.329 90.4579 850.573 94.5183L854.468 99.0817ZM863.72 78.4C863.72 69.6364 860.679 62.5621 854.366 57.6351L850.674 62.3649C855.295 65.9712 857.72 71.1636 857.72 78.4H863.72ZM854.429 57.6859C848.397 52.7088 840.306 50.4 830.52 50.4V56.4C839.401 56.4 845.977 58.4912 850.611 62.3141L854.429 57.6859ZM830.52 50.4H801.92V56.4H830.52V50.4ZM798.92 53.4V103.8H804.92V53.4H798.92ZM906.914 171H903.914V174H906.914V171ZM906.914 31V28H903.914V31H906.914ZM1010.71 31H1013.71V28H1010.71V31ZM1010.71 53V56H1013.71V53H1010.71ZM931.514 53V50H928.514V53H931.514ZM931.514 89.4H928.514V92.4H931.514V89.4ZM1001.71 89.4H1004.71V86.4H1001.71V89.4ZM1001.71 111.4V114.4H1004.71V111.4H1001.71ZM931.514 111.4V108.4H928.514V111.4H931.514ZM931.514 149H928.514V152H931.514V149ZM1011.71 149H1014.71V146H1011.71V149ZM1011.71 171V174H1014.71V171H1011.71ZM909.914 171V31H903.914V171H909.914ZM906.914 34H1010.71V28H906.914V34ZM1007.71 31V53H1013.71V31H1007.71ZM1010.71 50H931.514V56H1010.71V50ZM928.514 53V89.4H934.514V53H928.514ZM931.514 92.4H1001.71V86.4H931.514V92.4ZM998.714 89.4V111.4H1004.71V89.4H998.714ZM1001.71 108.4H931.514V114.4H1001.71V108.4ZM928.514 111.4V149H934.514V111.4H928.514ZM931.514 152H1011.71V146H931.514V152ZM1008.71 149V171H1014.71V149H1008.71ZM1011.71 168H906.914V174H1011.71V168ZM1071.3 171H1068.3V174H1071.3V171ZM1071.3 53.8H1074.3V50.8H1071.3V53.8ZM1026.9 53.8H1023.9V56.8H1026.9V53.8ZM1026.9 31V28H1023.9V31H1026.9ZM1140.5 31H1143.5V28H1140.5V31ZM1140.5 53.8V56.8H1143.5V53.8H1140.5ZM1096.1 53.8V50.8H1093.1V53.8H1096.1ZM1096.1 171V174H1099.1V171H1096.1ZM1074.3 171V53.8H1068.3V171H1074.3ZM1071.3 50.8H1026.9V56.8H1071.3V50.8ZM1029.9 53.8V31H1023.9V53.8H1029.9ZM1026.9 34H1140.5V28H1026.9V34ZM1137.5 31V53.8H1143.5V31H1137.5ZM1140.5 50.8H1096.1V56.8H1140.5V50.8ZM1093.1 53.8V171H1099.1V53.8H1093.1ZM1096.1 168H1071.3V174H1096.1V168Z" fill="#FF8DA9" mask="url(#path-18-outside-1_762_59371)"/>
</svg>
