<svg width="1162" height="186" viewBox="0 0 1162 186" fill="none" xmlns="http://www.w3.org/2000/svg">
<mask id="path-1-outside-1_1907_5496" maskUnits="userSpaceOnUse" x="-0.547363" y="0" width="1163" height="186" fill="black">
<rect fill="white" x="-0.547363" width="1163" height="186"/>
<path fill-rule="evenodd" clip-rule="evenodd" d="M18.2551 175.855C17.288 177.606 16.8648 179.42 16.3258 181.307C16.2206 181.676 16.4554 182.063 16.8494 182.175C17.2436 182.286 17.649 182.076 17.7544 181.708C18.2655 179.918 18.6531 178.19 19.5714 176.527C19.7572 176.191 19.613 175.767 19.2495 175.582C18.8867 175.395 18.4407 175.519 18.2551 175.855Z"/>
<path fill-rule="evenodd" clip-rule="evenodd" d="M14.721 170.484C10.7402 172.577 6.73669 175.552 3.64476 178.796C3.37499 179.079 3.39123 179.527 3.68143 179.794C3.97163 180.061 4.42593 180.05 4.6957 179.766C7.68544 176.63 11.5574 173.753 15.4062 171.731C15.7543 171.547 15.8832 171.119 15.694 170.775C15.5048 170.432 15.0691 170.3 14.721 170.484Z"/>
<path fill-rule="evenodd" clip-rule="evenodd" d="M15.0805 167.437C12.2412 166.217 8.98727 166.256 6.00827 166.722C5.61929 166.784 5.35885 167.141 5.42667 167.519C5.49415 167.899 5.86482 168.158 6.25324 168.098C8.96656 167.673 11.9328 167.599 14.5189 168.71C14.8816 168.867 15.302 168.707 15.4567 168.357C15.6115 168.006 15.443 167.593 15.0805 167.437Z"/>
<path fill-rule="evenodd" clip-rule="evenodd" d="M1143.66 15.2817C1143.93 13.3003 1143.67 11.4555 1143.5 9.5007C1143.46 9.11896 1143.11 8.8417 1142.7 8.87964C1142.29 8.91762 1141.99 9.25902 1142.02 9.64079C1142.19 11.4944 1142.45 13.246 1142.19 15.128C1142.14 15.5087 1142.42 15.8527 1142.83 15.8941C1143.24 15.9378 1143.61 15.6624 1143.66 15.2817Z"/>
<path fill-rule="evenodd" clip-rule="evenodd" d="M1148.89 19.0213C1151.85 15.6357 1154.52 11.4195 1156.23 7.2807C1156.38 6.91922 1156.21 6.50739 1155.84 6.36261C1155.47 6.21782 1155.05 6.39198 1154.9 6.75347C1153.24 10.7552 1150.67 14.8329 1147.8 18.1048C1147.54 18.4015 1147.58 18.8472 1147.88 19.0995C1148.18 19.3518 1148.63 19.3179 1148.89 19.0213Z"/>
<path fill-rule="evenodd" clip-rule="evenodd" d="M1149.65 21.9934C1152.74 22.1105 1155.76 20.9026 1158.37 19.3966C1158.71 19.1988 1158.83 18.7716 1158.63 18.4433C1158.43 18.1128 1157.99 18.005 1157.65 18.2006C1155.27 19.5731 1152.53 20.7095 1149.72 20.6033C1149.32 20.5883 1148.99 20.8882 1148.97 21.2709C1148.95 21.6537 1149.26 21.9783 1149.65 21.9934Z"/>
<path fill-rule="evenodd" clip-rule="evenodd" d="M522.493 67.3966C516.25 78.3773 503.779 82.8416 492.196 76.6597C491.81 76.4539 491.321 76.5826 491.104 76.9428C490.886 77.3095 491.022 77.7726 491.408 77.9784C503.823 84.6106 517.213 79.8826 523.904 68.1171C524.114 67.7504 523.968 67.2872 523.578 67.0878C523.188 66.8948 522.702 67.0299 522.493 67.3966Z"/>
<path d="M502.5 71C503.881 71 505 70.1046 505 69C505 67.8954 503.881 67 502.5 67C501.119 67 500 67.8954 500 69C500 70.1046 501.119 71 502.5 71Z"/>
<path d="M511.5 69C512.881 69 514 68.1046 514 67C514 65.8954 512.881 65 511.5 65C510.119 65 509 65.8954 509 67C509 68.1046 510.119 69 511.5 69Z"/>
<path d="M925.044 23L931 20.0403C929.346 18.0672 925.739 14.3183 924.548 15.1075C923.357 15.8968 924.382 20.698 925.044 23Z"/>
<path d="M997.956 22L992 19.0403C993.655 17.0672 997.261 13.3183 998.452 14.1075C999.644 14.8968 998.618 19.698 997.956 22Z"/>
<path fill-rule="evenodd" clip-rule="evenodd" d="M405.502 146.308C405.751 146.305 405.994 146.315 406.221 146.335C406.904 146.4 406.885 147.056 406.883 147.107C406.878 147.213 406.837 147.688 406.301 147.784C406.269 147.79 406.038 147.799 405.95 147.801C405.76 147.804 405.574 147.803 405.388 147.77C405.071 147.783 404.743 147.825 404.434 147.916C403.978 148.049 403.555 148.275 403.322 148.702C402.902 149.465 402.893 150.488 402.771 151.339C402.72 151.694 402.424 151.956 402.076 151.956C401.727 151.954 401.429 151.691 401.374 151.334C401.209 150.259 400.297 148.998 399.557 148.19C399.33 147.942 398.782 147.653 398.433 147.34C398.155 147.087 397.97 146.811 397.901 146.554C397.874 146.453 397.78 145.898 398.339 145.67C398.496 145.607 399.316 145.395 399.409 145.376C399.944 145.264 400.423 145.093 400.855 144.741C401.23 144.436 401.559 144.061 401.748 143.603C401.824 143.418 401.884 143.226 401.944 143.034C401.954 142.966 401.982 142.775 402.006 142.708C402.054 142.571 402.127 142.471 402.199 142.401C402.334 142.267 402.494 142.202 402.674 142.196C402.793 142.191 402.934 142.213 403.088 142.305C403.197 142.375 403.36 142.529 403.462 142.799C403.568 143.083 403.661 143.686 403.687 143.794C403.862 144.543 404.139 145.282 404.637 145.87C404.886 146.163 405.16 146.238 405.502 146.308ZM403.488 146.715C402.905 146.982 402.41 147.392 402.09 147.977C401.957 148.217 401.854 148.481 401.773 148.755C401.402 148.171 400.977 147.627 400.581 147.193C400.452 147.053 400.242 146.897 400.011 146.731C400.643 146.568 401.212 146.316 401.738 145.887C402.049 145.633 402.333 145.344 402.573 145.019C402.789 145.629 403.085 146.21 403.488 146.715Z"/>
<path fill-rule="evenodd" clip-rule="evenodd" d="M386.623 131.021C386.359 136.653 386.468 142.421 384.572 147.75C384.436 148.132 384.611 148.564 384.959 148.715C385.308 148.866 385.703 148.676 385.839 148.294C387.788 142.816 387.711 136.892 387.981 131.104C388 130.693 387.712 130.344 387.339 130.321C386.963 130.298 386.645 130.612 386.623 131.021Z"/>
<path fill-rule="evenodd" clip-rule="evenodd" d="M394.15 130.316C395.698 132.083 396.844 133.993 397.379 136.273C397.471 136.665 397.867 136.912 398.263 136.826C398.658 136.738 398.904 136.35 398.812 135.955C398.221 133.435 396.968 131.32 395.257 129.366C394.99 129.061 394.525 129.025 394.219 129.287C393.914 129.549 393.883 130.01 394.15 130.316Z"/>
<path fill-rule="evenodd" clip-rule="evenodd" d="M410.469 126.092C413.082 126.975 415.104 128.602 416.533 131.038C416.737 131.386 417.177 131.502 417.514 131.293C417.852 131.086 417.959 130.634 417.755 130.286C416.14 127.532 413.857 125.692 410.904 124.694C410.528 124.569 410.126 124.778 410.006 125.164C409.885 125.55 410.093 125.967 410.469 126.092Z"/>
<path d="M25.0001 167V27H49.6001V85.2H116.4V27H141V167H116.4V108H49.6001V167H25.0001Z"/>
<path d="M160.953 167L222.553 26H245.353L306.953 167H280.953L266.753 133.2H200.553L186.153 167H160.953ZM209.553 111.4H257.753L233.553 55.4L209.553 111.4Z"/>
<path d="M326.961 167V27H382.161C398.428 27 411.361 31.2667 420.961 39.8C430.561 48.3333 435.361 59.8 435.361 74.2C435.361 89.2667 430.028 101 419.361 109.4C408.828 117.8 395.494 122 379.361 122H351.561V167H326.961ZM351.561 99.8H380.161C389.361 99.8 396.694 97.4667 402.161 92.8C407.628 88.1333 410.361 82 410.361 74.4C410.361 66.4 407.628 60.2667 402.161 56C396.828 51.6 389.494 49.4 380.161 49.4H351.561V99.8Z"/>
<path d="M456.555 167V27H511.755C528.021 27 540.955 31.2667 550.555 39.8C560.155 48.3333 564.955 59.8 564.955 74.2C564.955 89.2667 559.621 101 548.955 109.4C538.421 117.8 525.088 122 508.955 122H481.155V167H456.555ZM481.155 99.8H509.755C518.955 99.8 526.288 97.4667 531.755 92.8C537.221 88.1333 539.955 82 539.955 74.4C539.955 66.4 537.221 60.2667 531.755 56C526.421 51.6 519.088 49.4 509.755 49.4H481.155V99.8Z"/>
<path d="M625.395 167V111.8L569.795 27H598.795L637.995 89L677.595 27H705.795L650.195 111.2V167H625.395Z"/>
<path d="M779.32 167V27H834.52C850.787 27 863.72 31.2667 873.32 39.8C882.92 48.3333 887.72 59.8 887.72 74.2C887.72 89.2667 882.387 101 871.72 109.4C861.187 117.8 847.854 122 831.72 122H803.92V167H779.32ZM803.92 99.8H832.52C841.72 99.8 849.054 97.4667 854.52 92.8C859.987 88.1333 862.72 82 862.72 74.4C862.72 66.4 859.987 60.2667 854.52 56C849.187 51.6 841.854 49.4 832.52 49.4H803.92V99.8Z"/>
<path d="M908.914 167V27H1012.71V49H933.514V85.4H1003.71V107.4H933.514V145H1013.71V167H908.914Z"/>
<path d="M1073.3 167V49.8H1028.9V27H1142.5V49.8H1098.1V167H1073.3Z"/>
</mask>
<path fill-rule="evenodd" clip-rule="evenodd" d="M18.2551 175.855C17.288 177.606 16.8648 179.42 16.3258 181.307C16.2206 181.676 16.4554 182.063 16.8494 182.175C17.2436 182.286 17.649 182.076 17.7544 181.708C18.2655 179.918 18.6531 178.19 19.5714 176.527C19.7572 176.191 19.613 175.767 19.2495 175.582C18.8867 175.395 18.4407 175.519 18.2551 175.855Z" fill="#FF8DA9"/>
<path fill-rule="evenodd" clip-rule="evenodd" d="M14.721 170.484C10.7402 172.577 6.73669 175.552 3.64476 178.796C3.37499 179.079 3.39123 179.527 3.68143 179.794C3.97163 180.061 4.42593 180.05 4.6957 179.766C7.68544 176.63 11.5574 173.753 15.4062 171.731C15.7543 171.547 15.8832 171.119 15.694 170.775C15.5048 170.432 15.0691 170.3 14.721 170.484Z" fill="#FF8DA9"/>
<path fill-rule="evenodd" clip-rule="evenodd" d="M15.0805 167.437C12.2412 166.217 8.98727 166.256 6.00827 166.722C5.61929 166.784 5.35885 167.141 5.42667 167.519C5.49415 167.899 5.86482 168.158 6.25324 168.098C8.96656 167.673 11.9328 167.599 14.5189 168.71C14.8816 168.867 15.302 168.707 15.4567 168.357C15.6115 168.006 15.443 167.593 15.0805 167.437Z" fill="#FF8DA9"/>
<path fill-rule="evenodd" clip-rule="evenodd" d="M1143.66 15.2817C1143.93 13.3003 1143.67 11.4555 1143.5 9.5007C1143.46 9.11896 1143.11 8.8417 1142.7 8.87964C1142.29 8.91762 1141.99 9.25902 1142.02 9.64079C1142.19 11.4944 1142.45 13.246 1142.19 15.128C1142.14 15.5087 1142.42 15.8527 1142.83 15.8941C1143.24 15.9378 1143.61 15.6624 1143.66 15.2817Z" fill="#FF8DA9"/>
<path fill-rule="evenodd" clip-rule="evenodd" d="M1148.89 19.0213C1151.85 15.6357 1154.52 11.4195 1156.23 7.2807C1156.38 6.91922 1156.21 6.50739 1155.84 6.36261C1155.47 6.21782 1155.05 6.39198 1154.9 6.75347C1153.24 10.7552 1150.67 14.8329 1147.8 18.1048C1147.54 18.4015 1147.58 18.8472 1147.88 19.0995C1148.18 19.3518 1148.63 19.3179 1148.89 19.0213Z" fill="#FF8DA9"/>
<path fill-rule="evenodd" clip-rule="evenodd" d="M1149.65 21.9934C1152.74 22.1105 1155.76 20.9026 1158.37 19.3966C1158.71 19.1988 1158.83 18.7716 1158.63 18.4433C1158.43 18.1128 1157.99 18.005 1157.65 18.2006C1155.27 19.5731 1152.53 20.7095 1149.72 20.6033C1149.32 20.5883 1148.99 20.8882 1148.97 21.2709C1148.95 21.6537 1149.26 21.9783 1149.65 21.9934Z" fill="#FF8DA9"/>
<path fill-rule="evenodd" clip-rule="evenodd" d="M522.493 67.3966C516.25 78.3773 503.779 82.8416 492.196 76.6597C491.81 76.4539 491.321 76.5826 491.104 76.9428C490.886 77.3095 491.022 77.7726 491.408 77.9784C503.823 84.6106 517.213 79.8826 523.904 68.1171C524.114 67.7504 523.968 67.2872 523.578 67.0878C523.188 66.8948 522.702 67.0299 522.493 67.3966Z" fill="#FF8DA9"/>
<path d="M502.5 71C503.881 71 505 70.1046 505 69C505 67.8954 503.881 67 502.5 67C501.119 67 500 67.8954 500 69C500 70.1046 501.119 71 502.5 71Z" fill="#FF8DA9"/>
<path d="M511.5 69C512.881 69 514 68.1046 514 67C514 65.8954 512.881 65 511.5 65C510.119 65 509 65.8954 509 67C509 68.1046 510.119 69 511.5 69Z" fill="#FF8DA9"/>
<path d="M925.044 23L931 20.0403C929.346 18.0672 925.739 14.3183 924.548 15.1075C923.357 15.8968 924.382 20.698 925.044 23Z" fill="#FF8DA9"/>
<path d="M997.956 22L992 19.0403C993.655 17.0672 997.261 13.3183 998.452 14.1075C999.644 14.8968 998.618 19.698 997.956 22Z" fill="#FF8DA9"/>
<path fill-rule="evenodd" clip-rule="evenodd" d="M405.502 146.308C405.751 146.305 405.994 146.315 406.221 146.335C406.904 146.4 406.885 147.056 406.883 147.107C406.878 147.213 406.837 147.688 406.301 147.784C406.269 147.79 406.038 147.799 405.95 147.801C405.76 147.804 405.574 147.803 405.388 147.77C405.071 147.783 404.743 147.825 404.434 147.916C403.978 148.049 403.555 148.275 403.322 148.702C402.902 149.465 402.893 150.488 402.771 151.339C402.72 151.694 402.424 151.956 402.076 151.956C401.727 151.954 401.429 151.691 401.374 151.334C401.209 150.259 400.297 148.998 399.557 148.19C399.33 147.942 398.782 147.653 398.433 147.34C398.155 147.087 397.97 146.811 397.901 146.554C397.874 146.453 397.78 145.898 398.339 145.67C398.496 145.607 399.316 145.395 399.409 145.376C399.944 145.264 400.423 145.093 400.855 144.741C401.23 144.436 401.559 144.061 401.748 143.603C401.824 143.418 401.884 143.226 401.944 143.034C401.954 142.966 401.982 142.775 402.006 142.708C402.054 142.571 402.127 142.471 402.199 142.401C402.334 142.267 402.494 142.202 402.674 142.196C402.793 142.191 402.934 142.213 403.088 142.305C403.197 142.375 403.36 142.529 403.462 142.799C403.568 143.083 403.661 143.686 403.687 143.794C403.862 144.543 404.139 145.282 404.637 145.87C404.886 146.163 405.16 146.238 405.502 146.308ZM403.488 146.715C402.905 146.982 402.41 147.392 402.09 147.977C401.957 148.217 401.854 148.481 401.773 148.755C401.402 148.171 400.977 147.627 400.581 147.193C400.452 147.053 400.242 146.897 400.011 146.731C400.643 146.568 401.212 146.316 401.738 145.887C402.049 145.633 402.333 145.344 402.573 145.019C402.789 145.629 403.085 146.21 403.488 146.715Z" fill="#FF8DA9"/>
<path fill-rule="evenodd" clip-rule="evenodd" d="M386.623 131.021C386.359 136.653 386.468 142.421 384.572 147.75C384.436 148.132 384.611 148.564 384.959 148.715C385.308 148.866 385.703 148.676 385.839 148.294C387.788 142.816 387.711 136.892 387.981 131.104C388 130.693 387.712 130.344 387.339 130.321C386.963 130.298 386.645 130.612 386.623 131.021Z" fill="#FF8DA9"/>
<path fill-rule="evenodd" clip-rule="evenodd" d="M394.15 130.316C395.698 132.083 396.844 133.993 397.379 136.273C397.471 136.665 397.867 136.912 398.263 136.826C398.658 136.738 398.904 136.35 398.812 135.955C398.221 133.435 396.968 131.32 395.257 129.366C394.99 129.061 394.525 129.025 394.219 129.287C393.914 129.549 393.883 130.01 394.15 130.316Z" fill="#FF8DA9"/>
<path fill-rule="evenodd" clip-rule="evenodd" d="M410.469 126.092C413.082 126.975 415.104 128.602 416.533 131.038C416.737 131.386 417.177 131.502 417.514 131.293C417.852 131.086 417.959 130.634 417.755 130.286C416.14 127.532 413.857 125.692 410.904 124.694C410.528 124.569 410.126 124.778 410.006 125.164C409.885 125.55 410.093 125.967 410.469 126.092Z" fill="#FF8DA9"/>
<path d="M25.0001 167V27H49.6001V85.2H116.4V27H141V167H116.4V108H49.6001V167H25.0001Z" fill="#FF8DA9"/>
<path d="M160.953 167L222.553 26H245.353L306.953 167H280.953L266.753 133.2H200.553L186.153 167H160.953ZM209.553 111.4H257.753L233.553 55.4L209.553 111.4Z" fill="#FF8DA9"/>
<path d="M326.961 167V27H382.161C398.428 27 411.361 31.2667 420.961 39.8C430.561 48.3333 435.361 59.8 435.361 74.2C435.361 89.2667 430.028 101 419.361 109.4C408.828 117.8 395.494 122 379.361 122H351.561V167H326.961ZM351.561 99.8H380.161C389.361 99.8 396.694 97.4667 402.161 92.8C407.628 88.1333 410.361 82 410.361 74.4C410.361 66.4 407.628 60.2667 402.161 56C396.828 51.6 389.494 49.4 380.161 49.4H351.561V99.8Z" fill="#FF8DA9"/>
<path d="M456.555 167V27H511.755C528.021 27 540.955 31.2667 550.555 39.8C560.155 48.3333 564.955 59.8 564.955 74.2C564.955 89.2667 559.621 101 548.955 109.4C538.421 117.8 525.088 122 508.955 122H481.155V167H456.555ZM481.155 99.8H509.755C518.955 99.8 526.288 97.4667 531.755 92.8C537.221 88.1333 539.955 82 539.955 74.4C539.955 66.4 537.221 60.2667 531.755 56C526.421 51.6 519.088 49.4 509.755 49.4H481.155V99.8Z" fill="#FF8DA9"/>
<path d="M625.395 167V111.8L569.795 27H598.795L637.995 89L677.595 27H705.795L650.195 111.2V167H625.395Z" fill="#FF8DA9"/>
<path d="M779.32 167V27H834.52C850.787 27 863.72 31.2667 873.32 39.8C882.92 48.3333 887.72 59.8 887.72 74.2C887.72 89.2667 882.387 101 871.72 109.4C861.187 117.8 847.854 122 831.72 122H803.92V167H779.32ZM803.92 99.8H832.52C841.72 99.8 849.054 97.4667 854.52 92.8C859.987 88.1333 862.72 82 862.72 74.4C862.72 66.4 859.987 60.2667 854.52 56C849.187 51.6 841.854 49.4 832.52 49.4H803.92V99.8Z" fill="#FF8DA9"/>
<path d="M908.914 167V27H1012.71V49H933.514V85.4H1003.71V107.4H933.514V145H1013.71V167H908.914Z" fill="#FF8DA9"/>
<path d="M1073.3 167V49.8H1028.9V27H1142.5V49.8H1098.1V167H1073.3Z" fill="#FF8DA9"/>
<path d="M1000.56 2.34648L999.769 1.07463L1000.56 2.34648ZM921.487 2.34648L920.697 3.62166L920.697 3.62166L921.487 2.34648ZM1007.45 27.0405C1007.58 22.253 1007.47 15.2239 1006.69 9.74285C1006.3 7.04183 1005.73 4.53019 1004.85 2.85878C1004.41 2.03169 1003.78 1.18857 1002.84 0.764799C1001.79 0.287846 1000.7 0.490986 999.769 1.07463L1001.36 3.61833C1001.53 3.51443 1001.61 3.50152 1001.62 3.50023C1001.63 3.49963 1001.62 3.5006 1001.61 3.49905C1001.6 3.49754 1001.6 3.49537 1001.6 3.4978C1001.65 3.51843 1001.88 3.66843 1002.2 4.26582C1002.82 5.44337 1003.34 7.50612 1003.72 10.1659C1004.47 15.4066 1004.58 22.2451 1004.46 26.9595L1007.45 27.0405ZM999.769 1.07463C995.561 3.70562 989.838 8.27345 985.163 12.8059C982.824 15.0736 980.71 17.3686 979.169 19.4407C978.399 20.4761 977.749 21.4862 977.286 22.4332C976.834 23.3579 976.5 24.3412 976.5 25.2905H979.5C979.5 25.001 979.615 24.4984 979.981 23.7511C980.335 23.0262 980.872 22.1785 981.576 21.2311C982.985 19.3377 984.974 17.1677 987.252 14.9597C991.809 10.5407 997.368 6.11419 1001.36 3.61833L999.769 1.07463ZM917.545 26.9591C917.416 22.2451 917.535 15.4075 918.288 10.1679C918.671 7.50857 919.193 5.44732 919.824 4.27097C920.143 3.6754 920.377 3.52287 920.428 3.49997C920.432 3.49819 920.421 3.50002 920.424 3.50043C920.44 3.5023 920.528 3.51688 920.697 3.62166L922.277 1.0713C921.338 0.490035 920.254 0.290096 919.2 0.762636C918.261 1.18413 917.624 2.02472 917.179 2.85363C916.283 4.52624 915.707 7.03938 915.319 9.7409C914.53 15.223 914.416 22.253 914.546 27.0409L917.545 26.9591ZM920.697 3.62166C923.149 5.14041 929.737 9.48663 935.825 14.1234C938.872 16.4434 941.76 18.8111 943.936 20.9171C945.025 21.9712 945.907 22.9329 946.537 23.7685C947.193 24.6394 947.464 25.2319 947.525 25.5612L950.476 25.0199C950.286 23.9864 949.666 22.9362 948.933 21.9635C948.174 20.9556 947.171 19.873 946.022 18.7614C943.723 16.5358 940.728 14.086 937.643 11.7367C931.469 7.03454 924.8 2.63423 922.277 1.0713L920.697 3.62166ZM18.2551 175.855L20.8811 177.306L20.8819 177.304L18.2551 175.855ZM16.3258 181.307L13.4412 180.483L13.441 180.484L16.3258 181.307ZM16.8494 182.175L16.034 185.062L16.034 185.062L16.8494 182.175ZM17.7544 181.708L20.6387 182.533L20.6391 182.532L17.7544 181.708ZM19.5714 176.527L16.9455 175.077L16.9451 175.077L19.5714 176.527ZM19.2495 175.582L17.8765 178.25L17.8841 178.253L17.8916 178.257L19.2495 175.582ZM14.721 170.484L16.1174 173.139L16.121 173.137L14.721 170.484ZM3.64476 178.796L1.4733 176.726L1.47185 176.727L3.64476 178.796ZM3.68143 179.794L5.71306 177.587L5.71305 177.587L3.68143 179.794ZM4.6957 179.766L2.52435 177.696L2.52279 177.698L4.6957 179.766ZM15.4062 171.731L16.8017 174.386L16.8062 174.384L15.4062 171.731ZM15.694 170.775L13.0664 172.223L13.0664 172.223L15.694 170.775ZM15.0805 167.437L16.2661 164.681L16.2652 164.681L15.0805 167.437ZM6.00827 166.722L5.5454 163.758L5.53585 163.759L6.00827 166.722ZM5.42667 167.519L8.38053 166.995L8.37952 166.989L5.42667 167.519ZM6.25324 168.098L6.70959 171.063L6.71711 171.062L6.25324 168.098ZM14.5189 168.71L15.7042 165.955L15.7032 165.954L14.5189 168.71ZM15.4567 168.357L12.7125 167.144L12.7118 167.146L15.4567 168.357ZM1143.66 15.2817L1140.69 14.8731L1140.69 14.8749L1143.66 15.2817ZM1143.5 9.5007L1146.49 9.23141L1146.49 9.23095L1143.5 9.5007ZM1142.7 8.87964L1142.42 5.89256L1142.42 5.89256L1142.7 8.87964ZM1142.02 9.64079L1139.03 9.90862L1139.03 9.91017L1142.02 9.64079ZM1142.19 15.128L1145.16 15.5368L1145.16 15.5361L1142.19 15.128ZM1142.83 15.8941L1143.15 12.9113L1143.14 12.9104L1143.13 12.9096L1142.83 15.8941ZM1148.89 19.0213L1146.63 17.0464L1146.63 17.0495L1148.89 19.0213ZM1156.23 7.2807L1159 8.43067L1159.01 8.42873L1156.23 7.2807ZM1155.84 6.36261L1154.74 9.15316L1154.74 9.15317L1155.84 6.36261ZM1154.9 6.75347L1157.67 7.90358L1157.68 7.9015L1154.9 6.75347ZM1147.8 18.1048L1145.54 16.1292L1145.54 16.133L1147.8 18.1048ZM1147.88 19.0995L1149.81 16.8033L1149.81 16.8033L1147.88 19.0995ZM1149.65 21.9934L1149.54 24.9912L1149.54 24.9913L1149.65 21.9934ZM1158.37 19.3966L1159.87 21.9956L1159.88 21.9908L1158.37 19.3966ZM1158.63 18.4433L1156.06 19.9953L1156.06 20.0002L1158.63 18.4433ZM1157.65 18.2006L1156.16 15.5983L1156.15 15.6021L1157.65 18.2006ZM1149.72 20.6033L1149.6 23.6012L1149.6 23.6012L1149.72 20.6033ZM1148.97 21.2709L1151.97 21.4146L1151.97 21.4128L1148.97 21.2709ZM522.493 67.3966L519.888 65.9085L519.885 65.9139L522.493 67.3966ZM492.196 76.6597L490.783 79.3062L490.783 79.3063L492.196 76.6597ZM491.104 76.9428L488.536 75.3916L488.53 75.4016L488.524 75.4116L491.104 76.9428ZM491.408 77.9784L492.821 75.3323L492.821 75.332L491.408 77.9784ZM523.904 68.1171L521.3 66.629L521.297 66.6339L523.904 68.1171ZM523.578 67.0878L524.945 64.4171L524.927 64.4081L524.909 64.3994L523.578 67.0878ZM925.044 23L922.161 23.8289L923.156 27.2885L926.379 25.6866L925.044 23ZM931 20.0403L932.335 22.7269L935.746 21.0317L933.299 18.1128L931 20.0403ZM924.548 15.1075L922.891 12.6067L922.891 12.6067L924.548 15.1075ZM997.956 22L996.621 24.6866L999.845 26.2885L1000.84 22.8289L997.956 22ZM992 19.0403L989.701 17.1128L987.254 20.0317L990.665 21.7269L992 19.0403ZM998.452 14.1075L1000.11 11.6067L1000.11 11.6067L998.452 14.1075ZM405.502 146.308L404.9 149.247L405.219 149.313L405.545 149.308L405.502 146.308ZM406.221 146.335L406.504 143.349L406.494 143.348L406.484 143.347L406.221 146.335ZM406.883 147.107L409.88 147.246L409.88 147.236L406.883 147.107ZM406.301 147.784L405.774 144.831L405.752 144.835L405.731 144.839L406.301 147.784ZM405.95 147.801L406 150.801L406.01 150.801L405.95 147.801ZM405.388 147.77L405.914 144.816L405.59 144.758L405.262 144.772L405.388 147.77ZM404.434 147.916L405.271 150.797L405.278 150.795L405.285 150.793L404.434 147.916ZM403.322 148.702L405.951 150.147L405.954 150.14L403.322 148.702ZM402.771 151.339L399.801 150.911L399.801 150.912L402.771 151.339ZM402.076 151.956L402.056 154.956L402.066 154.956L402.076 154.956L402.076 151.956ZM401.374 151.334L404.339 150.88L404.339 150.878L401.374 151.334ZM399.557 148.19L397.344 150.215L397.344 150.216L399.557 148.19ZM398.433 147.34L396.42 149.564L396.426 149.57L398.433 147.34ZM397.901 146.554L395.003 147.331L395.004 147.336L397.901 146.554ZM398.339 145.67L397.228 142.883L397.216 142.888L397.204 142.893L398.339 145.67ZM399.409 145.376L399.997 148.318L400.013 148.315L400.028 148.312L399.409 145.376ZM400.855 144.741L402.751 147.066L402.752 147.066L400.855 144.741ZM401.748 143.603L398.975 142.458L398.975 142.458L401.748 143.603ZM401.944 143.034L404.805 143.938L404.879 143.703L404.914 143.458L401.944 143.034ZM402.006 142.708L404.831 143.718L404.834 143.711L404.836 143.703L402.006 142.708ZM402.199 142.401L404.301 144.542L404.305 144.537L402.199 142.401ZM402.674 142.196L402.773 145.195L402.795 145.194L402.816 145.193L402.674 142.196ZM403.088 142.305L404.696 139.773L404.666 139.754L404.636 139.736L403.088 142.305ZM403.462 142.799L400.654 143.855L400.654 143.855L403.462 142.799ZM403.687 143.794L406.607 143.109L406.607 143.106L403.687 143.794ZM404.637 145.87L402.346 147.807L402.35 147.812L404.637 145.87ZM403.488 146.715L404.736 149.443L408.232 147.844L405.832 144.842L403.488 146.715ZM402.09 147.977L404.717 149.426L404.722 149.417L402.09 147.977ZM401.773 148.755L399.241 150.365L402.77 155.916L404.648 149.612L401.773 148.755ZM400.581 147.193L402.798 145.172L402.793 145.166L400.581 147.193ZM400.011 146.731L399.262 143.826L393.057 145.427L398.261 149.167L400.011 146.731ZM401.738 145.887L403.634 148.212L403.64 148.207L401.738 145.887ZM402.573 145.019L405.4 144.016L403.513 138.694L400.159 143.237L402.573 145.019ZM386.623 131.021L383.627 130.863L383.627 130.872L383.626 130.88L386.623 131.021ZM384.572 147.75L387.398 148.759L387.399 148.755L384.572 147.75ZM384.959 148.715L383.765 151.467L383.771 151.47L384.959 148.715ZM385.839 148.294L388.665 149.303L388.666 149.3L385.839 148.294ZM387.981 131.104L384.984 130.964L384.984 130.964L387.981 131.104ZM387.339 130.321L387.52 127.327L387.52 127.327L387.339 130.321ZM394.15 130.316L391.892 132.291L391.893 132.292L394.15 130.316ZM397.379 136.273L394.458 136.958L394.459 136.959L397.379 136.273ZM398.263 136.826L398.901 139.757L398.909 139.756L398.918 139.754L398.263 136.826ZM398.812 135.955L401.733 135.273L401.733 135.27L398.812 135.955ZM395.257 129.366L392.999 131.341L393 131.343L395.257 129.366ZM394.219 129.287L392.267 127.009L392.267 127.009L394.219 129.287ZM410.469 126.092L411.429 123.25L411.421 123.248L410.469 126.092ZM416.533 131.038L413.945 132.556L413.946 132.558L416.533 131.038ZM417.514 131.293L415.947 128.735L415.94 128.739L415.933 128.743L417.514 131.293ZM417.755 130.286L415.167 131.803L415.169 131.807L417.755 130.286ZM410.904 124.694L411.863 121.852L411.856 121.85L410.904 124.694ZM410.006 125.164L407.141 124.273L407.141 124.273L410.006 125.164ZM25.0001 167H22.0001V170H25.0001V167ZM25.0001 27V24H22.0001V27H25.0001ZM49.6001 27H52.6001V24H49.6001V27ZM49.6001 85.2H46.6001V88.2H49.6001V85.2ZM116.4 85.2V88.2H119.4V85.2H116.4ZM116.4 27V24H113.4V27H116.4ZM141 27H144V24H141V27ZM141 167V170H144V167H141ZM116.4 167H113.4V170H116.4V167ZM116.4 108H119.4V105H116.4V108ZM49.6001 108V105H46.6001V108H49.6001ZM49.6001 167V170H52.6001V167H49.6001ZM160.953 167L158.204 165.799L156.369 170H160.953V167ZM222.553 26V23H220.59L219.804 24.799L222.553 26ZM245.353 26L248.102 24.799L247.316 23H245.353V26ZM306.953 167V170H311.538L309.702 165.799L306.953 167ZM280.953 167L278.187 168.162L278.96 170H280.953V167ZM266.753 133.2L269.519 132.038L268.747 130.2H266.753V133.2ZM200.553 133.2V130.2H198.57L197.793 132.024L200.553 133.2ZM186.153 167V170H188.136L188.913 168.176L186.153 167ZM209.553 111.4L206.796 110.218L205.004 114.4H209.553V111.4ZM257.753 111.4V114.4H262.318L260.507 110.21L257.753 111.4ZM233.553 55.4L236.307 54.2099L233.542 47.8109L230.796 54.2182L233.553 55.4ZM326.961 167H323.961V170H326.961V167ZM326.961 27V24H323.961V27H326.961ZM420.961 39.8L418.968 42.0422L418.968 42.0422L420.961 39.8ZM419.361 109.4L417.505 107.043L417.498 107.049L417.491 107.054L419.361 109.4ZM351.561 122V119H348.561V122H351.561ZM351.561 167V170H354.561V167H351.561ZM351.561 99.8H348.561V102.8H351.561V99.8ZM402.161 56L400.252 58.3141L400.283 58.34L400.315 58.3649L402.161 56ZM351.561 49.4V46.4H348.561V49.4H351.561ZM456.555 167H453.555V170H456.555V167ZM456.555 27V24H453.555V27H456.555ZM550.555 39.8L548.562 42.0422L548.562 42.0422L550.555 39.8ZM548.955 109.4L547.099 107.043L547.091 107.049L547.084 107.054L548.955 109.4ZM481.155 122V119H478.155V122H481.155ZM481.155 167V170H484.155V167H481.155ZM481.155 99.8H478.155V102.8H481.155V99.8ZM531.755 56L529.846 58.3141L529.877 58.34L529.909 58.3649L531.755 56ZM481.155 49.4V46.4H478.155V49.4H481.155ZM625.395 167H622.395V170H625.395V167ZM625.395 111.8H628.395V110.904L627.904 110.155L625.395 111.8ZM569.795 27V24H564.241L567.287 28.6449L569.795 27ZM598.795 27L601.331 25.3968L600.448 24H598.795V27ZM637.995 89L635.46 90.6032L637.983 94.5934L640.524 90.6148L637.995 89ZM677.595 27V24H675.952L675.067 25.3851L677.595 27ZM705.795 27L708.299 28.6531L711.371 24H705.795V27ZM650.195 111.2L647.692 109.547L647.195 110.299V111.2H650.195ZM650.195 167V170H653.195V167H650.195ZM779.32 167H776.32V170H779.32V167ZM779.32 27V24H776.32V27H779.32ZM873.32 39.8L871.327 42.0422L871.327 42.0422L873.32 39.8ZM871.72 109.4L869.864 107.043L869.857 107.049L869.85 107.054L871.72 109.4ZM803.92 122V119H800.92V122H803.92ZM803.92 167V170H806.92V167H803.92ZM803.92 99.8H800.92V102.8H803.92V99.8ZM854.52 56L852.611 58.3141L852.643 58.34L852.675 58.3649L854.52 56ZM803.92 49.4V46.4H800.92V49.4H803.92ZM908.914 167H905.914V170H908.914V167ZM908.914 27V24H905.914V27H908.914ZM1012.71 27H1015.71V24H1012.71V27ZM1012.71 49V52H1015.71V49H1012.71ZM933.514 49V46H930.514V49H933.514ZM933.514 85.4H930.514V88.4H933.514V85.4ZM1003.71 85.4H1006.71V82.4H1003.71V85.4ZM1003.71 107.4V110.4H1006.71V107.4H1003.71ZM933.514 107.4V104.4H930.514V107.4H933.514ZM933.514 145H930.514V148H933.514V145ZM1013.71 145H1016.71V142H1013.71V145ZM1013.71 167V170H1016.71V167H1013.71ZM1073.3 167H1070.3V170H1073.3V167ZM1073.3 49.8H1076.3V46.8H1073.3V49.8ZM1028.9 49.8H1025.9V52.8H1028.9V49.8ZM1028.9 27V24H1025.9V27H1028.9ZM1142.5 27H1145.5V24H1142.5V27ZM1142.5 49.8V52.8H1145.5V49.8H1142.5ZM1098.1 49.8V46.8H1095.1V49.8H1098.1ZM1098.1 167V170H1101.1V167H1098.1ZM15.6292 174.404C14.4525 176.534 13.9261 178.785 13.4412 180.483L19.2105 182.131C19.8036 180.054 20.1234 178.677 20.8811 177.306L15.6292 174.404ZM13.441 180.484C12.8272 182.634 14.2348 184.554 16.034 185.062L17.6648 179.288C18.676 179.573 19.6141 180.717 19.2106 182.13L13.441 180.484ZM16.034 185.062C17.8426 185.572 20.0297 184.661 20.6387 182.533L14.8702 180.883C15.2682 179.491 16.6447 178.999 17.6647 179.288L16.034 185.062ZM20.6391 182.532C21.212 180.526 21.4909 179.257 22.1976 177.978L16.9451 175.077C15.8152 177.124 15.3189 179.311 14.8697 180.884L20.6391 182.532ZM22.1972 177.978C23.2861 176.007 22.3296 173.781 20.6073 172.907L17.8916 178.257C16.8964 177.752 16.2282 176.375 16.9455 175.077L22.1972 177.978ZM20.6224 172.915C18.9539 172.056 16.6707 172.516 15.6284 174.406L20.8819 177.304C20.2108 178.521 18.8195 178.735 17.8765 178.25L20.6224 172.915ZM13.3246 167.829C9.07074 170.066 4.80174 173.234 1.4733 176.726L5.81622 180.866C8.67164 177.87 12.4097 175.089 16.1173 173.139L13.3246 167.829ZM1.47185 176.727C0.0321431 178.24 0.140936 180.613 1.64981 182.001L5.71305 177.587C6.64153 178.441 6.71783 179.919 5.81767 180.864L1.47185 176.727ZM1.64981 182.001C3.1184 183.353 5.44559 183.33 6.86861 181.835L2.52279 177.698C3.40627 176.77 4.82487 176.769 5.71306 177.587L1.64981 182.001ZM6.86705 181.836C9.62039 178.948 13.2267 176.265 16.8017 174.386L14.0106 169.075C9.88806 171.241 5.75049 174.312 2.52435 177.696L6.86705 181.836ZM16.8062 174.384C18.6292 173.422 19.3256 171.15 18.3216 169.328L13.0664 172.223C12.4408 171.088 12.8793 169.672 14.0062 169.077L16.8062 174.384ZM18.3216 169.328C17.3456 167.556 15.1205 166.881 13.321 167.831L16.121 173.137C15.0176 173.719 13.664 173.308 13.0664 172.223L18.3216 169.328ZM16.2652 164.681C12.67 163.136 8.75573 163.256 5.5454 163.758L6.47113 169.686C9.21881 169.257 11.8123 169.298 13.8957 170.193L16.2652 164.681ZM5.53585 163.759C3.55907 164.074 2.09687 165.948 2.47381 168.049L8.37952 166.989C8.62082 168.334 7.6795 169.493 6.48068 169.684L5.53585 163.759ZM2.47281 168.043C2.83567 170.088 4.77061 171.362 6.70959 171.063L5.79688 165.133C6.95904 164.954 8.15263 165.711 8.38053 166.995L2.47281 168.043ZM6.71711 171.062C9.23311 170.668 11.5233 170.689 13.3345 171.467L15.7032 165.954C12.3423 164.51 8.70001 164.679 5.78937 165.134L6.71711 171.062ZM13.3335 171.466C15.1386 172.243 17.3524 171.493 18.2015 169.567L12.7118 167.146C13.2517 165.922 14.6247 165.49 15.7042 165.955L13.3335 171.466ZM18.2008 169.569C19.0614 167.621 18.0883 165.465 16.2661 164.681L13.8949 170.193C12.7977 169.721 12.1617 168.391 12.7125 167.144L18.2008 169.569ZM1146.63 15.6904C1146.96 13.2797 1146.64 10.9902 1146.49 9.23141L1140.51 9.77C1140.7 11.9208 1140.9 13.3209 1140.69 14.8731L1146.63 15.6904ZM1146.49 9.23095C1146.29 7.00353 1144.28 5.71926 1142.42 5.89256L1142.98 11.8667C1141.93 11.9641 1140.64 11.2344 1140.51 9.77045L1146.49 9.23095ZM1142.42 5.89256C1140.55 6.06674 1138.84 7.7035 1139.03 9.90862L1145.01 9.37297C1145.14 10.8145 1144.03 11.7685 1142.98 11.8667L1142.42 5.89256ZM1139.03 9.91017C1139.22 11.9881 1139.42 13.2717 1139.22 14.72L1145.16 15.5361C1145.48 13.2202 1145.16 11.0007 1145.01 9.37142L1139.03 9.91017ZM1139.22 14.7193C1138.91 16.9503 1140.6 18.6828 1142.53 18.8786L1143.13 12.9096C1144.24 13.0227 1145.36 14.0671 1145.16 15.5368L1139.22 14.7193ZM1142.51 18.8769C1144.38 19.0778 1146.34 17.8263 1146.63 15.6886L1140.69 14.8749C1140.88 13.4985 1142.1 12.7978 1143.15 12.9113L1142.51 18.8769ZM1151.15 20.9962C1154.31 17.3783 1157.16 12.8861 1159 8.43067L1153.46 6.13074C1151.88 9.95298 1149.39 13.893 1146.63 17.0464L1151.15 20.9962ZM1159.01 8.42873C1159.8 6.50004 1158.85 4.32501 1156.94 3.57205L1154.74 9.15317C1153.56 8.68976 1152.96 7.3384 1153.46 6.13268L1159.01 8.42873ZM1156.94 3.57205C1155.09 2.83941 1152.92 3.69853 1152.13 5.60544L1157.68 7.9015C1157.19 9.08544 1155.86 9.59624 1154.74 9.15316L1156.94 3.57205ZM1152.13 5.60336C1150.6 9.2887 1148.2 13.09 1145.54 16.1292L1150.06 20.0805C1153.13 16.5757 1155.88 12.2217 1157.67 7.90358L1152.13 5.60336ZM1145.54 16.133C1144.19 17.6861 1144.35 20.0565 1145.95 21.3957L1149.81 16.8033C1150.8 17.6378 1150.9 19.1168 1150.06 20.0767L1145.54 16.133ZM1145.95 21.3957C1147.49 22.6973 1149.81 22.5265 1151.15 20.9932L1146.63 17.0495C1147.45 16.1093 1148.86 16.0064 1149.81 16.8033L1145.95 21.3957ZM1149.54 24.9913C1153.45 25.1395 1157.06 23.6185 1159.87 21.9956L1156.87 16.7976C1154.47 18.1867 1152.03 19.0815 1149.76 18.9956L1149.54 24.9913ZM1159.88 21.9908C1161.61 20.9854 1162.3 18.7113 1161.19 16.8865L1156.06 20.0002C1155.36 18.832 1155.82 17.4121 1156.87 16.8025L1159.88 21.9908ZM1161.2 16.8914C1160.12 15.1141 1157.86 14.6221 1156.16 15.5983L1159.14 20.8029C1158.12 21.388 1156.74 21.1115 1156.06 19.9953L1161.2 16.8914ZM1156.15 15.6021C1153.94 16.8748 1151.8 17.6799 1149.83 17.6055L1149.6 23.6012C1153.26 23.7392 1156.6 22.2714 1159.15 20.7991L1156.15 15.6021ZM1149.83 17.6055C1147.87 17.5306 1146.07 19.0271 1145.97 21.129L1151.97 21.4128C1151.9 22.7492 1150.78 23.6459 1149.6 23.6012L1149.83 17.6055ZM1145.97 21.1272C1145.87 23.2545 1147.55 24.9155 1149.54 24.9912L1149.77 18.9956C1150.96 19.0412 1152.03 20.0529 1151.97 21.4146L1145.97 21.1272ZM519.885 65.9139C514.365 75.6232 503.617 79.3549 493.609 74.0131L490.783 79.3063C503.94 86.3282 518.135 81.1314 525.101 68.8793L519.885 65.9139ZM493.609 74.0132C491.883 73.0921 489.617 73.6017 488.536 75.3916L493.672 78.494C493.026 79.5634 491.737 79.8156 490.783 79.3062L493.609 74.0132ZM488.524 75.4116C487.395 77.3141 488.168 79.6499 489.995 80.6249L492.821 75.332C493.876 75.8953 494.378 77.3048 493.684 78.4739L488.524 75.4116ZM489.994 80.6246C503.971 88.0911 519.09 82.6496 526.512 69.6002L521.297 66.6339C515.335 77.1156 503.675 81.1301 492.821 75.3323L489.994 80.6246ZM526.509 69.6051C527.617 67.6666 526.768 65.3501 524.945 64.4171L522.211 69.7584C521.168 69.2243 520.611 67.8342 521.3 66.629L526.509 69.6051ZM524.909 64.3994C523.2 63.5526 520.941 64.0656 519.888 65.9085L525.098 68.8847C524.464 69.9943 523.177 70.237 522.247 69.7761L524.909 64.3994ZM502.5 74C504.878 74 508 72.3516 508 69H502C502 68.4777 502.273 68.1685 502.394 68.0716C502.509 67.9791 502.557 68 502.5 68V74ZM508 69C508 65.6484 504.878 64 502.5 64V70C502.557 70 502.509 70.0209 502.394 69.9284C502.273 69.8315 502 69.5223 502 69H508ZM502.5 64C500.122 64 497 65.6485 497 69H503C503 69.5223 502.728 69.8314 502.606 69.9284C502.491 70.0209 502.443 70 502.5 70V64ZM497 69C497 72.3515 500.122 74 502.5 74V68C502.443 68 502.491 67.9791 502.606 68.0716C502.728 68.1686 503 68.4777 503 69H497ZM511.5 72C513.878 72 517 70.3516 517 67H511C511 66.4777 511.273 66.1685 511.394 66.0716C511.509 65.9791 511.557 66 511.5 66V72ZM517 67C517 63.6484 513.878 62 511.5 62V68C511.557 68 511.509 68.0209 511.394 67.9284C511.273 67.8315 511 67.5223 511 67H517ZM511.5 62C509.122 62 506 63.6485 506 67H512C512 67.5223 511.728 67.8314 511.606 67.9284C511.491 68.0209 511.443 68 511.5 68V62ZM506 67C506 70.3515 509.122 72 511.5 72V66C511.443 66 511.491 65.9791 511.606 66.0716C511.728 66.1686 512 66.4777 512 67H506ZM926.379 25.6866L932.335 22.7269L929.665 17.3537L923.709 20.3134L926.379 25.6866ZM933.299 18.1128C932.412 17.0548 930.982 15.494 929.56 14.267C928.868 13.6689 928.04 13.0297 927.19 12.5958C926.767 12.3799 926.191 12.1374 925.523 12.0421C924.835 11.9437 923.838 11.9792 922.891 12.6067L926.205 17.6084C925.556 18.0385 924.932 18.0185 924.675 17.9818C924.439 17.9481 924.353 17.8844 924.462 17.9398C924.675 18.0486 925.076 18.3219 925.64 18.8091C926.733 19.7525 927.934 21.0528 928.701 21.9678L933.299 18.1128ZM922.891 12.6067C922.066 13.1531 921.638 13.9077 921.415 14.4631C921.19 15.0243 921.092 15.5852 921.045 16.045C920.952 16.9629 921.017 17.9609 921.123 18.8436C921.338 20.641 921.803 22.5824 922.161 23.8289L927.927 22.1711C927.624 21.1156 927.245 19.5054 927.08 18.1294C926.995 17.4254 926.986 16.9312 927.014 16.6549C927.028 16.5177 927.04 16.556 926.985 16.6945C926.932 16.8274 926.732 17.2593 926.205 17.6084L922.891 12.6067ZM999.291 19.3134L993.335 16.3538L990.665 21.7269L996.621 24.6866L999.291 19.3134ZM994.299 20.9678C995.066 20.0528 996.267 18.7525 997.36 17.8091C997.925 17.3219 998.325 17.0486 998.538 16.9398C998.647 16.8844 998.561 16.9481 998.325 16.9818C998.068 17.0185 997.444 17.0385 996.795 16.6084L1000.11 11.6067C999.162 10.9792 998.165 10.9437 997.477 11.0421C996.809 11.1374 996.233 11.3799 995.81 11.5958C994.96 12.0297 994.133 12.6689 993.44 13.267C992.018 14.494 990.588 16.0548 989.701 17.1128L994.299 20.9678ZM996.795 16.6084C996.268 16.2593 996.069 15.8273 996.015 15.6945C995.96 15.5559 995.972 15.5176 995.986 15.6549C996.014 15.9311 996.005 16.4253 995.92 17.1293C995.755 18.5053 995.376 20.1156 995.073 21.1711L1000.84 22.8289C1001.2 21.5825 1001.66 19.6411 1001.88 17.8437C1001.98 16.9609 1002.05 15.963 1001.95 15.045C1001.91 14.5852 1001.81 14.0244 1001.58 13.4632C1001.36 12.9077 1000.93 12.1531 1000.11 11.6067L996.795 16.6084ZM405.545 149.308C405.681 149.306 405.821 149.312 405.958 149.324L406.484 143.347C406.166 143.319 405.821 143.303 405.459 143.309L405.545 149.308ZM405.937 149.322C405.612 149.291 405.196 149.167 404.802 148.868C404.42 148.579 404.197 148.233 404.074 147.96C403.864 147.495 403.88 147.107 403.886 146.978L409.88 147.236C409.888 147.056 409.914 146.314 409.543 145.492C409.073 144.45 408.04 143.495 406.504 143.349L405.937 149.322ZM403.886 146.967C403.891 146.862 403.91 146.471 404.152 146.023C404.287 145.774 404.498 145.493 404.814 145.255C405.136 145.013 405.477 144.884 405.774 144.831L406.828 150.737C408.077 150.514 408.959 149.749 409.43 148.876C409.828 148.14 409.87 147.458 409.88 147.246L403.886 146.967ZM405.731 144.839C405.791 144.827 405.84 144.82 405.869 144.815C405.9 144.811 405.926 144.808 405.943 144.806C405.978 144.802 406.004 144.799 406.016 144.798C406.03 144.797 406.041 144.796 406.046 144.796C406.051 144.795 406.055 144.795 406.055 144.795C406.056 144.795 406.052 144.795 406.044 144.796C406.035 144.796 406.025 144.797 406.012 144.797C405.987 144.798 405.959 144.799 405.934 144.8C405.921 144.801 405.911 144.801 405.902 144.801C405.893 144.802 405.889 144.802 405.889 144.802L406.01 150.801C406.087 150.799 406.193 150.795 406.281 150.791C406.326 150.789 406.381 150.787 406.435 150.783C406.461 150.781 406.5 150.779 406.545 150.775C406.545 150.775 406.696 150.763 406.871 150.729L405.731 144.839ZM405.899 144.802C405.882 144.802 405.867 144.802 405.854 144.802C405.841 144.802 405.83 144.802 405.822 144.802C405.805 144.802 405.799 144.802 405.8 144.802C405.802 144.802 405.813 144.803 405.833 144.804C405.852 144.806 405.88 144.81 405.914 144.816L404.862 150.723C405.353 150.811 405.786 150.804 406 150.801L405.899 144.802ZM405.262 144.772C404.778 144.793 404.194 144.859 403.584 145.04L405.285 150.793C405.285 150.793 405.289 150.792 405.3 150.79C405.311 150.787 405.326 150.785 405.346 150.782C405.388 150.775 405.443 150.77 405.514 150.767L405.262 144.772ZM403.598 145.036C402.813 145.264 401.478 145.818 400.689 147.264L405.954 150.14C405.8 150.422 405.595 150.605 405.444 150.705C405.31 150.793 405.229 150.81 405.271 150.797L403.598 145.036ZM400.692 147.257C400.23 148.098 400.058 148.955 399.969 149.534C399.923 149.836 399.891 150.127 399.867 150.352C399.84 150.599 399.823 150.762 399.801 150.911L405.74 151.767C405.78 151.49 405.81 151.206 405.832 150.998C405.857 150.768 405.877 150.597 405.9 150.441C405.952 150.105 405.994 150.069 405.951 150.147L400.692 147.257ZM399.801 150.912C399.953 149.854 400.869 148.957 402.075 148.956L402.076 154.956C403.98 154.956 405.486 153.534 405.74 151.766L399.801 150.912ZM402.095 148.956C403.283 148.964 404.18 149.842 404.339 150.88L398.409 151.789C398.677 153.54 400.17 154.944 402.056 154.956L402.095 148.956ZM404.339 150.878C404.168 149.766 403.665 148.783 403.231 148.083C402.772 147.341 402.238 146.676 401.77 146.165L397.344 150.216C397.616 150.513 397.907 150.882 398.13 151.242C398.379 151.643 398.415 151.827 398.409 151.791L404.339 150.878ZM401.771 146.166C401.529 145.901 401.281 145.707 401.14 145.6C400.986 145.485 400.829 145.378 400.729 145.31C400.61 145.229 400.542 145.183 400.48 145.138C400.418 145.093 400.415 145.087 400.44 145.11L396.426 149.57C396.626 149.75 396.822 149.897 396.968 150.003C397.113 150.108 397.262 150.208 397.352 150.269C397.462 150.344 397.506 150.375 397.53 150.393C397.567 150.421 397.472 150.355 397.344 150.215L401.771 146.166ZM400.447 145.117C400.464 145.131 400.513 145.179 400.575 145.27C400.634 145.358 400.73 145.524 400.797 145.772L395.004 147.336C395.269 148.314 395.862 149.059 396.42 149.564L400.447 145.117ZM400.798 145.776C400.866 146.029 400.928 146.399 400.817 146.859C400.754 147.125 400.621 147.459 400.362 147.779C400.095 148.108 399.773 148.325 399.474 148.447L397.204 142.893C395.917 143.419 395.22 144.468 394.983 145.461C394.786 146.28 394.908 146.978 395.003 147.331L400.798 145.776ZM399.45 148.457C399.395 148.479 399.355 148.492 399.345 148.496C399.33 148.501 399.323 148.503 399.327 148.502C399.334 148.5 399.354 148.493 399.392 148.482C399.466 148.461 399.566 148.433 399.674 148.405C399.78 148.376 399.884 148.349 399.964 148.329C400.004 148.318 400.034 148.311 400.053 148.306C400.063 148.304 400.065 148.303 400.062 148.304C400.061 148.304 400.055 148.306 400.047 148.308C400.04 148.309 400.022 148.313 399.997 148.318L398.821 142.434C398.658 142.467 398.322 142.555 398.122 142.609C397.975 142.648 397.514 142.769 397.228 142.883L399.45 148.457ZM400.028 148.312C400.811 148.147 401.806 147.836 402.751 147.066L398.96 142.416C398.972 142.406 398.985 142.397 398.998 142.389C399.011 142.381 399.017 142.379 399.013 142.381C399 142.386 398.941 142.409 398.79 142.441L400.028 148.312ZM402.752 147.066C403.371 146.56 404.084 145.808 404.521 144.748L398.975 142.458C399.006 142.384 399.036 142.346 399.038 142.344C399.039 142.342 399.034 142.349 399.02 142.362C399.007 142.375 398.987 142.393 398.959 142.416L402.752 147.066ZM404.521 144.748C404.657 144.418 404.758 144.086 404.805 143.938L399.084 142.129C399.009 142.366 398.992 142.419 398.975 142.458L404.521 144.748ZM404.914 143.458C404.918 143.434 404.922 143.405 404.925 143.386C404.927 143.376 404.925 143.388 404.919 143.415C404.916 143.429 404.91 143.459 404.899 143.499C404.893 143.52 404.886 143.549 404.876 143.583C404.866 143.615 404.851 143.662 404.831 143.718L399.181 141.698C399.068 142.016 399.017 142.341 399.015 142.355C398.995 142.465 398.981 142.566 398.974 142.609L404.914 143.458ZM404.836 143.703C404.717 144.043 404.521 144.326 404.301 144.542L400.097 140.261C399.734 140.617 399.392 141.099 399.176 141.713L404.836 143.703ZM404.305 144.537C404.121 144.719 403.883 144.889 403.592 145.012C403.303 145.135 403.02 145.187 402.773 145.195L402.576 139.198C401.66 139.228 400.778 139.589 400.092 140.265L404.305 144.537ZM402.816 145.193C402.632 145.202 402.414 145.189 402.178 145.133C401.939 145.077 401.724 144.986 401.539 144.875L404.636 139.736C403.92 139.304 403.179 139.169 402.533 139.2L402.816 145.193ZM401.48 144.838C401.077 144.582 400.796 144.234 400.654 143.855L406.27 141.744C405.924 140.823 405.317 140.167 404.696 139.773L401.48 144.838ZM400.654 143.855C400.633 143.799 400.622 143.763 400.621 143.759C400.619 143.751 400.62 143.756 400.625 143.774C400.634 143.813 400.647 143.87 400.662 143.947C400.677 144.022 400.691 144.096 400.705 144.173C400.711 144.207 400.719 144.251 400.726 144.289C400.731 144.312 400.746 144.395 400.767 144.482L406.607 143.106C406.621 143.166 406.628 143.206 406.622 143.174C406.619 143.157 406.614 143.134 406.607 143.092C406.593 143.017 406.572 142.902 406.547 142.778C406.523 142.655 406.491 142.502 406.452 142.344C406.417 142.203 406.358 141.979 406.27 141.744L400.654 143.855ZM400.766 144.479C400.992 145.444 401.414 146.704 402.346 147.807L406.928 143.933C406.865 143.86 406.732 143.642 406.607 143.109L400.766 144.479ZM402.35 147.812C403.288 148.917 404.435 149.152 404.9 149.247L406.104 143.369C405.947 143.337 406.079 143.353 406.266 143.437C406.376 143.487 406.499 143.556 406.624 143.649C406.749 143.742 406.848 143.839 406.924 143.928L402.35 147.812ZM402.24 143.987C401.173 144.475 400.14 145.292 399.459 146.536L404.722 149.417C404.716 149.428 404.708 149.44 404.698 149.452C404.689 149.464 404.681 149.471 404.676 149.475C404.668 149.483 404.682 149.468 404.736 149.443L402.24 143.987ZM399.464 146.527C399.202 147.001 399.024 147.475 398.898 147.899L404.648 149.612C404.685 149.487 404.713 149.433 404.717 149.426L399.464 146.527ZM404.305 147.146C403.837 146.41 403.305 145.729 402.798 145.172L398.364 149.214C398.648 149.526 398.967 149.933 399.241 150.365L404.305 147.146ZM402.793 145.166C402.414 144.752 401.925 144.412 401.762 144.295L398.261 149.167C398.314 149.206 398.357 149.237 398.395 149.265C398.432 149.293 398.457 149.311 398.473 149.324C398.489 149.337 398.487 149.336 398.474 149.324C398.461 149.313 398.422 149.278 398.369 149.22L402.793 145.166ZM400.761 149.636C401.717 149.389 402.704 148.97 403.634 148.212L399.843 143.562C399.721 143.661 399.568 143.747 399.262 143.826L400.761 149.636ZM403.64 148.207C404.113 147.819 404.579 147.353 404.987 146.8L400.159 143.237C400.088 143.334 399.984 143.446 399.837 143.566L403.64 148.207ZM399.746 146.022C400.047 146.87 400.487 147.766 401.145 148.588L405.832 144.842C405.682 144.655 405.532 144.388 405.4 144.016L399.746 146.022ZM383.626 130.88C383.348 136.812 383.449 141.956 381.746 146.745L387.399 148.755C389.486 142.887 389.37 136.493 389.62 131.161L383.626 130.88ZM381.747 146.741C381.13 148.468 381.833 150.63 383.765 151.467L386.152 145.962C387.389 146.499 387.741 147.796 387.398 148.759L381.747 146.741ZM383.771 151.47C385.903 152.388 388.018 151.114 388.665 149.303L383.014 147.285C383.388 146.238 384.714 145.343 386.146 145.96L383.771 151.47ZM388.666 149.3C390.806 143.285 390.72 136.753 390.978 131.244L384.984 130.964C384.701 137.031 384.771 142.347 383.013 147.288L388.666 149.3ZM390.978 131.245C391.062 129.445 389.771 127.463 387.52 127.327L387.157 133.316C385.653 133.224 384.938 131.941 384.984 130.964L390.978 131.245ZM387.52 127.327C385.224 127.188 383.722 129.06 383.627 130.863L389.619 131.178C389.567 132.164 388.702 133.409 387.157 133.316L387.52 127.327ZM391.893 132.292C393.212 133.798 394.065 135.279 394.458 136.958L400.3 135.588C399.624 132.707 398.184 130.368 396.408 128.339L391.893 132.292ZM394.459 136.959C394.93 138.966 396.926 140.187 398.901 139.757L397.625 133.895C398.809 133.637 400.012 134.364 400.3 135.586L394.459 136.959ZM398.918 139.754C400.925 139.304 402.208 137.307 401.733 135.273L395.891 136.637C395.6 135.392 396.391 134.171 397.608 133.898L398.918 139.754ZM401.733 135.27C401.003 132.159 399.462 129.615 397.515 127.39L393 131.343C394.473 133.025 395.439 134.711 395.891 136.64L401.733 135.27ZM397.516 127.392C396.182 125.867 393.841 125.66 392.267 127.009L396.172 131.565C395.208 132.39 393.798 132.255 392.999 131.341L397.516 127.392ZM392.267 127.009C390.673 128.375 390.545 130.75 391.892 132.291L396.409 128.341C397.221 129.27 397.154 130.723 396.172 131.565L392.267 127.009ZM409.509 128.935C411.44 129.587 412.882 130.745 413.945 132.556L419.12 129.52C417.325 126.46 414.725 124.363 411.429 123.25L409.509 128.935ZM413.946 132.558C414.968 134.296 417.265 134.977 419.096 133.842L415.933 128.743C417.089 128.026 418.507 128.477 419.119 129.518L413.946 132.558ZM419.082 133.851C420.865 132.758 421.344 130.47 420.34 128.764L415.169 131.807C414.575 130.797 414.839 129.414 415.947 128.735L419.082 133.851ZM420.343 128.768C418.362 125.391 415.501 123.08 411.863 121.852L409.944 127.537C412.213 128.303 413.918 129.673 415.167 131.803L420.343 128.768ZM411.856 121.85C409.843 121.175 407.747 122.324 407.141 124.273L412.87 126.055C412.504 127.232 411.214 127.962 409.951 127.539L411.856 121.85ZM407.141 124.273C406.554 126.161 407.538 128.275 409.516 128.937L411.421 123.248C412.648 123.658 413.217 124.939 412.87 126.055L407.141 124.273ZM28.0001 167V27H22.0001V167H28.0001ZM25.0001 30H49.6001V24H25.0001V30ZM46.6001 27V85.2H52.6001V27H46.6001ZM49.6001 88.2H116.4V82.2H49.6001V88.2ZM119.4 85.2V27H113.4V85.2H119.4ZM116.4 30H141V24H116.4V30ZM138 27V167H144V27H138ZM141 164H116.4V170H141V164ZM119.4 167V108H113.4V167H119.4ZM116.4 105H49.6001V111H116.4V105ZM46.6001 108V167H52.6001V108H46.6001ZM49.6001 164H25.0001V170H49.6001V164ZM163.702 168.201L225.302 27.201L219.804 24.799L158.204 165.799L163.702 168.201ZM222.553 29H245.353V23H222.553V29ZM242.604 27.201L304.204 168.201L309.702 165.799L248.102 24.799L242.604 27.201ZM306.953 164H280.953V170H306.953V164ZM283.719 165.838L269.519 132.038L263.987 134.362L278.187 168.162L283.719 165.838ZM266.753 130.2H200.553V136.2H266.753V130.2ZM197.793 132.024L183.393 165.824L188.913 168.176L203.313 134.376L197.793 132.024ZM186.153 164H160.953V170H186.153V164ZM209.553 114.4H257.753V108.4H209.553V114.4ZM260.507 110.21L236.307 54.2099L230.799 56.5901L254.999 112.59L260.507 110.21ZM230.796 54.2182L206.796 110.218L212.311 112.582L236.311 56.5818L230.796 54.2182ZM329.961 167V27H323.961V167H329.961ZM326.961 30H382.161V24H326.961V30ZM382.161 30C397.895 30 410.052 34.1165 418.968 42.0422L422.954 37.5578C412.671 28.4168 398.96 24 382.161 24V30ZM418.968 42.0422C427.846 49.9337 432.361 60.5413 432.361 74.2H438.361C438.361 59.0587 433.276 46.7329 422.954 37.5578L418.968 42.0422ZM432.361 74.2C432.361 88.4623 427.363 99.2795 417.505 107.043L421.217 111.757C432.692 102.72 438.361 90.071 438.361 74.2H432.361ZM417.491 107.054C407.588 114.951 394.954 119 379.361 119V125C396.035 125 410.067 120.649 421.232 111.745L417.491 107.054ZM379.361 119H351.561V125H379.361V119ZM348.561 122V167H354.561V122H348.561ZM351.561 164H326.961V170H351.561V164ZM351.561 102.8H380.161V96.8H351.561V102.8ZM380.161 102.8C389.87 102.8 397.961 100.33 404.109 95.0817L400.213 90.5183C395.427 94.6038 388.852 96.8 380.161 96.8V102.8ZM404.109 95.0817C410.286 89.8088 413.361 82.8205 413.361 74.4H407.361C407.361 81.1795 404.97 86.4579 400.213 90.5183L404.109 95.0817ZM413.361 74.4C413.361 65.6364 410.32 58.5621 404.007 53.6351L400.315 58.3649C404.936 61.9712 407.361 67.1636 407.361 74.4H413.361ZM404.07 53.6859C398.037 48.7088 389.947 46.4 380.161 46.4V52.4C389.042 52.4 395.618 54.4912 400.252 58.3141L404.07 53.6859ZM380.161 46.4H351.561V52.4H380.161V46.4ZM348.561 49.4V99.8H354.561V49.4H348.561ZM459.555 167V27H453.555V167H459.555ZM456.555 30H511.755V24H456.555V30ZM511.755 30C527.489 30 539.645 34.1165 548.562 42.0422L552.548 37.5578C542.264 28.4168 528.554 24 511.755 24V30ZM548.562 42.0422C557.44 49.9337 561.955 60.5413 561.955 74.2H567.955C567.955 59.0587 562.87 46.7329 552.548 37.5578L548.562 42.0422ZM561.955 74.2C561.955 88.4623 556.957 99.2795 547.099 107.043L550.811 111.757C562.286 102.72 567.955 90.071 567.955 74.2H561.955ZM547.084 107.054C537.182 114.951 524.548 119 508.955 119V125C525.629 125 539.661 120.649 550.825 111.745L547.084 107.054ZM508.955 119H481.155V125H508.955V119ZM478.155 122V167H484.155V122H478.155ZM481.155 164H456.555V170H481.155V164ZM481.155 102.8H509.755V96.8H481.155V102.8ZM509.755 102.8C519.464 102.8 527.555 100.33 533.703 95.0817L529.807 90.5183C525.021 94.6038 518.445 96.8 509.755 96.8V102.8ZM533.703 95.0817C539.879 89.8088 542.955 82.8205 542.955 74.4H536.955C536.955 81.1795 534.563 86.4579 529.807 90.5183L533.703 95.0817ZM542.955 74.4C542.955 65.6364 539.913 58.5621 533.601 53.6351L529.909 58.3649C534.529 61.9712 536.955 67.1636 536.955 74.4H542.955ZM533.664 53.6859C527.631 48.7088 519.541 46.4 509.755 46.4V52.4C518.635 52.4 525.212 54.4912 529.846 58.3141L533.664 53.6859ZM509.755 46.4H481.155V52.4H509.755V46.4ZM478.155 49.4V99.8H484.155V49.4H478.155ZM628.395 167V111.8H622.395V167H628.395ZM627.904 110.155L572.304 25.3551L567.287 28.6449L622.887 113.445L627.904 110.155ZM569.795 30H598.795V24H569.795V30ZM596.26 28.6032L635.46 90.6032L640.531 87.3968L601.331 25.3968L596.26 28.6032ZM640.524 90.6148L680.124 28.6148L675.067 25.3851L635.467 87.3852L640.524 90.6148ZM677.595 30H705.795V24H677.595V30ZM703.292 25.3469L647.692 109.547L652.699 112.853L708.299 28.6531L703.292 25.3469ZM647.195 111.2V167H653.195V111.2H647.195ZM650.195 164H625.395V170H650.195V164ZM782.32 167V27H776.32V167H782.32ZM779.32 30H834.52V24H779.32V30ZM834.52 30C850.255 30 862.411 34.1165 871.327 42.0422L875.314 37.5578C865.03 28.4168 851.319 24 834.52 24V30ZM871.327 42.0422C880.205 49.9337 884.72 60.5413 884.72 74.2H890.72C890.72 59.0587 885.636 46.7329 875.314 37.5578L871.327 42.0422ZM884.72 74.2C884.72 88.4623 879.723 99.2795 869.864 107.043L873.576 111.757C885.051 102.72 890.72 90.071 890.72 74.2H884.72ZM869.85 107.054C859.947 114.951 847.313 119 831.72 119V125C848.394 125 862.427 120.649 873.591 111.745L869.85 107.054ZM831.72 119H803.92V125H831.72V119ZM800.92 122V167H806.92V122H800.92ZM803.92 164H779.32V170H803.92V164ZM803.92 102.8H832.52V96.8H803.92V102.8ZM832.52 102.8C842.23 102.8 850.321 100.33 856.468 95.0817L852.573 90.5183C847.787 94.6038 841.211 96.8 832.52 96.8V102.8ZM856.468 95.0817C862.645 89.8088 865.72 82.8205 865.72 74.4H859.72C859.72 81.1795 857.329 86.4579 852.573 90.5183L856.468 95.0817ZM865.72 74.4C865.72 65.6364 862.679 58.5621 856.366 53.6351L852.675 58.3649C857.295 61.9712 859.72 67.1636 859.72 74.4H865.72ZM856.43 53.6859C850.397 48.7088 842.307 46.4 832.52 46.4V52.4C841.401 52.4 847.977 54.4912 852.611 58.3141L856.43 53.6859ZM832.52 46.4H803.92V52.4H832.52V46.4ZM800.92 49.4V99.8H806.92V49.4H800.92ZM911.914 167V27H905.914V167H911.914ZM908.914 30H1012.71V24H908.914V30ZM1009.71 27V49H1015.71V27H1009.71ZM1012.71 46H933.514V52H1012.71V46ZM930.514 49V85.4H936.514V49H930.514ZM933.514 88.4H1003.71V82.4H933.514V88.4ZM1000.71 85.4V107.4H1006.71V85.4H1000.71ZM1003.71 104.4H933.514V110.4H1003.71V104.4ZM930.514 107.4V145H936.514V107.4H930.514ZM933.514 148H1013.71V142H933.514V148ZM1010.71 145V167H1016.71V145H1010.71ZM1013.71 164H908.914V170H1013.71V164ZM1076.3 167V49.8H1070.3V167H1076.3ZM1073.3 46.8H1028.9V52.8H1073.3V46.8ZM1031.9 49.8V27H1025.9V49.8H1031.9ZM1028.9 30H1142.5V24H1028.9V30ZM1139.5 27V49.8H1145.5V27H1139.5ZM1142.5 46.8H1098.1V52.8H1142.5V46.8ZM1095.1 49.8V167H1101.1V49.8H1095.1ZM1098.1 164H1073.3V170H1098.1V164Z" fill="#FF8DA9" mask="url(#path-1-outside-1_1907_5496)"/>
</svg>
