<svg width="322" height="42" viewBox="0 0 322 42" fill="none" xmlns="http://www.w3.org/2000/svg">
<path d="M11.0118 0.979282C7.07028 1.28673 3.66053 3.13631 1.7376 6.01233C0.201069 8.31318 -0.265919 11.338 0.421755 14.5016C1.47624 19.3364 4.91612 24.4241 11.5692 31.0041C14.0299 33.4337 16.671 35.8489 21.9385 40.4902L22.5659 41.0454L22.6262 40.5545C22.9226 38.0554 24.9562 35.4472 30.1733 30.8751C30.6553 30.4537 31.9761 29.3034 33.1108 28.3264C34.2406 27.3446 35.5414 26.204 35.9982 25.7927C41.6822 20.6753 44.3135 17.0752 44.9963 13.4752C45.1421 12.7214 45.1522 11.3479 45.0167 10.5C44.68 8.34293 43.8266 6.48342 42.4558 4.91151C40.6481 2.83879 37.9113 1.45037 34.8432 1.04872C34.0952 0.954476 32.5334 0.9396 31.8055 1.02391C29.7718 1.26193 27.9287 1.91153 26.3621 2.93797C25.6993 3.37433 25.2677 3.72142 24.6549 4.31647C24.0324 4.92638 23.6054 5.43715 23.1436 6.13633C22.9527 6.42392 22.767 6.69663 22.7316 6.74624C22.6714 6.82557 22.6413 6.79582 22.4153 6.42886C20.6279 3.51316 17.4242 1.52475 13.7535 1.05861C13.0003 0.964405 11.7149 0.924724 11.0118 0.979282ZM14.6976 3.71153C17.2235 3.9793 19.5983 5.09995 21.2004 6.776C21.6222 7.22228 22.1893 7.94622 22.4507 8.37763C22.561 8.56112 22.6616 8.71483 22.6665 8.71483C22.6767 8.71483 22.787 8.55119 22.9124 8.35286C24.2832 6.17597 26.4577 4.63384 29.0638 3.9793C29.872 3.77598 30.4595 3.7016 31.4085 3.67185C32.7545 3.63217 33.864 3.77103 35.0691 4.12806C38.6596 5.20408 41.1904 7.88672 41.8984 11.3677C42.31 13.3859 42.0841 15.0173 41.12 16.9611C39.9401 19.3562 37.6854 21.9345 33.7887 25.3512C33.0807 25.9712 28.2956 30.052 27.9589 30.3246L27.8184 30.4388L27.7834 30.2503C27.5725 29.0405 27.2659 27.7957 26.6483 25.6487C25.7799 22.604 25.413 21.0074 25.2978 19.7727C25.2677 19.4056 25.2323 19.0984 25.2274 19.0932C25.2225 19.0836 25.0967 19.1133 24.9513 19.1579C24.7604 19.2122 24.6049 19.3115 24.409 19.49L24.1326 19.7478L24.2633 19.5001C24.4693 19.0984 24.8357 18.6521 25.1671 18.4041C25.6341 18.0519 26.1764 17.8239 27.2863 17.5165C28.4711 17.1793 28.923 16.9909 29.2645 16.6735C29.5911 16.376 29.7617 16.014 29.8321 15.4884C29.8773 15.1413 29.872 14.9925 29.7918 14.4867C29.6713 13.7281 29.6814 13.2123 29.8419 12.3892C29.9978 11.6008 30.0027 11.2933 29.8773 11.0107C29.6611 10.5495 29.1742 10.4752 27.7129 10.6735C26.4073 10.852 24.7404 10.8967 23.9066 10.7777C23.3643 10.6983 22.6563 10.5198 22.7068 10.4702C22.7166 10.4553 22.8725 10.4256 23.048 10.4008C23.2239 10.371 23.4449 10.3363 23.5402 10.3214L23.7059 10.2966L23.3643 10.0834C23.1738 9.96442 22.7267 9.67184 22.3652 9.43383C21.577 8.90327 20.8637 8.55614 20.2562 8.40738C19.8845 8.31812 19.6687 8.2983 19.0259 8.30325C18.1574 8.30325 17.7707 8.36773 16.932 8.64045C14.2204 9.52807 11.9458 12.1958 11.9458 14.4818C11.9458 15.3744 12.177 15.9297 12.7743 16.495C13.3569 17.0405 13.6329 17.1396 15.3303 17.4421C16.1136 17.581 16.5655 17.7545 17.414 18.2602C17.7959 18.4885 18.2226 18.7314 18.3582 18.8009L18.6143 18.9247L18.7397 18.6421C18.9408 18.1958 18.9958 17.9478 18.9909 17.4421C18.9909 16.6338 18.7649 16.0934 17.7405 14.4619C16.9922 13.2669 16.7565 12.771 16.5957 12.0867C16.4752 11.576 16.4801 11.581 17.0427 12.5479C17.4743 13.2917 17.9013 13.9363 18.2979 14.4421C19.0312 15.3744 19.6386 16.4404 19.7994 17.1C19.8996 17.5016 19.9049 18.2702 19.8043 18.6321C19.6638 19.1628 19.3825 19.6191 18.9106 20.0951L18.4636 20.5414L18.3081 20.3428C17.62 19.48 16.9071 18.9694 15.943 18.6321C15.4858 18.4785 14.1504 18.1858 13.8841 18.1858H13.7384L13.7685 18.4439C13.7836 18.5874 13.8389 19.5001 13.8841 20.467L13.9745 22.2272L13.7286 22.9461C13.3015 24.2106 12.7743 25.3512 12.1668 26.323C11.8704 26.7942 11.0672 27.885 10.9365 27.9891C10.8713 28.0438 10.776 27.9545 10.3241 27.4387C6.6033 23.2042 4.35875 19.4305 3.53512 16.0289C3.22895 14.7595 3.18376 14.3777 3.18376 12.9545C3.18376 11.5115 3.2489 11.0404 3.58031 10.0388C4.74025 6.55286 8.09464 4.12307 12.3476 3.69167C12.7592 3.64704 14.2457 3.66192 14.6976 3.71153ZM21.592 11.4272C21.7525 11.5859 21.9283 11.7297 21.9735 11.7446C22.079 11.7842 22.1392 11.7595 21.371 11.9876C20.9443 12.1165 20.7786 12.1413 20.5775 12.1214C20.4419 12.1066 20.3063 12.0768 20.2815 12.0619C20.2212 12.0272 20.4321 11.7446 20.7884 11.3826C21.0998 11.0553 21.2102 11.0652 21.592 11.4272ZM22.6465 18.5926C22.7569 18.7611 22.8924 19.0538 22.9527 19.2472C23.048 19.5544 23.0533 19.6686 23.0329 20.3926L23.0028 21.196L23.1636 21.2852C23.4547 21.4585 23.7861 21.8059 23.8968 22.0636C23.9571 22.2023 24.0174 22.4701 24.0324 22.6687L24.0625 23.0257L24.2783 23.115C24.3989 23.1644 24.5996 23.2935 24.7254 23.4024L24.9611 23.6059L24.9261 23.8833C24.7856 25.0042 24.0723 25.9362 22.9075 26.5067L22.6013 26.6603L23.0382 27.5927C24.1228 29.8884 24.4892 31.1529 24.4339 32.4322C24.409 33.1563 24.2433 33.9098 24.0674 34.118C24.0023 34.1924 23.9319 34.2571 23.9119 34.2571C23.8916 34.2571 23.8366 34.0935 23.7914 33.8949C23.7161 33.558 23.7059 33.5431 23.6807 33.7067C23.6656 33.8008 23.6355 34.0637 23.6204 34.2917C23.5956 34.6885 23.5854 34.7131 23.3342 35.0456C23.1937 35.2389 23.0732 35.3877 23.0631 35.3825C23.0582 35.3728 23.0834 35.2189 23.1184 35.0355C23.2491 34.4208 23.289 33.6866 23.2589 32.3679C23.234 31.1529 23.2389 31.0588 23.3142 31.1332C23.4396 31.247 23.721 31.9264 23.8517 32.4222C23.9168 32.6654 23.9872 32.8636 24.0072 32.8636C24.0324 32.8636 24.0475 32.5958 24.0475 32.2637C24.0475 31.0387 23.6607 29.804 22.561 27.4934C22.2549 26.8537 22.1494 26.6703 22.0892 26.6949C21.9686 26.7447 21.3006 26.7793 21.2004 26.7395C21.1348 26.715 21.2456 26.6703 21.5619 26.5908C23.1836 26.1794 24.2584 25.2571 24.4994 24.0719C24.5695 23.7148 24.5544 23.6899 24.0475 23.4471L23.6709 23.2637L23.6408 22.8223C23.6257 22.5742 23.5752 22.2968 23.5353 22.2023C23.4498 22.0041 23.1787 21.7464 22.8273 21.5329L22.581 21.3841L22.6164 20.9579C22.7015 19.8471 22.6413 19.3115 22.3803 18.895C22.2948 18.7563 22.2699 18.7414 22.1592 18.7808C21.6271 18.9843 21.1348 19.599 20.904 20.3428C20.8539 20.5064 20.7985 20.6653 20.7733 20.695C20.7534 20.7248 20.5575 20.7645 20.3466 20.7794C19.6687 20.8289 18.9758 21.1115 18.9758 21.3395C18.9758 21.3745 19.0711 21.4935 19.1818 21.5976C19.297 21.7017 19.3825 21.8107 19.3724 21.8405C19.3626 21.8654 19.1163 21.7612 18.83 21.6024C17.811 21.042 16.6209 20.586 16.0281 20.5314L15.6967 20.5016L15.7321 20.8538C15.8526 22.0736 16.5655 23.2786 17.6551 24.1314C17.8863 24.305 18.0618 24.4586 18.0569 24.4687C18.0219 24.5033 17.4844 24.3199 17.359 24.2255L17.2182 24.1314V24.9246C17.2182 26.3282 17.0977 26.7841 16.6006 27.2505C16.2692 27.5577 15.8828 27.7511 14.6626 28.2223C13.7535 28.5745 12.6237 29.1 12.3374 29.2982C12.2674 29.3529 12.1868 29.3927 12.1668 29.3927C12.1167 29.3927 11.8957 29.1892 11.8957 29.1398C11.8957 29.1 12.4482 28.7727 12.9001 28.5496C13.3618 28.3164 13.9143 28.0884 14.803 27.7511C15.702 27.4089 16.1185 27.1958 16.3697 26.9281C16.7512 26.5365 16.8167 26.2289 16.8167 24.89V23.9231L16.6006 23.6702C15.8172 22.7628 15.3755 21.7166 15.3454 20.7199L15.3352 20.2487L15.5864 20.1792C16.0485 20.0453 16.8717 20.2487 18.0618 20.7794L18.6545 21.0472L18.8602 20.8687C19.0963 20.6552 19.5482 20.4916 20.0905 20.4075C20.4773 20.3528 20.4822 20.348 20.5376 20.1743C20.663 19.7827 21.0143 19.1974 21.2908 18.9199C21.5517 18.657 22.1844 18.2851 22.3754 18.2851C22.4153 18.2851 22.5309 18.4238 22.6465 18.5926ZM19.0312 34.4304C18.9758 34.6737 18.9054 35.0504 18.8703 35.2687C18.7901 35.8139 18.78 35.8239 18.5491 35.6257L18.3533 35.4569L18.4437 35.214C18.5389 34.9563 19.0861 33.9447 19.1114 33.9745C19.1215 33.9841 19.0861 34.1876 19.0312 34.4304Z" fill="#FF8DA9"/>
<path d="M304.272 37.92V11.136H294.048V4.31999H321.888V11.136H311.664V37.92H304.272Z" fill="#FF8DA9"/>
<path d="M265.252 37.92V4.31999H290.596V10.896H272.596V17.712H288.436V24.288H272.596V31.344H290.836V37.92H265.252Z" fill="#FF8DA9"/>
<path d="M234.149 37.92V4.31999H247.877C251.845 4.31999 254.981 5.39199 257.285 7.53599C259.589 9.67999 260.741 12.512 260.741 16.032C260.741 19.776 259.461 22.688 256.901 24.768C254.341 26.816 251.093 27.84 247.157 27.84H241.541V37.92H234.149ZM241.541 21.264H247.397C249.221 21.264 250.645 20.784 251.669 19.824C252.725 18.864 253.253 17.616 253.253 16.08C253.253 14.448 252.725 13.2 251.669 12.336C250.613 11.44 249.141 10.992 247.253 10.992H241.541V21.264Z" fill="#FF8DA9"/>
<path d="M196.775 37.92V24.672L183.863 4.31999H192.503L200.519 17.808L208.679 4.31999H217.079L204.167 24.528V37.92H196.775Z" fill="#FF8DA9"/>
<path d="M156.685 37.92V4.31999H170.413C174.381 4.31999 177.517 5.39199 179.821 7.53599C182.125 9.67999 183.277 12.512 183.277 16.032C183.277 19.776 181.997 22.688 179.437 24.768C176.877 26.816 173.629 27.84 169.693 27.84H164.077V37.92H156.685ZM164.077 21.264H169.933C171.757 21.264 173.181 20.784 174.205 19.824C175.261 18.864 175.789 17.616 175.789 16.08C175.789 14.448 175.261 13.2 174.205 12.336C173.149 11.44 171.677 10.992 169.789 10.992H164.077V21.264Z" fill="#FF8DA9"/>
<path d="M125.583 37.92V4.31999H139.311C143.279 4.31999 146.415 5.39199 148.719 7.53599C151.023 9.67999 152.175 12.512 152.175 16.032C152.175 19.776 150.895 22.688 148.335 24.768C145.775 26.816 142.527 27.84 138.591 27.84H132.975V37.92H125.583ZM132.975 21.264H138.831C140.655 21.264 142.079 20.784 143.103 19.824C144.159 18.864 144.687 17.616 144.687 16.08C144.687 14.448 144.159 13.2 143.103 12.336C142.047 11.44 140.575 10.992 138.687 10.992H132.975V21.264Z" fill="#FF8DA9"/>
<path d="M85.7411 37.92L100.141 4.07999H106.957L121.357 37.92H113.629L110.557 30.384H96.3491L93.2771 37.92H85.7411ZM98.9891 23.856H107.917L103.453 12.96L98.9891 23.856Z" fill="#FF8DA9"/>
<path d="M53.1123 37.92V4.31999H60.5043V17.616H74.1363V4.31999H81.5283V37.92H74.1363V24.432H60.5043V37.92H53.1123Z" fill="#FF8DA9"/>
</svg>
