<svg width="331" height="180" viewBox="0 0 331 180" fill="none" xmlns="http://www.w3.org/2000/svg">
<path fill-rule="evenodd" clip-rule="evenodd" d="M8.23809 82.9235C7.78335 83.7466 7.58441 84.5995 7.33098 85.4869C7.28152 85.6602 7.3919 85.8424 7.57715 85.8948C7.76251 85.9471 7.95308 85.8486 8.00266 85.6753C8.24294 84.8339 8.42518 84.0215 8.85694 83.2396C8.94431 83.0815 8.87652 82.882 8.70559 82.7952C8.53504 82.7074 8.32535 82.7653 8.23809 82.9235Z" fill="#FF8DA9"/>
<path fill-rule="evenodd" clip-rule="evenodd" d="M6.71398 80.31C4.84235 81.2943 2.96001 82.6929 1.50627 84.2179C1.37943 84.3512 1.38707 84.5617 1.52351 84.6872C1.65996 84.8128 1.87355 84.8074 2.00039 84.6742C3.40608 83.1997 5.22656 81.847 7.03614 80.896C7.1998 80.8097 7.26043 80.6085 7.17146 80.447C7.0825 80.2855 6.87764 80.2236 6.71398 80.31Z" fill="#FF8DA9"/>
<path fill-rule="evenodd" clip-rule="evenodd" d="M6.26932 79.1459C4.93436 78.5721 3.40448 78.5907 2.00384 78.8095C1.82095 78.8386 1.6985 79.0066 1.73039 79.1844C1.76212 79.3632 1.9364 79.4847 2.11902 79.4566C3.39474 79.2569 4.78938 79.2221 6.00528 79.7446C6.17584 79.8179 6.3735 79.743 6.4462 79.5782C6.51901 79.4134 6.43978 79.2192 6.26932 79.1459Z" fill="#FF8DA9"/>
<path fill-rule="evenodd" clip-rule="evenodd" d="M244.807 32.1865C241.872 37.3493 236.008 39.4482 230.562 36.5417C230.381 36.4449 230.151 36.5054 230.049 36.6748C229.946 36.8472 230.01 37.065 230.192 37.1617C236.029 40.28 242.324 38.057 245.471 32.5252C245.569 32.3528 245.5 32.135 245.317 32.0413C245.134 31.9505 244.905 32.0141 244.807 32.1865Z" fill="#FF8DA9"/>
<path d="M235.175 33.8807C235.825 33.8807 236.351 33.4597 236.351 32.9403C236.351 32.421 235.825 32 235.175 32C234.526 32 234 32.421 234 32.9403C234 33.4597 234.526 33.8807 235.175 33.8807Z" fill="#FF8DA9"/>
<path d="M240.175 32.8807C240.825 32.8807 241.351 32.4597 241.351 31.9403C241.351 31.421 240.825 31 240.175 31C239.526 31 239 31.421 239 31.9403C239 32.4597 239.526 32.8807 240.175 32.8807Z" fill="#FF8DA9"/>
<path fill-rule="evenodd" clip-rule="evenodd" d="M190.294 68.8642C190.411 68.8625 190.525 68.8676 190.632 68.877C190.953 68.9075 190.944 69.2157 190.943 69.2396C190.941 69.2898 190.921 69.5131 190.669 69.5581C190.654 69.561 190.546 69.5652 190.504 69.5661C190.415 69.5676 190.327 69.5668 190.24 69.5512C190.091 69.5575 189.937 69.5773 189.792 69.6203C189.577 69.6826 189.378 69.7888 189.268 69.9895C189.071 70.3483 189.066 70.8291 189.009 71.2293C188.984 71.3964 188.846 71.5195 188.682 71.5196C188.517 71.5185 188.377 71.3948 188.352 71.2271C188.274 70.7218 187.846 70.1288 187.498 69.7489C187.392 69.6321 187.134 69.4964 186.97 69.3491C186.839 69.2303 186.752 69.1005 186.72 68.9794C186.707 68.9321 186.663 68.6712 186.926 68.5638C187 68.5344 187.385 68.4346 187.429 68.4258C187.681 68.3728 187.906 68.2927 188.109 68.1272C188.286 67.9836 188.441 67.8073 188.53 67.5921C188.565 67.5054 188.593 67.415 188.622 67.3246C188.626 67.2927 188.64 67.2029 188.651 67.1713C188.674 67.107 188.708 67.0602 188.742 67.0271C188.805 66.9642 188.881 66.9336 188.965 66.9308C189.021 66.9282 189.087 66.9385 189.16 66.9821C189.211 67.0147 189.288 67.0871 189.335 67.2144C189.385 67.3475 189.429 67.6312 189.441 67.6819C189.523 68.0344 189.653 68.3816 189.887 68.6582C190.004 68.7959 190.133 68.8312 190.294 68.8642ZM189.347 69.0554C189.073 69.1807 188.84 69.3737 188.689 69.6484C188.627 69.7617 188.578 69.8857 188.54 70.0146C188.366 69.7401 188.166 69.4841 187.98 69.28C187.919 69.2139 187.821 69.1408 187.712 69.0628C188.009 68.9863 188.277 68.8676 188.524 68.6659C188.67 68.5464 188.804 68.4105 188.917 68.2579C189.019 68.5447 189.157 68.818 189.347 69.0554Z" fill="#FF8DA9"/>
<path fill-rule="evenodd" clip-rule="evenodd" d="M181.351 62.3175C181.225 64.9655 181.274 67.6779 180.381 70.1822C180.317 70.3617 180.399 70.565 180.562 70.6361C180.727 70.7071 180.912 70.6181 180.977 70.4386C181.895 67.8641 181.861 65.0788 181.99 62.3576C181.999 62.1644 181.864 62 181.688 61.9892C181.511 61.9783 181.362 62.1256 181.351 62.3175Z" fill="#FF8DA9"/>
<path fill-rule="evenodd" clip-rule="evenodd" d="M184.72 61.4951C185.447 62.3267 185.985 63.2248 186.235 64.2968C186.279 64.4813 186.465 64.5976 186.651 64.5572C186.837 64.5157 186.952 64.3335 186.909 64.1479C186.632 62.9628 186.044 61.968 185.24 61.0492C185.115 60.9053 184.896 60.8885 184.752 61.0115C184.609 61.1345 184.594 61.3512 184.72 61.4951Z" fill="#FF8DA9"/>
<path fill-rule="evenodd" clip-rule="evenodd" d="M192.459 59.5576C193.688 59.9719 194.638 60.7366 195.31 61.8816C195.406 62.0452 195.613 62.0995 195.771 62.0011C195.93 61.9038 195.981 61.691 195.884 61.5275C195.125 60.233 194.052 59.3685 192.664 58.9003C192.487 58.8412 192.298 58.9397 192.241 59.1212C192.185 59.3026 192.282 59.4985 192.459 59.5576Z" fill="#FF8DA9"/>
<mask id="path-11-outside-1_899_63092" maskUnits="userSpaceOnUse" x="9" y="11" width="325" height="70" fill="black">
<rect fill="white" x="9" y="11" width="325" height="70"/>
<path d="M10.46 79V13.2H22.022V40.554H53.418V13.2H64.98V79H53.418V51.27H22.022V79H10.46ZM74.358 79L103.31 12.73H114.026L142.978 79H130.758L124.084 63.114H92.97L86.202 79H74.358ZM97.2 52.868H119.854L108.48 26.548L97.2 52.868ZM152.382 79V13.2H178.326C185.971 13.2 192.05 15.2053 196.562 19.216C201.074 23.2267 203.33 28.616 203.33 35.384C203.33 42.4653 200.823 47.98 195.81 51.928C190.859 55.876 184.592 57.85 177.01 57.85H163.944V79H152.382ZM163.944 47.416H177.386C181.71 47.416 185.156 46.3193 187.726 44.126C190.295 41.9327 191.58 39.05 191.58 35.478C191.58 31.718 190.295 28.8353 187.726 26.83C185.219 24.762 181.772 23.728 177.386 23.728H163.944V47.416ZM213.291 79V13.2H239.235C246.88 13.2 252.959 15.2053 257.471 19.216C261.983 23.2267 264.239 28.616 264.239 35.384C264.239 42.4653 261.732 47.98 256.719 51.928C251.768 55.876 245.501 57.85 237.919 57.85H224.853V79H213.291ZM224.853 47.416H238.295C242.619 47.416 246.065 46.3193 248.635 44.126C251.204 41.9327 252.489 39.05 252.489 35.478C252.489 31.718 251.204 28.8353 248.635 26.83C246.128 24.762 242.681 23.728 238.295 23.728H224.853V47.416ZM292.646 79V53.056L266.514 13.2H280.144L298.568 42.34L317.18 13.2H330.434L304.302 52.774V79H292.646Z"/>
</mask>
<path d="M10.46 79V13.2H22.022V40.554H53.418V13.2H64.98V79H53.418V51.27H22.022V79H10.46ZM74.358 79L103.31 12.73H114.026L142.978 79H130.758L124.084 63.114H92.97L86.202 79H74.358ZM97.2 52.868H119.854L108.48 26.548L97.2 52.868ZM152.382 79V13.2H178.326C185.971 13.2 192.05 15.2053 196.562 19.216C201.074 23.2267 203.33 28.616 203.33 35.384C203.33 42.4653 200.823 47.98 195.81 51.928C190.859 55.876 184.592 57.85 177.01 57.85H163.944V79H152.382ZM163.944 47.416H177.386C181.71 47.416 185.156 46.3193 187.726 44.126C190.295 41.9327 191.58 39.05 191.58 35.478C191.58 31.718 190.295 28.8353 187.726 26.83C185.219 24.762 181.772 23.728 177.386 23.728H163.944V47.416ZM213.291 79V13.2H239.235C246.88 13.2 252.959 15.2053 257.471 19.216C261.983 23.2267 264.239 28.616 264.239 35.384C264.239 42.4653 261.732 47.98 256.719 51.928C251.768 55.876 245.501 57.85 237.919 57.85H224.853V79H213.291ZM224.853 47.416H238.295C242.619 47.416 246.065 46.3193 248.635 44.126C251.204 41.9327 252.489 39.05 252.489 35.478C252.489 31.718 251.204 28.8353 248.635 26.83C246.128 24.762 242.681 23.728 238.295 23.728H224.853V47.416ZM292.646 79V53.056L266.514 13.2H280.144L298.568 42.34L317.18 13.2H330.434L304.302 52.774V79H292.646Z" fill="#FF8DA9"/>
<path d="M10.4631 79H9.05256V80.4105H10.4631V79ZM10.4631 13.1761V11.7656H9.05256V13.1761H10.4631ZM22.0293 13.1761H23.4398V11.7656H22.0293V13.1761ZM22.0293 40.5401H20.6188V41.9506H22.0293V40.5401ZM53.4366 40.5401V41.9506H54.8472V40.5401H53.4366ZM53.4366 13.1761V11.7656H52.0261V13.1761H53.4366ZM65.0028 13.1761H66.4134V11.7656H65.0028V13.1761ZM65.0028 79V80.4105H66.4134V79H65.0028ZM53.4366 79H52.0261V80.4105H53.4366V79ZM53.4366 51.2599H54.8472V49.8494H53.4366V51.2599ZM22.0293 51.2599V49.8494H20.6188V51.2599H22.0293ZM22.0293 79V80.4105H23.4398V79H22.0293ZM11.8736 79V13.1761H9.05256V79H11.8736ZM10.4631 14.5866H22.0293V11.7656H10.4631V14.5866ZM20.6188 13.1761V40.5401H23.4398V13.1761H20.6188ZM22.0293 41.9506H53.4366V39.1295H22.0293V41.9506ZM54.8472 40.5401V13.1761H52.0261V40.5401H54.8472ZM53.4366 14.5866H65.0028V11.7656H53.4366V14.5866ZM63.5923 13.1761V79H66.4134V13.1761H63.5923ZM65.0028 77.5895H53.4366V80.4105H65.0028V77.5895ZM54.8472 79V51.2599H52.0261V79H54.8472ZM53.4366 49.8494H22.0293V52.6705H53.4366V49.8494ZM20.6188 51.2599V79H23.4398V51.2599H20.6188ZM22.0293 77.5895H10.4631V80.4105H22.0293V77.5895ZM74.3842 79L73.0917 78.4353L72.2287 80.4105H74.3842V79ZM103.347 12.706V11.2955H102.424L102.054 12.1413L103.347 12.706ZM114.067 12.706L115.359 12.1413L114.99 11.2955H114.067V12.706ZM143.029 79V80.4105H145.185L144.322 78.4353L143.029 79ZM130.805 79L129.504 79.5463L129.867 80.4105H130.805V79ZM124.128 63.1082L125.429 62.5619L125.066 61.6977H124.128V63.1082ZM93.003 63.1082V61.6977H92.0707L91.7053 62.5554L93.003 63.1082ZM86.2325 79V80.4105H87.1648L87.5302 79.5528L86.2325 79ZM97.2345 52.8585L95.938 52.3029L95.0954 54.269H97.2345V52.8585ZM119.897 52.8585V54.269H122.043L121.191 52.299L119.897 52.8585ZM108.519 26.529L109.813 25.9694L108.513 22.9608L107.222 25.9733L108.519 26.529ZM75.6768 79.5647L104.639 13.2706L102.054 12.1413L73.0917 78.4353L75.6768 79.5647ZM103.347 14.1165H114.067V11.2955H103.347V14.1165ZM112.774 13.2706L141.737 79.5647L144.322 78.4353L115.359 12.1413L112.774 13.2706ZM143.029 77.5895H130.805V80.4105H143.029V77.5895ZM132.105 78.4537L125.429 62.5619L122.828 63.6546L129.504 79.5463L132.105 78.4537ZM124.128 61.6977H93.003V64.5187H124.128V61.6977ZM91.7053 62.5554L84.9349 78.4472L87.5302 79.5528L94.3006 63.6611L91.7053 62.5554ZM86.2325 77.5895H74.3842V80.4105H86.2325V77.5895ZM97.2345 54.269H119.897V51.448H97.2345V54.269ZM121.191 52.299L109.813 25.9694L107.224 27.0885L118.602 53.4181L121.191 52.299ZM107.222 25.9733L95.938 52.3029L98.531 53.4142L109.815 27.0846L107.222 25.9733ZM152.436 79H151.026V80.4105H152.436V79ZM152.436 13.1761V11.7656H151.026V13.1761H152.436ZM196.632 19.1943L195.695 20.2485L196.632 19.1943ZM195.88 51.9182L195.007 50.81L195.001 50.8154L195.88 51.9182ZM164.002 57.8423V56.4318H162.592V57.8423H164.002ZM164.002 79V80.4105H165.413V79H164.002ZM164.002 47.4045H162.592V48.8151H164.002V47.4045ZM187.793 26.8111L186.895 27.8991L186.91 27.9113L186.925 27.923L187.793 26.8111ZM164.002 23.708V22.2974H162.592V23.708H164.002ZM153.847 79V13.1761H151.026V79H153.847ZM152.436 14.5866H178.39V11.7656H152.436V14.5866ZM178.39 14.5866C185.787 14.5866 191.503 16.5221 195.695 20.2485L197.569 18.1401C192.734 13.8423 186.288 11.7656 178.39 11.7656V14.5866ZM195.695 20.2485C199.869 23.9589 201.992 28.9463 201.992 35.3682H204.813C204.813 28.2492 202.422 22.454 197.569 18.1401L195.695 20.2485ZM201.992 35.3682C201.992 42.0739 199.642 47.1598 195.007 50.81L196.753 53.0263C202.148 48.7777 204.813 42.8302 204.813 35.3682H201.992ZM195.001 50.8154C190.345 54.5283 184.404 56.4318 177.073 56.4318V59.2528C184.913 59.2528 191.51 57.2069 196.759 53.021L195.001 50.8154ZM177.073 56.4318H164.002V59.2528H177.073V56.4318ZM162.592 57.8423V79H165.413V57.8423H162.592ZM164.002 77.5895H152.436V80.4105H164.002V77.5895ZM164.002 48.8151H177.449V45.994H164.002V48.8151ZM177.449 48.8151C182.014 48.8151 185.818 47.6535 188.709 45.1861L186.877 43.0406C184.627 44.9615 181.535 45.994 177.449 45.994V48.8151ZM188.709 45.1861C191.613 42.707 193.059 39.4213 193.059 35.4622H190.238C190.238 38.6498 189.114 41.1315 186.877 43.0406L188.709 45.1861ZM193.059 35.4622C193.059 31.3418 191.629 28.0157 188.661 25.6992L186.925 27.923C189.098 29.6186 190.238 32.0599 190.238 35.4622H193.059ZM188.691 25.7231C185.854 23.383 182.05 22.2974 177.449 22.2974V25.1185C181.625 25.1185 184.717 26.1017 186.895 27.8991L188.691 25.7231ZM177.449 22.2974H164.002V25.1185H177.449V22.2974ZM162.592 23.708V47.4045H165.413V23.708H162.592ZM213.367 79H211.957V80.4105H213.367V79ZM213.367 13.1761V11.7656H211.957V13.1761H213.367ZM257.563 19.1943L256.626 20.2485L257.563 19.1943ZM256.811 51.9182L255.938 50.81L255.932 50.8154L256.811 51.9182ZM224.934 57.8423V56.4318H223.523V57.8423H224.934ZM224.934 79V80.4105H226.344V79H224.934ZM224.934 47.4045H223.523V48.8151H224.934V47.4045ZM248.724 26.8111L247.827 27.8991L247.841 27.9113L247.856 27.923L248.724 26.8111ZM224.934 23.708V22.2974H223.523V23.708H224.934ZM214.778 79V13.1761H211.957V79H214.778ZM213.367 14.5866H239.321V11.7656H213.367V14.5866ZM239.321 14.5866C246.719 14.5866 252.434 16.5221 256.626 20.2485L258.5 18.1401C253.665 13.8423 247.219 11.7656 239.321 11.7656V14.5866ZM256.626 20.2485C260.8 23.9589 262.923 28.9463 262.923 35.3682H265.744C265.744 28.2492 263.354 22.454 258.5 18.1401L256.626 20.2485ZM262.923 35.3682C262.923 42.0739 260.574 47.1598 255.938 50.81L257.684 53.0263C263.079 48.7777 265.744 42.8302 265.744 35.3682H262.923ZM255.932 50.8154C251.276 54.5283 245.336 56.4318 238.004 56.4318V59.2528C245.844 59.2528 252.441 57.2069 257.691 53.021L255.932 50.8154ZM238.004 56.4318H224.934V59.2528H238.004V56.4318ZM223.523 57.8423V79H226.344V57.8423H223.523ZM224.934 77.5895H213.367V80.4105H224.934V77.5895ZM224.934 48.8151H238.38V45.994H224.934V48.8151ZM238.38 48.8151C242.945 48.8151 246.75 47.6535 249.64 45.1861L247.808 43.0406C245.558 44.9615 242.466 45.994 238.38 45.994V48.8151ZM249.64 45.1861C252.544 42.707 253.99 39.4213 253.99 35.4622H251.169C251.169 38.6498 250.045 41.1315 247.808 43.0406L249.64 45.1861ZM253.99 35.4622C253.99 31.3418 252.56 28.0157 249.592 25.6992L247.856 27.923C250.029 29.6186 251.169 32.0599 251.169 35.4622H253.99ZM249.622 25.7231C246.785 23.383 242.982 22.2974 238.38 22.2974V25.1185C242.556 25.1185 245.648 26.1017 247.827 27.8991L249.622 25.7231ZM238.38 22.2974H224.934V25.1185H238.38V22.2974ZM223.523 23.708V47.4045H226.344V23.708H223.523ZM292.751 79H291.341V80.4105H292.751V79ZM292.751 53.0466H294.162V52.6254L293.931 52.2732L292.751 53.0466ZM266.61 13.1761V11.7656H263.998L265.43 13.9495L266.61 13.1761ZM280.245 13.1761L281.437 12.4224L281.022 11.7656H280.245V13.1761ZM298.675 42.3267L297.483 43.0805L298.669 44.9566L299.864 43.086L298.675 42.3267ZM317.294 13.1761V11.7656H316.521L316.105 12.4169L317.294 13.1761ZM330.553 13.1761L331.73 13.9534L333.175 11.7656H330.553V13.1761ZM304.411 52.7645L303.234 51.9872L303.001 52.3408V52.7645H304.411ZM304.411 79V80.4105H305.822V79H304.411ZM294.162 79V53.0466H291.341V79H294.162ZM293.931 52.2732L267.789 12.4027L265.43 13.9495L291.572 53.82L293.931 52.2732ZM266.61 14.5866H280.245V11.7656H266.61V14.5866ZM279.052 13.9299L297.483 43.0805L299.868 41.5729L281.437 12.4224L279.052 13.9299ZM299.864 43.086L318.483 13.9354L316.105 12.4169L297.487 41.5675L299.864 43.086ZM317.294 14.5866H330.553V11.7656H317.294V14.5866ZM329.376 12.3989L303.234 51.9872L305.588 53.5417L331.73 13.9534L329.376 12.3989ZM303.001 52.7645V79H305.822V52.7645H303.001ZM304.411 77.5895H292.751V80.4105H304.411V77.5895Z" fill="#FF8DA9" mask="url(#path-11-outside-1_899_63092)"/>
<path fill-rule="evenodd" clip-rule="evenodd" d="M255.265 103.607C255.385 102.479 255.24 101.425 255.135 100.308C255.114 100.09 254.932 99.929 254.728 99.9472C254.524 99.9653 254.375 100.157 254.396 100.376C254.495 101.434 254.641 102.436 254.527 103.507C254.504 103.723 254.651 103.922 254.855 103.949C255.058 103.978 255.242 103.824 255.265 103.607Z" fill="#FF8DA9"/>
<path fill-rule="evenodd" clip-rule="evenodd" d="M257.388 105.575C258.868 103.882 260.201 101.774 261.06 99.7044C261.135 99.5236 261.047 99.3177 260.863 99.2453C260.68 99.1729 260.47 99.26 260.395 99.4408C259.564 101.442 258.276 103.48 256.844 105.116C256.715 105.265 256.732 105.488 256.882 105.614C257.032 105.74 257.259 105.723 257.388 105.575Z" fill="#FF8DA9"/>
<path fill-rule="evenodd" clip-rule="evenodd" d="M258.323 107.473C259.877 107.613 261.371 106.871 262.653 105.922C262.82 105.798 262.869 105.516 262.762 105.294C262.655 105.071 262.433 104.99 262.265 105.114C261.098 105.978 259.743 106.678 258.328 106.551C258.129 106.533 257.967 106.726 257.966 106.98C257.964 107.233 258.124 107.455 258.323 107.473Z" fill="#FF8DA9"/>
<path d="M190.977 109C191.106 104.059 190.746 94.5777 188.282 96.1802C184.182 98.8461 177 105.534 177 108.111" stroke="#FF8DA9" stroke-width="1.58166"/>
<path d="M145.023 109C144.89 104.059 145.264 94.5777 147.827 96.1802C150.389 97.7826 161.485 105.277 162 108.111" stroke="#FF8DA9" stroke-width="1.58166"/>
<path d="M149.597 106L153 104.52C152.055 103.534 149.994 101.659 149.313 102.054C148.632 102.448 149.218 104.849 149.597 106Z" fill="#FF8DA9"/>
<path d="M186.403 105L183 103.52C183.945 102.534 186.006 100.659 186.687 101.054C187.368 101.448 186.782 103.849 186.403 105Z" fill="#FF8DA9"/>
<mask id="path-20-outside-2_899_63092" maskUnits="userSpaceOnUse" x="80" y="107" width="175" height="70" fill="black">
<rect fill="white" x="80" y="107" width="175" height="70"/>
<path d="M82.46 175V109.2H108.404C116.049 109.2 122.128 111.205 126.64 115.216C131.152 119.227 133.408 124.616 133.408 131.384C133.408 138.465 130.901 143.98 125.888 147.928C120.937 151.876 114.671 153.85 107.088 153.85H94.022V175H82.46ZM94.022 143.416H107.464C111.788 143.416 115.235 142.319 117.804 140.126C120.373 137.933 121.658 135.05 121.658 131.478C121.658 127.718 120.373 124.835 117.804 122.83C115.297 120.762 111.851 119.728 107.464 119.728H94.022V143.416ZM143.369 175V109.2H192.155V119.54H154.931V136.648H187.925V146.988H154.931V164.66H192.625V175H143.369ZM220.63 175V119.916H199.762V109.2H253.154V119.916H232.286V175H220.63Z"/>
</mask>
<path d="M82.46 175H80.934V176.526H82.46V175ZM82.46 109.2V107.674H80.934V109.2H82.46ZM126.64 115.216L125.626 116.357L125.626 116.357L126.64 115.216ZM125.888 147.928L124.944 146.729L124.937 146.735L125.888 147.928ZM94.022 153.85V152.324H92.496V153.85H94.022ZM94.022 175V176.526H95.548V175H94.022ZM94.022 143.416H92.496V144.942H94.022V143.416ZM117.804 122.83L116.833 124.007L116.849 124.02L116.865 124.033L117.804 122.83ZM94.022 119.728V118.202H92.496V119.728H94.022ZM83.986 175V109.2H80.934V175H83.986ZM82.46 110.726H108.404V107.674H82.46V110.726ZM108.404 110.726C115.779 110.726 121.462 112.655 125.626 116.357L127.654 114.075C122.794 109.756 116.32 107.674 108.404 107.674V110.726ZM125.626 116.357C129.771 120.041 131.882 124.993 131.882 131.384H134.934C134.934 124.239 132.533 118.413 127.654 114.075L125.626 116.357ZM131.882 131.384C131.882 138.056 129.546 143.105 124.944 146.729L126.832 149.127C132.257 144.855 134.934 138.874 134.934 131.384H131.882ZM124.937 146.735C120.307 150.427 114.396 152.324 107.088 152.324V155.376C114.946 155.376 121.568 153.325 126.839 149.121L124.937 146.735ZM107.088 152.324H94.022V155.376H107.088V152.324ZM92.496 153.85V175H95.548V153.85H92.496ZM94.022 173.474H82.46V176.526H94.022V173.474ZM94.022 144.942H107.464V141.89H94.022V144.942ZM107.464 144.942C112.047 144.942 115.879 143.776 118.795 141.287L116.813 138.965C114.59 140.863 111.529 141.89 107.464 141.89V144.942ZM118.795 141.287C121.725 138.785 123.184 135.467 123.184 131.478H120.132C120.132 134.633 119.021 137.08 116.813 138.965L118.795 141.287ZM123.184 131.478C123.184 127.33 121.743 123.968 118.743 121.627L116.865 124.033C119.004 125.702 120.132 128.106 120.132 131.478H123.184ZM118.775 121.653C115.913 119.291 112.081 118.202 107.464 118.202V121.254C111.62 121.254 114.682 122.233 116.833 124.007L118.775 121.653ZM107.464 118.202H94.022V121.254H107.464V118.202ZM92.496 119.728V143.416H95.548V119.728H92.496ZM143.369 175H141.843V176.526H143.369V175ZM143.369 109.2V107.674H141.843V109.2H143.369ZM192.155 109.2H193.681V107.674H192.155V109.2ZM192.155 119.54V121.066H193.681V119.54H192.155ZM154.931 119.54V118.014H153.405V119.54H154.931ZM154.931 136.648H153.405V138.174H154.931V136.648ZM187.925 136.648H189.451V135.122H187.925V136.648ZM187.925 146.988V148.514H189.451V146.988H187.925ZM154.931 146.988V145.462H153.405V146.988H154.931ZM154.931 164.66H153.405V166.186H154.931V164.66ZM192.625 164.66H194.151V163.134H192.625V164.66ZM192.625 175V176.526H194.151V175H192.625ZM144.895 175V109.2H141.843V175H144.895ZM143.369 110.726H192.155V107.674H143.369V110.726ZM190.629 109.2V119.54H193.681V109.2H190.629ZM192.155 118.014H154.931V121.066H192.155V118.014ZM153.405 119.54V136.648H156.457V119.54H153.405ZM154.931 138.174H187.925V135.122H154.931V138.174ZM186.399 136.648V146.988H189.451V136.648H186.399ZM187.925 145.462H154.931V148.514H187.925V145.462ZM153.405 146.988V164.66H156.457V146.988H153.405ZM154.931 166.186H192.625V163.134H154.931V166.186ZM191.099 164.66V175H194.151V164.66H191.099ZM192.625 173.474H143.369V176.526H192.625V173.474ZM220.63 175H219.104V176.526H220.63V175ZM220.63 119.916H222.156V118.39H220.63V119.916ZM199.762 119.916H198.236V121.442H199.762V119.916ZM199.762 109.2V107.674H198.236V109.2H199.762ZM253.154 109.2H254.68V107.674H253.154V109.2ZM253.154 119.916V121.442H254.68V119.916H253.154ZM232.286 119.916V118.39H230.76V119.916H232.286ZM232.286 175V176.526H233.812V175H232.286ZM222.156 175V119.916H219.104V175H222.156ZM220.63 118.39H199.762V121.442H220.63V118.39ZM201.288 119.916V109.2H198.236V119.916H201.288ZM199.762 110.726H253.154V107.674H199.762V110.726ZM251.628 109.2V119.916H254.68V109.2H251.628ZM253.154 118.39H232.286V121.442H253.154V118.39ZM230.76 119.916V175H233.812V119.916H230.76ZM232.286 173.474H220.63V176.526H232.286V173.474Z" fill="#FF8DA9" mask="url(#path-20-outside-2_899_63092)"/>
</svg>
