<svg width="44" height="44" viewBox="0 0 44 44" fill="none" xmlns="http://www.w3.org/2000/svg">
<g clip-path="url(#clip0_982_4370)">
<rect width="44" height="44" fill="white"/>
<path d="M25.6982 33.0001L22.0004 36.6667L8.25039 23.0487C7.34345 22.1662 6.62907 21.1054 6.15223 19.9332C5.67539 18.7611 5.44642 17.5028 5.47974 16.2378C5.51306 14.9728 5.80795 13.7283 6.34584 12.5829C6.88373 11.4374 7.65297 10.4157 8.60511 9.58214C9.55726 8.74857 10.6717 8.12118 11.8782 7.73946C13.0847 7.35775 14.3572 7.22998 15.6156 7.36422C16.8739 7.49845 18.0908 7.89177 19.1897 8.51941C20.2885 9.14705 21.2455 9.99541 22.0004 11.0111C23.4346 9.10172 25.5572 7.8274 27.9167 7.45927C30.2761 7.09115 32.6861 7.6583 34.6337 9.04002C36.5814 10.4217 37.9129 12.509 38.3451 14.8575C38.7772 17.2061 38.2758 19.6306 36.9476 21.6151" fill="#FFCCD6"/>
<path d="M29.3149 36.6675L37.0094 28.9253C37.9611 27.9612 38.4947 26.661 38.4947 25.3063C38.4947 23.9516 37.9611 22.6515 37.0094 21.6873C36.5418 21.2119 35.9844 20.8341 35.3696 20.5758C34.7548 20.3175 34.0948 20.1838 33.428 20.1826C32.7611 20.1815 32.1006 20.3127 31.4849 20.5688C30.8692 20.8249 30.3104 21.2007 29.8411 21.6745L29.3278 22.1915L28.8163 21.6727C28.3487 21.1972 27.7913 20.8194 27.1765 20.5611C26.5616 20.3028 25.9017 20.1692 25.2348 20.168C24.5679 20.1668 23.9075 20.298 23.2917 20.5541C22.676 20.8102 22.1173 21.1861 21.6479 21.6598C20.6946 22.6223 20.1587 23.9215 20.1563 25.2762C20.1539 26.6309 20.6852 27.932 21.6351 28.8978L29.3021 36.6675H29.3149Z" fill="#F670C7"/>
</g>
<defs>
<clipPath id="clip0_982_4370">
<rect width="44" height="44" fill="white"/>
</clipPath>
</defs>
</svg>
