<svg width="14" height="15" viewBox="0 0 14 15" fill="none" xmlns="http://www.w3.org/2000/svg">
<g clip-path="url(#clip0_1904_2566)">
<path d="M5.25195 12.7495V9.24962C5.25195 8.94022 5.37487 8.64349 5.59366 8.4247C5.81245 8.20592 6.1092 8.08301 6.41862 8.08301H7.58529C7.89471 8.08301 8.19145 8.20592 8.41024 8.4247C8.62904 8.64349 8.75195 8.94022 8.75195 9.24962" stroke="#FFFEFE" stroke-width="0.874981" stroke-linecap="round" stroke-linejoin="round"/>
<path d="M11.0843 8.36774V7.49978H12.251L7.00098 2.25L1.75098 7.49978H2.91764V11.5829C2.91764 11.8923 3.04056 12.1891 3.25935 12.4079C3.47814 12.6266 3.77489 12.7496 4.08431 12.7496H6.72389" stroke="#FFFEFE" stroke-width="0.874981" stroke-linecap="round" stroke-linejoin="round"/>
<path d="M8.75146 11.5826L9.91813 12.7492L12.2515 10.416" stroke="#FFFEFE" stroke-width="0.874981" stroke-linecap="round" stroke-linejoin="round"/>
</g>
<defs>
<clipPath id="clip0_1904_2566">
<rect width="14" height="13.9994" fill="white" transform="translate(0 0.500488)"/>
</clipPath>
</defs>
</svg>
