<svg width="21" height="21" viewBox="0 0 21 21" fill="none" xmlns="http://www.w3.org/2000/svg"> <path fill-rule="evenodd" clip-rule="evenodd" d="M10.4999 0.360352C13.2534 0.360352 13.5994 0.371515 14.6804 0.421747C15.5216 0.437842 16.3539 0.597014 17.1417 0.892445C17.815 1.15347 18.4265 1.55201 18.9371 2.06263C19.4478 2.57325 19.8463 3.18473 20.1073 3.85803C20.4021 4.64408 20.5613 5.47449 20.578 6.31384C20.6283 7.39477 20.6394 7.74082 20.6394 10.4943C20.6394 13.2478 20.6283 13.5938 20.578 14.6748C20.5619 15.516 20.4028 16.3484 20.1073 17.1362C19.8463 17.8095 19.4478 18.4209 18.9371 18.9316C18.4265 19.4422 17.815 19.8407 17.1417 20.1017C16.356 20.3985 15.5256 20.5595 14.6859 20.578C13.605 20.6283 13.259 20.6394 10.5055 20.6394C7.75198 20.6394 7.40593 20.6283 6.325 20.578C5.48377 20.5619 4.65142 20.4028 3.8636 20.1073C3.19031 19.8463 2.57883 19.4478 2.06821 18.9371C1.55759 18.4265 1.15905 17.815 0.898029 17.1417C0.601314 16.356 0.440257 15.5256 0.421744 14.6859C0.371512 13.605 0.360352 13.259 0.360352 10.5055C0.360352 7.75198 0.371512 7.40593 0.421744 6.325C0.437839 5.48377 0.597012 4.65142 0.892442 3.86361C1.15282 3.18928 1.55107 2.57671 2.06172 2.0651C2.57237 1.55349 3.18418 1.15409 3.85802 0.892445C4.64407 0.597635 5.47449 0.438473 6.31384 0.421747C7.40035 0.371515 7.7464 0.360352 10.4999 0.360352ZM14.5929 2.24686C13.525 2.19849 13.2031 2.18733 10.4999 2.18733C7.79663 2.18733 7.47105 2.19849 6.40686 2.24686C5.76286 2.25346 5.12476 2.3705 4.52035 2.59291C4.0823 2.76179 3.68449 3.02055 3.35252 3.35252C3.02055 3.68449 2.76179 4.08231 2.59291 4.52035C2.37029 5.12348 2.25262 5.76028 2.245 6.40314C2.19663 7.47105 2.18547 7.79291 2.18547 10.4962C2.18547 13.1994 2.19663 13.525 2.245 14.5892C2.25177 15.2345 2.36945 15.8739 2.59291 16.4794C2.76179 16.9175 3.02055 17.3153 3.35252 17.6473C3.68449 17.9792 4.0823 18.238 4.52035 18.4069C5.12348 18.6295 5.76029 18.7472 6.40314 18.7548C7.47105 18.8031 7.79291 18.8143 10.4962 18.8143C13.1994 18.8143 13.525 18.8031 14.5892 18.7548C15.2346 18.748 15.8739 18.6303 16.4794 18.4069C16.9175 18.238 17.3153 17.9792 17.6473 17.6473C17.9792 17.3153 18.238 16.9175 18.4069 16.4794C18.6295 15.8763 18.7472 15.2395 18.7548 14.5966C18.8031 13.5287 18.8143 13.2069 18.8143 10.5036C18.8143 7.80035 18.8031 7.47477 18.7548 6.41058C18.748 5.76522 18.6303 5.12583 18.4069 4.52035C18.238 4.08231 17.9792 3.68449 17.6473 3.35252C17.3153 3.02055 16.9175 2.76179 16.4794 2.59291C15.8762 2.37092 15.2394 2.25388 14.5966 2.24686H14.5929ZM10.4999 13.8804C11.1685 13.8804 11.8221 13.6821 12.378 13.3106C12.9339 12.9392 13.3672 12.4112 13.623 11.7935C13.8789 11.1758 13.9458 10.4961 13.8154 9.84039C13.685 9.18464 13.363 8.5823 12.8902 8.10954C12.4175 7.63677 11.8151 7.31481 11.1594 7.18438C10.5036 7.05394 9.82394 7.12088 9.20624 7.37674C8.58854 7.6326 8.06059 8.06589 7.68914 8.6218C7.31768 9.17772 7.11942 9.83129 7.11942 10.4999C7.11991 11.3963 7.47623 12.2558 8.11008 12.8897C8.74393 13.5235 9.60348 13.8799 10.4999 13.8804ZM10.4999 5.29245C11.5302 5.29245 12.5374 5.59796 13.394 6.17037C14.2507 6.74278 14.9184 7.55636 15.3127 8.50823C15.7069 9.46011 15.8101 10.5075 15.6091 11.518C15.4081 12.5285 14.912 13.4567 14.1834 14.1853C13.4549 14.9138 12.5267 15.41 11.5162 15.611C10.5057 15.812 9.45825 15.7088 8.50637 15.3145C7.55449 14.9202 6.74091 14.2525 6.16851 13.3959C5.5961 12.5392 5.29058 11.5321 5.29058 10.5017C5.29058 9.12015 5.83942 7.79515 6.81636 6.81821C7.79329 5.84128 9.11829 5.29245 10.4999 5.29245ZM17.1287 5.08779C17.1287 5.32844 17.0574 5.56369 16.9237 5.76378C16.79 5.96387 16.5999 6.11983 16.3776 6.21192C16.1553 6.30401 15.9106 6.32811 15.6746 6.28116C15.4386 6.23421 15.2218 6.11833 15.0516 5.94816C14.8814 5.778 14.7656 5.56119 14.7186 5.32517C14.6717 5.08914 14.6958 4.8445 14.7879 4.62217C14.8799 4.39983 15.0359 4.20981 15.236 4.07611C15.4361 3.94241 15.6713 3.87105 15.912 3.87105C16.2347 3.87105 16.5442 3.99924 16.7723 4.22743C17.0005 4.45561 17.1287 4.76509 17.1287 5.08779Z" fill="currentColor"/> </svg>