<svg width="20" height="20" viewBox="0 0 20 20" fill="none" xmlns="http://www.w3.org/2000/svg">
<path d="M15 15.7167H14.3667C13.7 15.7167 13.0667 15.975 12.6 16.4417L11.175 17.85C10.525 18.4917 9.46666 18.4917 8.81666 17.85L7.39166 16.4417C6.925 15.975 6.28333 15.7167 5.625 15.7167H5C3.61667 15.7167 2.5 14.6084 2.5 13.2417V4.15002C2.5 2.78336 3.61667 1.67505 5 1.67505H15C16.3833 1.67505 17.5 2.78336 17.5 4.15002V13.2417C17.5 14.6001 16.3833 15.7167 15 15.7167Z" stroke="#393A3A" stroke-miterlimit="10" stroke-linecap="round" stroke-linejoin="round"/>
<path d="M10.2333 12.4667C10.1083 12.5084 9.9 12.5084 9.76667 12.4667C8.68333 12.0917 6.25 10.55 6.25 7.92505C6.25 6.76672 7.18333 5.83337 8.33333 5.83337C9.01667 5.83337 9.61667 6.15837 10 6.66671C10.3833 6.15837 10.9833 5.83337 11.6667 5.83337C12.8167 5.83337 13.75 6.76672 13.75 7.92505C13.7417 10.55 11.3167 12.0917 10.2333 12.4667Z" fill="#FF8DA9" stroke="#393A3A" stroke-linecap="round" stroke-linejoin="round"/>
</svg>
