<svg width="104" height="81" viewBox="0 0 104 81" fill="none" xmlns="http://www.w3.org/2000/svg">
<path d="M37.855 0.0304264C33.0762 0.408347 28.942 2.68186 26.6106 6.21709C24.7476 9.0453 24.1814 12.7634 25.0152 16.6522C26.2937 22.5952 30.4644 28.8489 38.5308 36.9371C41.5143 39.9236 44.7165 42.8923 51.1031 48.5975L51.8638 49.28L51.9368 48.6766C52.2962 45.6046 54.7619 42.3986 61.0873 36.7785C61.6717 36.2606 63.2731 34.8466 64.6488 33.6457C66.0187 32.4388 67.5958 31.0368 68.1496 30.5312C75.0412 24.2409 78.2316 19.8156 79.0594 15.3904C79.2361 14.464 79.2484 12.7756 79.084 11.7333C78.6758 9.08187 77.6412 6.79615 75.9791 4.86394C73.7874 2.31614 70.4692 0.60949 66.7492 0.115775C65.8424 -6.48797e-05 63.9488 -0.0183503 63.0662 0.0852842C60.6005 0.377856 58.3659 1.17635 56.4664 2.43806C55.6628 2.97443 55.1395 3.40108 54.3966 4.13251C53.6418 4.88223 53.124 5.51007 52.5642 6.3695C52.3327 6.72301 52.1076 7.05823 52.0647 7.11921C51.9916 7.21672 51.9551 7.18015 51.6811 6.72909C49.5141 3.14508 45.6297 0.700919 41.1791 0.127935C40.2659 0.0121405 38.7075 -0.0366366 37.855 0.0304264ZM42.3239 3.38892C45.3863 3.71806 48.2657 5.09558 50.2081 7.15578C50.7195 7.70436 51.4072 8.59423 51.7241 9.12452C51.8578 9.35007 51.9798 9.53901 51.9857 9.53901C51.998 9.53901 52.1318 9.33787 52.2839 9.09407C53.9459 6.41823 56.5824 4.52264 59.7421 3.71807C60.722 3.46814 61.4343 3.37672 62.5849 3.34015C64.2169 3.29137 65.562 3.46206 67.0232 3.90092C71.3765 5.22358 74.4449 8.52109 75.3033 12.8C75.8024 15.2807 75.5284 17.2861 74.3595 19.6754C72.929 22.6194 70.1952 25.7888 65.4707 29.9885C64.6123 30.7506 58.8106 35.7668 58.4024 36.1019L58.2321 36.2423L58.1896 36.0105C57.9339 34.5234 57.5623 32.9933 56.8134 30.3543C55.7605 26.6116 55.3157 24.6491 55.176 23.1314C55.1395 22.6802 55.0966 22.3026 55.0906 22.2962C55.0847 22.2843 54.9322 22.3209 54.7559 22.3757C54.5244 22.4425 54.3359 22.5645 54.0984 22.784L53.7633 23.1008L53.9217 22.7963C54.1715 22.3026 54.6158 21.754 55.0176 21.4491C55.5838 21.0162 56.2413 20.736 57.5869 20.3581C59.0234 19.9436 59.5713 19.712 59.9855 19.3219C60.3814 18.9562 60.5882 18.5112 60.6736 17.8651C60.7284 17.4384 60.722 17.2556 60.6247 16.6339C60.4786 15.7013 60.4909 15.0674 60.6855 14.0556C60.8745 13.0864 60.8804 12.7085 60.7284 12.3611C60.4663 11.7942 59.8759 11.7028 58.1043 11.9466C56.5212 12.1661 54.5002 12.2209 53.4893 12.0746C52.8318 11.9771 51.9734 11.7577 52.0345 11.6967C52.0464 11.6784 52.2355 11.6419 52.4482 11.6114C52.6615 11.5748 52.9295 11.5322 53.045 11.5139L53.2459 11.4834L52.8318 11.2213C52.6007 11.075 52.0588 10.7154 51.6204 10.4228C50.6647 9.77065 49.7999 9.34395 49.0634 9.16109C48.6127 9.05138 48.3511 9.02701 47.5717 9.03309C46.5187 9.03309 46.0498 9.11236 45.0329 9.44758C41.7453 10.5386 38.9874 13.8179 38.9874 16.6278C38.9874 17.7249 39.2678 18.4076 39.992 19.1025C40.6983 19.7729 41.033 19.8948 43.091 20.2667C44.0407 20.4373 44.5886 20.6507 45.6174 21.2722C46.0804 21.5529 46.5977 21.8514 46.7621 21.9369L47.0726 22.0891L47.2246 21.7417C47.4685 21.1931 47.5351 20.8882 47.5292 20.2667C47.5292 19.2731 47.2552 18.6087 46.0133 16.6034C45.106 15.1344 44.8201 14.5249 44.6252 13.6838C44.479 13.056 44.485 13.0621 45.1672 14.2507C45.6904 15.1649 46.2082 15.9573 46.689 16.579C47.5781 17.7249 48.3146 19.0354 48.5095 19.8461C48.631 20.3398 48.6374 21.2845 48.5155 21.7293C48.3452 22.3817 48.0041 22.9426 47.4319 23.5277L46.8899 24.0763L46.7014 23.8322C45.8671 22.7716 45.0028 22.144 43.8339 21.7293C43.2795 21.5405 41.6604 21.1808 41.3376 21.1808H41.1609L41.1974 21.498C41.2157 21.6745 41.2828 22.7963 41.3376 23.9849L41.4472 26.1485L41.149 27.0322C40.6312 28.5865 39.992 29.9885 39.2554 31.1831C38.8961 31.7623 37.9221 33.1031 37.7637 33.2311C37.6847 33.2983 37.5692 33.1885 37.0213 32.5545C32.51 27.3495 29.7886 22.7108 28.79 18.5295C28.4188 16.9691 28.364 16.4998 28.364 14.7504C28.364 12.9767 28.443 12.3977 28.8448 11.1664C30.2511 6.8815 34.3181 3.8948 39.4746 3.36451C39.9737 3.30965 41.7759 3.32794 42.3239 3.38892ZM50.683 12.8731C50.8775 13.0682 51.0907 13.2449 51.1455 13.2632C51.2734 13.312 51.3464 13.2815 50.415 13.5619C49.8976 13.7204 49.6967 13.7508 49.4529 13.7264C49.2885 13.7082 49.1241 13.6716 49.094 13.6533C49.0209 13.6107 49.2766 13.2632 49.7086 12.8182C50.0862 12.416 50.22 12.4282 50.683 12.8731ZM51.9615 21.6809C52.0953 21.888 52.2597 22.2477 52.3327 22.4855C52.4482 22.8631 52.4546 23.0034 52.43 23.8935L52.3934 24.8809L52.5884 24.9906C52.9414 25.2036 53.3432 25.6306 53.4774 25.9474C53.5505 26.1179 53.6236 26.4471 53.6418 26.6912L53.6783 27.13L53.94 27.2397C54.0861 27.3005 54.3295 27.4592 54.482 27.5931L54.7678 27.8432L54.7253 28.1842C54.555 29.562 53.6902 30.7076 52.2779 31.4089L51.9067 31.5977L52.4364 32.7437C53.7514 35.5657 54.1957 37.12 54.1286 38.6926C54.0984 39.5826 53.8975 40.5088 53.6843 40.7648C53.6053 40.8562 53.5199 40.9358 53.4957 40.9358C53.471 40.9358 53.4044 40.7346 53.3496 40.4905C53.2583 40.0763 53.2459 40.058 53.2153 40.2592C53.1971 40.3748 53.1605 40.698 53.1423 40.9783C53.1121 41.466 53.0998 41.4962 52.7953 41.9049C52.6249 42.1426 52.4788 42.3255 52.4665 42.3191C52.4606 42.3072 52.4912 42.1179 52.5336 41.8926C52.6921 41.1369 52.7405 40.2345 52.7039 38.6135C52.6738 37.12 52.6797 37.0043 52.7711 37.0958C52.9231 37.2356 53.2642 38.0708 53.4226 38.6802C53.5016 38.9792 53.587 39.2228 53.6112 39.2228C53.6418 39.2228 53.6601 38.8937 53.6601 38.4855C53.6601 36.9796 53.1911 35.4619 51.8578 32.6217C51.4866 31.8354 51.3588 31.61 51.2857 31.6402C51.1396 31.7015 50.3296 31.744 50.2081 31.6951C50.1287 31.6649 50.2629 31.61 50.6465 31.5122C52.6126 31.0066 53.9158 29.8729 54.208 28.416C54.2929 27.9771 54.2747 27.9465 53.6601 27.648L53.2035 27.4226L53.1669 26.88C53.1487 26.5751 53.0875 26.234 53.0391 26.1179C52.9354 25.8743 52.6067 25.5575 52.1807 25.2951L51.882 25.1122L51.925 24.5883C52.0282 23.2228 51.9551 22.5645 51.6387 22.0525C51.535 21.882 51.5049 21.8637 51.3706 21.9122C50.7255 22.1622 50.1287 22.9179 49.8488 23.8322C49.788 24.0333 49.7209 24.2285 49.6903 24.2651C49.6661 24.3017 49.4287 24.3506 49.173 24.3689C48.3511 24.4297 47.5109 24.7771 47.5109 25.0573C47.5109 25.1003 47.6264 25.2466 47.7607 25.3746C47.9004 25.5026 48.0041 25.6365 47.9917 25.6731C47.9799 25.7037 47.6812 25.5757 47.3342 25.3805C46.0986 24.6916 44.6558 24.1312 43.9371 24.064L43.5352 24.0274L43.5782 24.4603C43.7243 25.9597 44.5886 27.4409 45.9096 28.4891C46.19 28.7026 46.4027 28.8914 46.3968 28.9037C46.3543 28.9463 45.7028 28.7209 45.5507 28.6048L45.3799 28.4891V29.4642C45.3799 31.1895 45.2338 31.7499 44.6311 32.3232C44.2293 32.7008 43.7608 32.9385 42.2814 33.5177C41.1791 33.9506 39.8093 34.5966 39.4623 34.8402C39.3774 34.9074 39.2796 34.9563 39.2554 34.9563C39.1947 34.9563 38.9267 34.7063 38.9267 34.6455C38.9267 34.5965 39.5965 34.1943 40.1445 33.92C40.7043 33.6334 41.3741 33.3531 42.4517 32.9385C43.5416 32.5179 44.0466 32.256 44.3512 31.9268C44.8137 31.4455 44.8932 31.0674 44.8932 29.4217V28.2331L44.6311 27.9223C43.6814 26.8068 43.1458 25.5209 43.1092 24.2957L43.0969 23.7165L43.4015 23.6311C43.9617 23.4665 44.9599 23.7165 46.4027 24.3689L47.1214 24.698L47.3708 24.4786C47.657 24.2162 48.205 24.0151 48.8625 23.9117C49.3314 23.8445 49.3374 23.8386 49.4045 23.6251C49.5565 23.1437 49.9826 22.4242 50.3177 22.0832C50.6341 21.76 51.4012 21.3028 51.6327 21.3028C51.6811 21.3028 51.8213 21.4733 51.9615 21.6809ZM47.578 41.1488C47.5109 41.4478 47.4255 41.9109 47.3831 42.1792C47.2858 42.8494 47.2735 42.8617 46.9936 42.618L46.7562 42.4105L46.8657 42.112C46.9813 41.7952 47.6447 40.5518 47.6753 40.5883C47.6876 40.6002 47.6447 40.8503 47.578 41.1488Z" fill="#FD0E8D"/>
<path d="M19.3496 61.2123C18.1095 63.9084 16.9616 66.3662 16.7959 66.6759C16.2493 67.7352 15.8132 68.1758 15.1626 68.3124C15.0028 68.3423 14.96 68.3838 14.96 68.4972V68.64H19.0733V68.503C19.0733 68.3722 19.0365 68.3543 18.5824 68.2945C17.999 68.2115 17.7596 68.1043 17.5998 67.8481C17.3544 67.4674 17.4465 66.9732 17.9746 65.8126L18.226 65.2475H22.6649L23.0949 66.2117C23.3279 66.7474 23.5554 67.3067 23.5982 67.4674C23.7456 68.0329 23.4937 68.2708 22.6897 68.3244C22.2293 68.3601 22.2044 68.3659 22.2044 68.4972V68.64H28.16V68.503C28.16 68.3838 28.1107 68.3543 27.8404 68.2829C27.3431 68.1637 27.0365 67.8124 26.5208 66.7831C26.2813 66.3126 25.1145 63.7714 23.9173 61.1288C22.7201 58.4805 21.7136 56.32 21.6767 56.32C21.6399 56.32 20.596 58.522 19.3496 61.2123ZM21.4308 62.5215C21.9222 63.6227 22.3274 64.5391 22.3274 64.557C22.3274 64.5748 21.4861 64.5927 20.4547 64.5927C19.4232 64.5927 18.5824 64.5748 18.5824 64.5512C18.5824 64.4378 20.4611 60.4383 20.4979 60.474C20.5224 60.4981 20.94 61.4203 21.4308 62.5215Z" fill="#FD0E8D"/>
<path d="M0 56.4664C0 56.6009 0.0249062 56.6127 0.485953 56.6374C0.841072 56.6557 1.04045 56.7042 1.23357 56.8081C1.75069 57.0949 1.71331 56.6374 1.732 62.3579C1.74443 66.8346 1.73821 67.4809 1.65098 67.7005C1.48902 68.1213 1.05914 68.3349 0.361332 68.3349C0.0186891 68.3349 0 68.3408 0 68.4872V68.64H6.54167V68.4872C6.54167 68.3408 6.52919 68.3349 6.13669 68.3349C5.47631 68.3349 4.98414 68.0545 4.85952 67.609C4.82214 67.4809 4.79724 66.4078 4.79724 65.0539V62.7238H9.28295L9.27669 64.9317C9.27669 66.1517 9.25178 67.2796 9.22688 67.4384C9.12716 68.0298 8.77831 68.286 7.99331 68.3226C7.5011 68.3473 7.47619 68.3591 7.47619 68.4936V68.64H14.08V68.4936C14.08 68.3532 14.0613 68.3473 13.5567 68.3226C13.1207 68.2983 12.9899 68.2677 12.7782 68.1336C12.2736 67.8043 12.3044 68.2009 12.3044 62.5107C12.3044 57.6557 12.3109 57.4361 12.4231 57.2165C12.6161 56.8323 12.9338 56.6676 13.5567 56.6374C14.0613 56.6127 14.08 56.6068 14.08 56.4664V56.32H7.47619V56.4664C7.47619 56.6068 7.49488 56.6127 8.00574 56.6374C8.46679 56.6617 8.57271 56.6859 8.80322 56.8447C9.258 57.1557 9.25179 57.1132 9.27048 59.6564L9.29538 61.9311H4.79098L4.82836 57.3144L5.00283 57.0949C5.24581 56.7774 5.50121 56.6676 6.06193 56.6374C6.51676 56.6127 6.54167 56.6009 6.54167 56.4664V56.32H0V56.4664Z" fill="#FD0E8D"/>
<path d="M28.16 56.4664C28.16 56.6009 28.1848 56.6068 28.6582 56.6434C29.4499 56.7042 29.7986 56.9668 29.8734 57.5523C29.8921 57.7288 29.9047 60.0708 29.8921 62.7544C29.8734 68.2311 29.9108 67.8043 29.406 68.1277C29.213 68.2494 29.0634 68.2924 28.6648 68.3166C28.1848 68.3532 28.16 68.3591 28.16 68.4936V68.64H34.5784V68.4936C34.5784 68.3591 34.5536 68.3532 34.0923 68.3166C33.3945 68.2741 33.0267 68.0481 32.8958 67.5971C32.8584 67.4809 32.8337 66.4444 32.8337 65.2121V63.0289H33.6623C34.111 63.0289 34.7405 62.9983 35.0457 62.9681C36.8778 62.7604 38.093 61.9736 38.579 60.6746C38.766 60.1687 38.766 59.1258 38.5851 58.6318C38.2238 57.6739 37.4573 56.997 36.323 56.631C35.457 56.3566 34.8901 56.32 31.419 56.32H28.16V56.4664ZM33.8245 57.0519C35.0705 57.2531 35.6753 58.1131 35.6566 59.6806C35.644 61.0103 35.2574 61.7664 34.3914 62.163C34.1171 62.2911 33.9301 62.3277 33.4441 62.346L32.8337 62.3702V56.991H33.1328C33.2945 56.991 33.6062 57.0217 33.8245 57.0519Z" fill="#FD0E8D"/>
<path d="M39.6 56.4664C39.6 56.6009 39.6247 56.6068 40.0903 56.6434C40.6304 56.68 41.0154 56.8387 41.1891 57.1008C41.3632 57.357 41.3939 58.2777 41.3939 62.48C41.3939 66.6823 41.3632 67.603 41.1891 67.8592C41.0154 68.1213 40.6304 68.28 40.0903 68.3166C39.6247 68.3532 39.6 68.3591 39.6 68.4936V68.64H45.994V68.4936C45.994 68.3591 45.9693 68.3473 45.541 68.3226C44.79 68.2741 44.4235 68.0179 44.3118 67.475C44.2871 67.3286 44.262 66.2674 44.2559 65.1147V63.0289H45.1126C47.1053 63.0289 48.3285 62.6753 49.1972 61.8579C49.992 61.1078 50.3212 60.0283 50.0851 58.9305C49.8556 57.8693 48.8993 56.9544 47.658 56.6009C46.7827 56.3566 46.2114 56.32 42.8466 56.32H39.6V56.4664ZM45.2802 57.0583C46.0005 57.1863 46.522 57.5523 46.8013 58.1131C47.0681 58.6377 47.1612 59.4062 47.062 60.1806C46.9317 61.2358 46.6151 61.7605 45.9074 62.1141C45.5284 62.303 45.4232 62.3277 44.8705 62.346L44.2559 62.3702V56.991H44.5851C44.7648 56.991 45.0814 57.0217 45.2802 57.0583Z" fill="#FD0E8D"/>
<path d="M51.04 56.4604C51.04 56.5826 51.0893 56.6127 51.4084 56.674C52.1143 56.8204 52.2063 56.9604 54.5579 61.2116L56.1359 64.0595V65.6636C56.1359 67.3286 56.0991 67.6396 55.9025 67.9017C55.6754 68.2068 55.4236 68.2983 54.7421 68.3226C54.1219 68.3473 54.1099 68.3532 54.1099 68.4936V68.64H61.1089V68.4936C61.1089 68.3532 61.0964 68.3473 60.4702 68.3226C59.8993 68.3043 59.8131 68.286 59.5801 68.1336C59.1441 67.8468 59.1317 67.7737 59.0948 65.5781L59.0644 63.645L60.6484 61.0039C62.2015 58.4182 62.668 57.6739 63.0244 57.2289C63.233 56.9727 63.675 56.7166 64.0125 56.6557C64.1967 56.6192 64.24 56.5885 64.24 56.4664V56.32H60.4334V56.4664C60.4334 56.5945 60.4702 56.6127 60.7893 56.6557C61.305 56.7166 61.649 56.8813 61.7471 57.1191C61.8207 57.2897 61.8207 57.3629 61.7411 57.6255C61.6062 58.0765 61.5325 58.2045 60.0774 60.632C59.058 62.3277 58.7329 62.8276 58.6777 62.7668C58.61 62.6936 56.3569 58.5888 56.0558 57.9973C55.9761 57.8267 55.8596 57.5582 55.8044 57.3936C55.7123 57.1191 55.7123 57.0825 55.7979 56.9485C55.9333 56.7408 56.2464 56.6251 56.6576 56.6251C56.9767 56.6251 56.9951 56.6192 56.9951 56.4728V56.32H51.04V56.4604Z" fill="#FD0E8D"/>
<path d="M68.64 56.4664C68.64 56.6009 68.6647 56.6068 69.1247 56.6434C69.6713 56.68 70.0506 56.8323 70.2184 57.0825C70.4048 57.3629 70.4421 58.1863 70.4421 62.48C70.4421 66.8222 70.4048 67.6154 70.2119 67.8715C70.0068 68.1396 69.6652 68.286 69.1307 68.3166C68.6647 68.3532 68.64 68.3591 68.64 68.4936V68.64H75.0398V68.4936C75.0398 68.3591 75.0151 68.3473 74.5864 68.3226C73.8347 68.2741 73.468 68.0179 73.3561 67.475C73.3314 67.3286 73.3063 66.2733 73.3002 65.1271V63.0472L74.5305 63.0106C75.9099 62.974 76.5684 62.8459 77.3699 62.4741C78.1901 62.0834 78.8924 61.2724 79.1161 60.4431C79.228 60.0466 79.228 59.2475 79.1161 58.8513C78.8304 57.7961 77.9231 56.9485 76.7054 56.6009C75.8293 56.3566 75.2575 56.32 71.8895 56.32H68.64V56.4664ZM74.3254 57.0583C75.6242 57.2897 76.2454 58.2718 76.1396 59.9185C76.0651 61.0835 75.7048 61.7541 74.9406 62.12C74.5738 62.297 74.4499 62.3277 73.9093 62.346L73.3002 62.3702V56.991H73.6297C73.8096 56.991 74.1264 57.0217 74.3254 57.0583Z" fill="#FD0E8D"/>
<path d="M80.08 56.4664C80.08 56.6009 80.1047 56.6127 80.571 56.6374C81.3544 56.68 81.7275 56.9421 81.8273 57.5216C81.8953 57.9182 81.8953 66.798 81.8273 67.3103C81.7275 68.0362 81.4356 68.28 80.5962 68.3226C80.1047 68.3473 80.08 68.3591 80.08 68.4936V68.64L85.5326 68.6276L90.9856 68.6094L91.2528 66.7797C91.396 65.7734 91.5139 64.9011 91.52 64.8403C91.52 64.773 91.4706 64.7364 91.3708 64.7364C91.2467 64.7364 91.2094 64.7913 91.1162 65.0539C90.7179 66.2674 90.0092 67.115 89.0019 67.5788C88.3617 67.8715 87.7774 67.969 86.6084 67.969C85.4831 67.969 85.284 67.92 85.0476 67.5971L84.8984 67.3894L84.8611 62.7238H85.0975C85.5139 62.7238 86.0674 62.8459 86.3412 63.0047C86.8508 63.291 87.2924 64.0535 87.4603 64.9317C87.5163 65.2121 87.5657 65.4747 87.5783 65.5113C87.5909 65.5538 87.6715 65.5904 87.7587 65.5904H87.914V59.1194L87.7461 59.1377C87.5909 59.156 87.5783 59.1807 87.4976 59.644C87.4538 59.9125 87.3544 60.2968 87.2859 60.498C86.9068 61.5345 86.3845 61.9553 85.3647 62.0349L84.8676 62.0715V56.9727L86.2852 57.0093C88.1066 57.0459 88.5916 57.174 89.3004 57.7837C89.6487 58.0829 90.0157 58.7841 90.1896 59.4734C90.2955 59.8942 90.3141 59.9185 90.4755 59.9185H90.6499V56.32H80.08V56.4664Z" fill="#FD0E8D"/>
<path d="M92.4 59.6134H92.5509C92.6829 59.6134 92.7144 59.5649 92.8021 59.199C92.9469 58.6501 93.2424 58.0765 93.5753 57.7229C94.0655 57.1923 94.7133 56.991 95.939 56.991H96.5485L96.5358 62.3153L96.5169 67.6456L96.3411 67.8651C96.0898 68.1885 95.8447 68.2924 95.2474 68.3226C94.751 68.3473 94.7255 68.3591 94.7255 68.4936V68.64H101.389V68.4872C101.389 68.3408 101.376 68.3349 100.955 68.3349C100.383 68.3349 99.9239 68.1153 99.7292 67.7554C99.5972 67.5116 99.5972 67.475 99.5972 62.2664V57.0217L100.54 57.0276C101.37 57.0276 101.521 57.0459 101.791 57.1616C102.526 57.485 102.973 58.028 103.287 58.9854C103.482 59.5832 103.501 59.6134 103.67 59.6134H103.84V56.32H92.4V59.6134Z" fill="#FD0E8D"/>
<path d="M4.4 77.562V76.8055H12.1987V77.562H4.4Z" fill="#393A3A"/>
<path d="M15.0857 79.3791V73.92H18.9383L18.9305 74.9494H16.045L16.3335 74.6609L16.3413 79.3791H15.0857Z" fill="#393A3A"/>
<path d="M19.7086 79.3791V73.92H22.0716C22.5603 73.92 22.9814 74.0006 23.335 74.1618C23.6885 74.3177 23.9615 74.5439 24.1538 74.8402C24.3462 75.1366 24.4424 75.4901 24.4424 75.9009C24.4424 76.3064 24.3462 76.6573 24.1538 76.9537C23.9615 77.25 23.6885 77.4788 23.335 77.64C22.9814 77.7959 22.5603 77.8739 22.0716 77.8739H20.4105L20.972 77.3046V79.3791H19.7086ZM20.972 77.445L20.4105 76.8445H22.0014C22.3913 76.8445 22.6825 76.7613 22.8748 76.5949C23.0672 76.4286 23.1634 76.1972 23.1634 75.9009C23.1634 75.5993 23.0672 75.3654 22.8748 75.199C22.6825 75.0326 22.3913 74.9494 22.0014 74.9494H20.4105L20.972 74.3489V77.445Z" fill="#393A3A"/>
<path d="M25.3411 78.3496C25.6427 78.438 25.8948 78.464 26.0976 78.4276C26.3055 78.386 26.4901 78.2405 26.6513 77.9909L26.9164 77.5932L27.0334 77.4606L28.8427 73.92H30.0827L27.7587 78.2405C27.5507 78.6304 27.3038 78.9293 27.0178 79.1373C26.7371 79.3453 26.4277 79.4622 26.0898 79.4882C25.7518 79.5194 25.4009 79.4596 25.037 79.3089L25.3411 78.3496ZM27.01 78.5134L24.5456 73.92H25.8948L27.7041 77.5854L27.01 78.5134Z" fill="#393A3A"/>
<path d="M30.6831 79.3791V73.92H31.7281L34.0521 77.7725H33.4984L35.7834 73.92H36.8284L36.8362 79.3791H35.6508L35.643 75.7371H35.8692L34.0365 78.802H33.475L31.6033 75.7371H31.8685V79.3791H30.6831Z" fill="#393A3A"/>
<path d="M38.1923 79.3791V73.92H39.4479V77.4762L42.0527 73.92H43.2381V79.3791H41.9903V75.8307L39.3855 79.3791H38.1923Z" fill="#393A3A"/>
<path d="M48.3406 73.92H49.604V79.3791H48.3406V73.92ZM45.8607 79.3791H44.5973V73.92H45.8607V79.3791ZM48.4342 77.1408H45.7671V76.0724H48.4342V77.1408Z" fill="#393A3A"/>
<path d="M50.9718 79.3791V73.92H54.8243L54.8165 74.9494H51.931L52.2196 74.6609L52.2273 79.3791H50.9718Z" fill="#393A3A"/>
<path d="M57.8032 79.3791V73.92H59.0588V78.3496H61.492V73.92H62.7476V79.3791H57.8032ZM62.3654 80.5333V79.0827L62.6384 79.3791H61.492V78.3496H63.5274V80.5333H62.3654Z" fill="#393A3A"/>
<path d="M65.5225 76.1192H68.1506V77.1019H65.5225V76.1192ZM65.6161 78.3652H68.5873V79.3791H64.3605V73.92H68.486V74.9338H65.6161V78.3652Z" fill="#393A3A"/>
<path d="M73.3512 73.92H74.6146V79.3791H73.3512V73.92ZM70.8712 79.3791H69.6078V73.92H70.8712V79.3791ZM73.4448 77.1408H70.7776V76.0724H73.4448V77.1408Z" fill="#393A3A"/>
<path d="M77.1599 79.3791V74.6609L77.4484 74.9494H75.4208V73.92H80.1546V74.9494H78.1269L78.4077 74.6609V79.3791H77.1599Z" fill="#393A3A"/>
<path d="M80.9479 79.3791V73.92H83.3109C83.7996 73.92 84.2207 74.0006 84.5742 74.1618C84.9278 74.3177 85.2007 74.5439 85.3931 74.8402C85.5855 75.1366 85.6816 75.4901 85.6816 75.9009C85.6816 76.3064 85.5855 76.6573 85.3931 76.9537C85.2007 77.25 84.9278 77.4788 84.5742 77.64C84.2207 77.7959 83.7996 77.8739 83.3109 77.8739H81.6497L82.2112 77.3046V79.3791H80.9479ZM82.2112 77.445L81.6497 76.8445H83.2407C83.6306 76.8445 83.9217 76.7613 84.1141 76.5949C84.3065 76.4286 84.4027 76.1972 84.4027 75.9009C84.4027 75.5993 84.3065 75.3654 84.1141 75.199C83.9217 75.0326 83.6306 74.9494 83.2407 74.9494H81.6497L82.2112 74.3489V77.445Z" fill="#393A3A"/>
<path d="M88.1213 77.562V76.8055H95.92V77.562H88.1213Z" fill="#393A3A"/>
</svg>
