<svg width="51" height="69" viewBox="0 0 51 69" fill="none" xmlns="http://www.w3.org/2000/svg">
<rect width="51" height="51" rx="25.5" fill="#FF76BF"/>
<rect width="51" height="51" rx="25.5" fill="#FF76BF"/>
<rect width="51" height="51" rx="25.5" fill="#FF76BF"/>
<rect width="51" height="51" rx="25.5" fill="#FF76BF"/>
<path d="M17.2629 12.7692C14.2477 13.0076 11.6392 14.4421 10.1682 16.6727C8.99271 18.4572 8.63546 20.8031 9.16153 23.2568C9.96822 27.0066 12.5997 30.9524 17.6893 36.0557C19.5718 37.9401 21.5922 39.8132 25.6219 43.4129L26.1018 43.8435L26.1479 43.4628C26.3747 41.5245 27.9304 39.5017 31.9215 35.9556C32.2902 35.6288 33.3006 34.7367 34.1686 33.979C35.0329 33.2175 36.028 32.3329 36.3775 32.0139C40.7258 28.0449 42.7388 25.2528 43.2611 22.4607C43.3726 21.8761 43.3804 20.8108 43.2766 20.1532C43.0191 18.4803 42.3662 17.0381 41.3176 15.8189C39.9347 14.2114 37.8411 13.1346 35.4939 12.823C34.9217 12.75 33.727 12.7384 33.1701 12.8038C31.6143 12.9884 30.2044 13.4922 29.0059 14.2883C28.4988 14.6267 28.1687 14.8959 27.6999 15.3574C27.2237 15.8305 26.897 16.2266 26.5438 16.7689C26.3977 16.9919 26.2557 17.2034 26.2286 17.2419C26.1825 17.3034 26.1595 17.2804 25.9866 16.9958C24.6193 14.7344 22.1684 13.1922 19.3603 12.8307C18.7841 12.7577 17.8008 12.7269 17.2629 12.7692ZM20.0826 14.8883C22.0148 15.0959 23.8316 15.9651 25.0572 17.265C25.3799 17.6111 25.8137 18.1726 26.0137 18.5072C26.0981 18.6495 26.175 18.7687 26.1788 18.7687C26.1865 18.7687 26.2709 18.6418 26.3669 18.488C27.4156 16.7996 29.0791 15.6036 31.0727 15.0959C31.691 14.9382 32.1404 14.8806 32.8664 14.8575C33.8961 14.8267 34.7448 14.9344 35.6668 15.2113C38.4135 16.0459 40.3495 18.1264 40.8912 20.8262C41.2061 22.3915 41.0332 23.6568 40.2957 25.1643C39.3931 27.0219 37.6682 29.0216 34.6872 31.6715C34.1456 32.1523 30.485 35.3173 30.2274 35.5288L30.12 35.6173L30.0932 35.4711C29.9318 34.5328 29.6973 33.5674 29.2248 31.9022C28.5605 29.5408 28.2799 28.3025 28.1917 27.3449C28.1687 27.0602 28.1416 26.822 28.1378 26.8179C28.1341 26.8104 28.0379 26.8335 27.9267 26.8681C27.7806 26.9102 27.6616 26.9872 27.5118 27.1257L27.3003 27.3256L27.4003 27.1335C27.5579 26.822 27.8382 26.4758 28.0917 26.2835C28.449 26.0103 28.8639 25.8335 29.7129 25.5951C30.6192 25.3335 30.965 25.1874 31.2263 24.9413C31.4761 24.7105 31.6066 24.4298 31.6604 24.0221C31.695 23.7529 31.691 23.6375 31.6296 23.2453C31.5374 22.6568 31.5452 22.2569 31.6679 21.6185C31.7872 21.007 31.7909 20.7685 31.695 20.5493C31.5296 20.1917 31.1571 20.134 30.0393 20.2878C29.0405 20.4263 27.7653 20.4609 27.1275 20.3686C26.7126 20.307 26.171 20.1686 26.2096 20.1301C26.2171 20.1186 26.3363 20.0955 26.4706 20.0763C26.6051 20.0532 26.7743 20.0263 26.8471 20.0148L26.9739 19.9955L26.7126 19.8302C26.5668 19.7379 26.2249 19.5109 25.9483 19.3263C25.3453 18.9149 24.7996 18.6456 24.3349 18.5303C24.0506 18.461 23.8855 18.4457 23.3937 18.4495C22.7293 18.4495 22.4335 18.4995 21.7919 18.711C19.7175 19.3994 17.9774 21.4685 17.9774 23.2414C17.9774 23.9337 18.1543 24.3644 18.6112 24.8028C19.0569 25.2259 19.2681 25.3028 20.5666 25.5374C21.1658 25.6451 21.5115 25.7797 22.1606 26.1718C22.4528 26.3489 22.7792 26.5373 22.8829 26.5912L23.0788 26.6873L23.1747 26.4681C23.3286 26.1219 23.3706 25.9295 23.3669 25.5374C23.3669 24.9105 23.194 24.4913 22.4104 23.226C21.8379 22.2992 21.6576 21.9146 21.5346 21.3839C21.4424 20.9877 21.4461 20.9916 21.8766 21.7415C22.2067 22.3184 22.5334 22.8184 22.8368 23.2106C23.3977 23.9337 23.8624 24.7605 23.9854 25.272C24.0621 25.5835 24.0661 26.1796 23.9892 26.4603C23.8817 26.8719 23.6665 27.2258 23.3055 27.595L22.9636 27.9411L22.8446 27.7871C22.3182 27.1179 21.7728 26.7219 21.0353 26.4603C20.6855 26.3411 19.6639 26.1141 19.4603 26.1141H19.3488L19.3718 26.3143C19.3833 26.4257 19.4257 27.1335 19.4603 27.8834L19.5294 29.2486L19.3413 29.8061C19.0146 30.7868 18.6112 31.6715 18.1465 32.4252C17.9198 32.7906 17.3053 33.6366 17.2053 33.7174C17.1555 33.7598 17.0826 33.6905 16.7368 33.2905C13.8904 30.0063 12.1733 27.0795 11.5433 24.4413C11.309 23.4568 11.2745 23.1607 11.2745 22.0569C11.2745 20.9378 11.3243 20.5724 11.5778 19.7955C12.4652 17.0919 15.0313 15.2074 18.2848 14.8729C18.5997 14.8382 19.7368 14.8498 20.0826 14.8883ZM25.3568 20.8724C25.4795 20.9954 25.6141 21.107 25.6487 21.1185C25.7293 21.1493 25.7754 21.1301 25.1877 21.307C24.8613 21.407 24.7345 21.4262 24.5807 21.4108C24.4769 21.3993 24.3732 21.3762 24.3542 21.3646C24.3081 21.3377 24.4695 21.1185 24.742 20.8378C24.9803 20.5839 25.0647 20.5916 25.3568 20.8724ZM26.1635 26.4297C26.2479 26.5604 26.3516 26.7874 26.3977 26.9373C26.4706 27.1756 26.4746 27.2641 26.4591 27.8257L26.436 28.4488L26.559 28.518C26.7817 28.6524 27.0353 28.9218 27.12 29.1217C27.1661 29.2293 27.2122 29.4369 27.2237 29.591L27.2467 29.8679L27.4118 29.9371C27.504 29.9755 27.6576 30.0756 27.7538 30.1601L27.9342 30.3178L27.9074 30.533C27.7999 31.4024 27.2542 32.1252 26.3631 32.5676L26.1289 32.6868L26.4631 33.4099C27.2928 35.1904 27.5732 36.1711 27.5308 37.1633C27.5118 37.7249 27.385 38.3093 27.2505 38.4708C27.2006 38.5285 27.1468 38.5787 27.1315 38.5787C27.1159 38.5787 27.0739 38.4518 27.0393 38.2978C26.9817 38.0364 26.9739 38.0249 26.9546 38.1518C26.9431 38.2248 26.92 38.4287 26.9085 38.6055C26.8895 38.9133 26.8817 38.9323 26.6896 39.1902C26.5821 39.3402 26.4899 39.4555 26.4821 39.4515C26.4784 39.444 26.4977 39.3246 26.5245 39.1824C26.6244 38.7056 26.655 38.1362 26.6319 37.1134C26.6129 36.1711 26.6167 36.0981 26.6743 36.1558C26.7702 36.2441 26.9854 36.7711 27.0854 37.1555C27.1352 37.3442 27.1891 37.4979 27.2044 37.4979C27.2237 37.4979 27.2352 37.2902 27.2352 37.0327C27.2352 36.0826 26.9393 35.1249 26.0981 33.3329C25.8639 32.8368 25.7832 32.6946 25.7371 32.7136C25.6449 32.7523 25.1338 32.7791 25.0572 32.7482C25.007 32.7292 25.0918 32.6946 25.3338 32.6328C26.5743 32.3138 27.3966 31.5985 27.5809 30.6792C27.6345 30.4023 27.623 30.383 27.2352 30.1947L26.9471 30.0525L26.9241 29.7101C26.9125 29.5177 26.8739 29.3025 26.8434 29.2293C26.778 29.0755 26.5706 28.8756 26.3018 28.7101L26.1134 28.5947L26.1404 28.2642C26.2056 27.4026 26.1595 26.9872 25.9598 26.6642C25.8944 26.5566 25.8754 26.5451 25.7907 26.5756C25.3836 26.7334 25.0071 27.2102 24.8304 27.7871C24.7921 27.914 24.7498 28.0372 24.7305 28.0602C24.7152 28.0833 24.5654 28.1142 24.4041 28.1257C23.8855 28.1641 23.3554 28.3833 23.3554 28.5601C23.3554 28.5872 23.4283 28.6795 23.513 28.7603C23.6011 28.841 23.6665 28.9255 23.6587 28.9486C23.6513 28.9679 23.4628 28.8872 23.2439 28.764C22.4643 28.3293 21.5539 27.9757 21.1004 27.9333L20.8469 27.9102L20.874 28.1834C20.9662 29.1295 21.5115 30.064 22.345 30.7254C22.5219 30.8601 22.6562 30.9792 22.6524 30.987C22.6256 31.0138 22.2145 30.8716 22.1186 30.7984L22.0108 30.7254V31.3406C22.0108 32.4292 21.9186 32.7828 21.5383 33.1445C21.2848 33.3828 20.9892 33.5328 20.0558 33.8982C19.3603 34.1714 18.496 34.5789 18.277 34.7327C18.2234 34.7751 18.1618 34.8059 18.1465 34.8059C18.1082 34.8059 17.9391 34.6482 17.9391 34.6098C17.9391 34.5789 18.3617 34.3251 18.7075 34.152C19.0607 33.9712 19.4833 33.7944 20.1632 33.5328C20.8509 33.2674 21.1696 33.1021 21.3617 32.8945C21.6536 32.5907 21.7037 32.3522 21.7037 31.3138V30.5639L21.5383 30.3677C20.9391 29.6639 20.6011 28.8526 20.5781 28.0796L20.5703 27.7141L20.7625 27.6602C21.116 27.5563 21.7458 27.7141 22.6562 28.1257L23.1096 28.3334L23.2669 28.1949C23.4476 28.0294 23.7933 27.9025 24.2081 27.8373C24.504 27.7949 24.5078 27.7911 24.5501 27.6564C24.6461 27.3527 24.9149 26.8987 25.1263 26.6835C25.326 26.4796 25.81 26.1912 25.9561 26.1912C25.9866 26.1912 26.075 26.2987 26.1635 26.4297ZM23.3977 38.7131C23.3554 38.9017 23.3015 39.1939 23.2747 39.3632C23.2133 39.7861 23.2056 39.7939 23.029 39.6401L22.8791 39.5092L22.9483 39.3208C23.0212 39.121 23.4398 38.3364 23.4591 38.3595C23.4669 38.367 23.4398 38.5248 23.3977 38.7131Z" fill="white"/>
<rect x="20.3999" y="58.6504" width="10.2" height="10.2" rx="5.1" fill="#FF76BF"/>
<rect x="20.3999" y="58.6504" width="10.2" height="10.2" rx="5.1" fill="#FF76BF"/>
<rect x="20.3999" y="58.6504" width="10.2" height="10.2" rx="5.1" fill="#FF76BF"/>
<rect x="20.3999" y="58.6504" width="10.2" height="10.2" rx="5.1" fill="#FF76BF"/>
</svg>
