<svg width="32" height="32" viewBox="0 0 32 32" fill="none" xmlns="http://www.w3.org/2000/svg">
<g clip-path="url(#clip0_1907_5145)">
<path d="M8 12C8 14.1217 8.84286 16.1566 10.3431 17.6569C11.8434 19.1571 13.8783 20 16 20C18.1217 20 20.1566 19.1571 21.6569 17.6569C23.1571 16.1566 24 14.1217 24 12C24 9.87827 23.1571 7.84344 21.6569 6.34315C20.1566 4.84286 18.1217 4 16 4C13.8783 4 11.8434 4.84286 10.3431 6.34315C8.84286 7.84344 8 9.87827 8 12Z" stroke="#393A3A" stroke-width="2" stroke-linecap="round" stroke-linejoin="round"/>
<path d="M16 20L20.5333 27.8533L22.664 23.5427L27.4613 23.852L22.928 16" stroke="#393A3A" stroke-width="2" stroke-linecap="round" stroke-linejoin="round"/>
<path d="M9.06849 16L4.53516 23.8533L9.33249 23.5427L11.4632 27.852L15.9965 20" stroke="#393A3A" stroke-width="2" stroke-linecap="round" stroke-linejoin="round"/>
</g>
<defs>
<clipPath id="clip0_1907_5145">
<rect width="32" height="32" fill="white"/>
</clipPath>
</defs>
</svg>
