<svg width="32" height="33" viewBox="0 0 32 33" fill="none" xmlns="http://www.w3.org/2000/svg">
<g clip-path="url(#clip0_1907_5345)">
<path d="M19.5997 18.5013C18.133 15.8346 17.6784 15.168 15.9997 15.168C14.321 15.168 13.685 16.1746 12.2184 18.8306C10.9624 21.1013 8.42369 21.2906 7.79036 23.2186C7.66102 23.572 7.59702 24.1213 7.59969 24.5013C7.59969 26.0693 8.64902 27.168 9.99969 27.168C11.6784 27.168 13.9997 25.8346 15.9997 25.8346C17.9997 25.8346 20.321 27.168 21.9997 27.168C23.3504 27.168 24.3997 26.0706 24.3997 24.5013C24.3997 24.1213 24.3344 23.572 24.205 23.2186C23.5717 21.284 20.8557 20.772 19.5997 18.5013Z" stroke="black" stroke-width="2" stroke-linecap="round" stroke-linejoin="round"/>
<path d="M26.9182 11.2773C26.7469 11.2049 26.5628 11.1677 26.3769 11.168H26.3569C25.3769 11.184 24.2769 12.168 23.6996 13.656C23.0076 15.436 23.3262 17.256 24.4169 17.7253C24.5889 17.7986 24.7729 17.8346 24.9582 17.8346C25.9436 17.8346 27.0582 16.8453 27.6396 15.3466C28.3276 13.5666 28.0022 11.7466 26.9182 11.2773Z" stroke="black" stroke-width="2" stroke-linecap="round" stroke-linejoin="round"/>
<path d="M12.6321 12.4987C12.7054 12.4987 12.7774 12.4987 12.8494 12.484C14.1081 12.3134 14.8934 10.6894 14.6094 8.8547C14.3388 7.12536 13.2134 5.83203 12.0334 5.83203C11.9601 5.83203 11.8881 5.83203 11.8161 5.8467C10.5574 6.01736 9.7721 7.64136 10.0561 9.47603C10.3281 11.2 11.4534 12.4987 12.6334 12.4987H12.6321Z" stroke="black" stroke-width="2" stroke-linecap="round" stroke-linejoin="round"/>
<path d="M21.9418 9.47603C22.2272 7.64137 21.4418 6.01737 20.1818 5.8467C20.1103 5.83679 20.0381 5.83189 19.9658 5.83203C18.7858 5.83203 17.6618 7.12537 17.3925 8.8547C17.1072 10.6894 17.8925 12.3134 19.1525 12.484C19.2245 12.4934 19.2965 12.4987 19.3685 12.4987C20.5485 12.4987 21.6752 11.2 21.9418 9.47603Z" stroke="black" stroke-width="2" stroke-linecap="round" stroke-linejoin="round"/>
<path d="M7.58643 17.7253C8.67443 17.256 8.99176 15.4333 8.3011 13.656C7.71976 12.1573 6.60643 11.168 5.62243 11.168C5.43576 11.168 5.2531 11.204 5.07976 11.2773C3.99176 11.7466 3.67443 13.5693 4.3651 15.3466C4.94643 16.8453 6.05976 17.8346 7.04376 17.8346C7.23043 17.8346 7.4131 17.7986 7.58643 17.7253Z" stroke="black" stroke-width="2" stroke-linecap="round" stroke-linejoin="round"/>
</g>
<defs>
<clipPath id="clip0_1907_5345">
<rect width="32" height="32" fill="white" transform="translate(0 0.5)"/>
</clipPath>
</defs>
</svg>
