<svg width="18" height="18" viewBox="0 0 18 18" fill="none" xmlns="http://www.w3.org/2000/svg">
<path d="M2.93978 11.1665C2.77978 13.0932 4.23311 14.6665 6.16644 14.6665H9.35978C11.5331 14.6665 13.0264 12.9132 12.6664 10.7665C12.2864 8.51317 10.1131 6.6665 7.82644 6.6665C5.34644 6.6665 3.14644 8.69317 2.93978 11.1665Z" fill="#FF76BF" stroke="#FF76BF" stroke-width="1.5" stroke-linecap="round" stroke-linejoin="round"/>
<path d="M6.98014 4.99984C7.90062 4.99984 8.64681 4.25364 8.64681 3.33317C8.64681 2.4127 7.90062 1.6665 6.98014 1.6665C6.05967 1.6665 5.31348 2.4127 5.31348 3.33317C5.31348 4.25364 6.05967 4.99984 6.98014 4.99984Z" fill="#FF76BF" stroke="#FF76BF" stroke-width="1.5" stroke-linecap="round" stroke-linejoin="round"/>
<path d="M11.5335 5.79997C12.2699 5.79997 12.8669 5.20301 12.8669 4.46663C12.8669 3.73025 12.2699 3.1333 11.5335 3.1333C10.7971 3.1333 10.2002 3.73025 10.2002 4.46663C10.2002 5.20301 10.7971 5.79997 11.5335 5.79997Z" fill="#FF76BF" stroke="#FF76BF" stroke-width="1.5" stroke-linecap="round" stroke-linejoin="round"/>
<path d="M14 8.4668C14.5523 8.4668 15 8.01908 15 7.4668C15 6.91451 14.5523 6.4668 14 6.4668C13.4477 6.4668 13 6.91451 13 7.4668C13 8.01908 13.4477 8.4668 14 8.4668Z" fill="#FF76BF" stroke="#FF76BF" stroke-width="1.5" stroke-linecap="round" stroke-linejoin="round"/>
<path d="M2.64681 7.13346C3.38319 7.13346 3.98014 6.53651 3.98014 5.80013C3.98014 5.06375 3.38319 4.4668 2.64681 4.4668C1.91043 4.4668 1.31348 5.06375 1.31348 5.80013C1.31348 6.53651 1.91043 7.13346 2.64681 7.13346Z" fill="#FF76BF" stroke="#FF76BF" stroke-width="1.5" stroke-linecap="round" stroke-linejoin="round"/>
</svg>
