<svg width="44" height="44" viewBox="0 0 44 44" fill="none" xmlns="http://www.w3.org/2000/svg">
<g clip-path="url(#clip0_982_4380)">
<path d="M22.0007 18.334C19.5807 18.334 18.3652 19.1058 16.6272 21.8613L16.1799 22.591L15.4557 23.8523C15.3691 24.0073 15.2829 24.1625 15.1972 24.318C14.7572 25.1137 14.1504 25.6985 13.109 26.4117L12.1007 27.0808C10.3774 28.2303 9.47535 29.1305 8.97119 30.665C8.74385 31.2847 8.61185 32.2288 8.61735 33.0117C8.61735 36.1045 10.8137 38.5007 13.7507 38.5007L14.1944 38.4897C14.4125 38.4787 14.6234 38.4585 14.8434 38.4273L15.298 38.3485L15.54 38.2972L16.0735 38.1633L16.3705 38.0808L17.4155 37.7692L18.8144 37.3237L19.6485 37.0743C20.6202 36.7993 21.3719 36.6673 22.0007 36.6673C22.6314 36.6673 23.3812 36.8012 24.3529 37.0743L25.187 37.3237L26.5877 37.7673L27.6309 38.0808L28.2029 38.2348C28.3807 38.2788 28.5457 38.3173 28.7034 38.3485L29.158 38.4273C29.378 38.4585 29.5889 38.4787 29.807 38.4897L30.2507 38.5007C33.1877 38.5007 35.384 36.1045 35.384 33.0007C35.384 32.2178 35.2502 31.2792 35.0045 30.6063C34.5719 29.279 33.7634 28.3642 32.2912 27.2513L31.82 26.903L30.852 26.2063C29.675 25.3447 29.0132 24.692 28.5549 23.8633L28.0599 22.9742L27.5979 22.1822C25.7444 19.0728 24.6315 18.334 22.0007 18.334Z" fill="#F670C7"/>
<path d="M36.2635 12.834H36.2085C33.9736 12.8707 31.9001 14.7883 30.8771 17.4247C29.6121 20.6788 30.2391 24.2447 32.8479 25.3685C33.3173 25.5683 33.8141 25.6673 34.3165 25.6673C36.5733 25.6673 38.6798 23.7368 39.7119 21.0767C40.9696 17.8243 40.3353 14.2567 37.7393 13.1347C37.2732 12.9361 36.77 12.8338 36.2635 12.834Z" fill="#F670C7"/>
<path d="M16.5456 5.5C16.3402 5.5 16.2064 5.50367 16.0506 5.5275L15.8801 5.55683C13.0714 5.9345 11.4856 9.20333 12.0154 12.6243C12.5141 15.7868 14.6957 18.3333 17.3687 18.3333L17.7116 18.3242C17.7631 18.3198 17.8145 18.3137 17.8656 18.3058L18.0342 18.2765C20.8447 17.8988 22.4287 14.63 21.8989 11.209C21.4039 8.04283 19.2222 5.5 16.5456 5.5Z" fill="#F670C7"/>
<path d="M27.4488 5.50001C24.7739 5.50001 22.5959 8.04468 22.1028 11.2072C21.5711 14.63 23.1551 17.8988 26.0884 18.2967C26.2773 18.3205 26.4551 18.3333 26.6311 18.3333C29.1794 18.3333 31.2933 16.0142 31.9056 13.0478L31.9808 12.6262C32.5124 9.20334 30.9284 5.93451 27.9951 5.53668C27.814 5.51183 27.6315 5.49958 27.4488 5.50001Z" fill="#F670C7"/>
<path d="M7.73157 12.834C7.22924 12.834 6.73424 12.933 6.2704 13.1292C3.65607 14.2567 3.0309 17.8262 4.29407 21.0767C5.32624 23.7368 7.42907 25.6673 9.6859 25.6673C10.1882 25.6673 10.6832 25.5683 11.1471 25.3722C13.7614 24.2447 14.3866 20.6752 13.1234 17.4247C12.0912 14.7645 9.9884 12.834 7.73157 12.834Z" fill="#F670C7"/>
</g>
<defs>
<clipPath id="clip0_982_4380">
<rect width="44" height="44" fill="white"/>
</clipPath>
</defs>
</svg>
