<svg width="14" height="15" viewBox="0 0 14 15" fill="none" xmlns="http://www.w3.org/2000/svg">
<g clip-path="url(#clip0_1904_818)">
<path d="M2.3335 7.50016C2.3335 7.19074 2.45641 6.894 2.6752 6.67521C2.894 6.45641 3.19074 6.3335 3.50016 6.3335H5.8335C6.14292 6.3335 6.43966 6.45641 6.65845 6.67521C6.87725 6.894 7.00016 7.19074 7.00016 7.50016V11.5835C7.00016 11.8929 6.87725 12.1897 6.65845 12.4085C6.43966 12.6272 6.14292 12.7502 5.8335 12.7502H3.50016C3.19074 12.7502 2.894 12.6272 2.6752 12.4085C2.45641 12.1897 2.3335 11.8929 2.3335 11.5835V7.50016Z" stroke="#FFFEFE" stroke-width="0.875" stroke-linecap="round" stroke-linejoin="round"/>
<path d="M3.5 6.33317V3.99984C3.5 3.84513 3.56146 3.69675 3.67085 3.58736C3.78025 3.47796 3.92862 3.4165 4.08333 3.4165H5.25C5.40471 3.4165 5.55308 3.47796 5.66248 3.58736C5.77188 3.69675 5.83333 3.84513 5.83333 3.99984V6.33317" stroke="#FFFEFE" stroke-width="0.875" stroke-linecap="round" stroke-linejoin="round"/>
<path d="M8.75 4.5835H8.75583" stroke="#FFFEFE" stroke-width="0.875" stroke-linecap="round" stroke-linejoin="round"/>
<path d="M10.5 5.75H10.5058" stroke="#FFFEFE" stroke-width="0.875" stroke-linecap="round" stroke-linejoin="round"/>
<path d="M10.5 3.4165H10.5058" stroke="#FFFEFE" stroke-width="0.875" stroke-linecap="round" stroke-linejoin="round"/>
<path d="M12.25 2.25H12.2558" stroke="#FFFEFE" stroke-width="0.875" stroke-linecap="round" stroke-linejoin="round"/>
<path d="M12.25 4.5835H12.2558" stroke="#FFFEFE" stroke-width="0.875" stroke-linecap="round" stroke-linejoin="round"/>
<path d="M12.25 6.9165H12.2558" stroke="#FFFEFE" stroke-width="0.875" stroke-linecap="round" stroke-linejoin="round"/>
<path d="M5.8335 4.5835H6.41683" stroke="#FFFEFE" stroke-width="0.875" stroke-linecap="round" stroke-linejoin="round"/>
</g>
<defs>
<clipPath id="clip0_1904_818">
<rect width="14" height="14" fill="white" transform="translate(0 0.5)"/>
</clipPath>
</defs>
</svg>
