<svg width="32" height="33" viewBox="0 0 32 33" fill="none" xmlns="http://www.w3.org/2000/svg">
<g clip-path="url(#clip0_1907_5245)">
<path d="M23.7336 26.922L20.8377 28.4393C20.7517 28.484 20.655 28.504 20.5584 28.497C20.4618 28.4899 20.369 28.4562 20.2904 28.3995C20.2119 28.3428 20.1506 28.2654 20.1135 28.1759C20.0764 28.0864 20.0649 27.9883 20.0803 27.8926L20.6337 24.678L18.291 22.402C18.2211 22.3344 18.1715 22.2485 18.1481 22.1541C18.1247 22.0597 18.1282 21.9606 18.1584 21.8682C18.1886 21.7757 18.2441 21.6936 18.3187 21.6312C18.3933 21.5688 18.484 21.5287 18.5803 21.5153L21.8177 21.046L23.2656 18.122C23.309 18.0349 23.3757 17.9616 23.4584 17.9104C23.5411 17.8592 23.6364 17.832 23.7336 17.832C23.8309 17.832 23.9262 17.8592 24.0089 17.9104C24.0916 17.9616 24.1583 18.0349 24.2016 18.122L25.6497 21.046L28.887 21.5153C28.983 21.5291 29.0733 21.5696 29.1476 21.632C29.2219 21.6945 29.2772 21.7765 29.3073 21.8687C29.3374 21.961 29.3411 22.0598 29.3179 22.154C29.2948 22.2483 29.2457 22.3342 29.1763 22.402L26.8337 24.678L27.3857 27.8913C27.4022 27.9871 27.3916 28.0857 27.355 28.1758C27.3183 28.2659 27.2572 28.3439 27.1784 28.4009C27.0997 28.458 27.0065 28.4919 26.9095 28.4986C26.8125 28.5054 26.7156 28.4849 26.6297 28.4393L23.7336 26.922Z" stroke="#393A3A" stroke-width="2" stroke-linecap="round" stroke-linejoin="round"/>
<path d="M8.26685 26.922L5.37085 28.4393C5.28491 28.484 5.18823 28.504 5.0916 28.497C4.99497 28.4899 4.9022 28.4562 4.82364 28.3995C4.74508 28.3428 4.68383 28.2654 4.64673 28.1759C4.60963 28.0864 4.59813 27.9883 4.61352 27.8926L5.16685 24.678L2.82419 22.402C2.75426 22.3344 2.70475 22.2485 2.68131 22.1541C2.65787 22.0597 2.66143 21.9606 2.6916 21.8682C2.72177 21.7757 2.77733 21.6936 2.85194 21.6312C2.92654 21.5688 3.01718 21.5287 3.11352 21.5153L6.35085 21.046L7.79885 18.122C7.84216 18.0349 7.9089 17.9616 7.99158 17.9104C8.07426 17.8592 8.16959 17.832 8.26685 17.832C8.36411 17.832 8.45945 17.8592 8.54212 17.9104C8.6248 17.9616 8.69155 18.0349 8.73485 18.122L10.1829 21.046L13.4202 21.5153C13.5162 21.5291 13.6065 21.5696 13.6808 21.632C13.7551 21.6945 13.8104 21.7765 13.8405 21.8687C13.8706 21.961 13.8743 22.0598 13.8511 22.154C13.828 22.2483 13.7789 22.3342 13.7095 22.402L11.3669 24.678L11.9189 27.8913C11.9354 27.9871 11.9248 28.0857 11.8882 28.1758C11.8515 28.2659 11.7904 28.3439 11.7116 28.4009C11.6329 28.458 11.5397 28.4919 11.4427 28.4986C11.3457 28.5054 11.2488 28.4849 11.1629 28.4393L8.26685 26.922Z" stroke="#393A3A" stroke-width="2" stroke-linecap="round" stroke-linejoin="round"/>
<path d="M15.9993 13.59L13.1033 15.1073C13.0173 15.152 12.9207 15.172 12.824 15.1649C12.7274 15.1579 12.6346 15.1242 12.5561 15.0674C12.4775 15.0107 12.4163 14.9333 12.3792 14.8438C12.342 14.7543 12.3306 14.6563 12.3459 14.5606L12.8993 11.346L10.5566 9.06995C10.4867 9.00235 10.4372 8.91646 10.4137 8.82207C10.3903 8.72768 10.3939 8.6286 10.424 8.53615C10.4542 8.44369 10.5098 8.36158 10.5844 8.29918C10.659 8.23679 10.7496 8.19663 10.8459 8.18328L14.0833 7.71395L15.5313 4.78995C15.5746 4.70286 15.6413 4.62959 15.724 4.57836C15.8067 4.52714 15.902 4.5 15.9993 4.5C16.0965 4.5 16.1919 4.52714 16.2745 4.57836C16.3572 4.62959 16.424 4.70286 16.4673 4.78995L17.9153 7.71395L21.1526 8.18328C21.2487 8.1971 21.3389 8.23752 21.4132 8.29998C21.4875 8.36243 21.5428 8.44442 21.5729 8.53667C21.603 8.62893 21.6067 8.72777 21.5836 8.82201C21.5604 8.91625 21.5114 9.00214 21.4419 9.06995L19.0993 11.346L19.6513 14.5593C19.6678 14.6551 19.6572 14.7537 19.6206 14.8437C19.584 14.9338 19.5228 15.0118 19.4441 15.0689C19.3653 15.126 19.2722 15.1598 19.1752 15.1666C19.0782 15.1734 18.9812 15.1528 18.8953 15.1073L15.9993 13.59Z" stroke="#393A3A" stroke-width="2" stroke-linecap="round" stroke-linejoin="round"/>
</g>
<defs>
<clipPath id="clip0_1907_5245">
<rect width="32" height="32" fill="white" transform="translate(0 0.5)"/>
</clipPath>
</defs>
</svg>
