<svg width="22" height="19" viewBox="0 0 22 19" fill="none" xmlns="http://www.w3.org/2000/svg">
<path fill-rule="evenodd" clip-rule="evenodd" d="M1.67406 8.65626C7.48987 6.12231 11.3677 4.45161 13.3076 3.64417C18.848 1.34091 20.0052 0.940914 20.7494 0.926031C21.0254 0.920666 21.2961 1.002 21.5234 1.15859C21.6829 1.29612 21.7845 1.48883 21.808 1.69812C21.8481 1.95842 21.8593 2.22234 21.8415 2.4851C21.542 5.64789 20.2415 13.2925 19.581 16.8256C19.302 18.3139 18.7513 18.8218 18.2173 18.8721C17.0601 18.9781 16.1708 18.1056 15.0545 17.3707C13.2982 16.2191 12.3066 15.5102 10.6024 14.3791C8.63219 13.0767 9.91033 12.3679 11.0322 11.2032C11.3261 10.8981 16.4275 6.2544 16.528 5.83394C16.5413 5.77185 16.5397 5.70752 16.5236 5.64612C16.5074 5.58472 16.4771 5.52798 16.435 5.48045C16.3739 5.44228 16.3048 5.41888 16.2331 5.4121C16.1614 5.40531 16.0891 5.41534 16.022 5.44138C15.8471 5.47983 13.0427 7.33347 7.60894 11.0023C6.81267 11.5493 6.09142 11.816 5.44522 11.8023C4.73267 11.7856 3.36335 11.3986 2.34382 11.0581C1.09545 10.6525 0.11127 10.4386 0.18941 9.7558C0.235301 9.39859 0.730181 9.03208 1.67406 8.65626Z" fill="#393A3A"/>
</svg>
