<svg width="21" height="20" viewBox="0 0 21 20" fill="none" xmlns="http://www.w3.org/2000/svg">
<path d="M0.564453 19.9796L1.96911 14.8521C0.882415 12.9652 0.448556 10.7725 0.734795 8.61388C1.02103 6.45528 2.01137 4.4514 3.5523 2.9129C5.09323 1.37439 7.09867 0.387191 9.25771 0.104346C11.4168 -0.1785 13.6088 0.258806 15.494 1.34847C17.3793 2.43813 18.8524 4.11929 19.685 6.13131C20.5176 8.14333 20.6632 10.3738 20.0992 12.477C19.5353 14.5802 18.2932 16.4386 16.5656 17.7641C14.8381 19.0896 12.7215 19.8082 10.544 19.8084C8.89225 19.8075 7.26703 19.393 5.81655 18.6028L0.564453 19.9796ZM6.05282 16.8168L6.35423 17.0028C7.62162 17.7534 9.06732 18.1498 10.5403 18.1508C12.3643 18.1511 14.1367 17.5453 15.5789 16.4285C17.0211 15.3117 18.0513 13.7473 18.5074 11.9813C18.9636 10.2152 18.8199 8.34761 18.099 6.6721C17.3781 4.99659 16.1207 3.60818 14.5247 2.72514C12.9287 1.8421 11.0844 1.5145 9.28191 1.79386C7.4794 2.07322 5.82084 2.94368 4.56696 4.26841C3.31309 5.59313 2.53501 7.29699 2.35506 9.11213C2.17511 10.9273 2.60348 12.7507 3.57283 14.2959L3.75888 14.6066L2.92725 17.641L6.05282 16.8168Z" fill="#FFFEFE"/>
<path fill-rule="evenodd" clip-rule="evenodd" d="M15.5282 12.2662C15.4668 12.162 15.3012 12.1006 15.0537 11.9778C14.8063 11.855 13.5914 11.2559 13.3644 11.1722C13.1375 11.0885 12.9737 11.0494 12.8063 11.2969C12.6389 11.5443 12.1682 12.1006 12.0249 12.2662C11.8817 12.4317 11.7347 12.4522 11.4891 12.3275C10.7639 12.0363 10.0948 11.6215 9.51142 11.1015C8.97088 10.6015 8.50753 10.0241 8.13653 9.38801C7.99142 9.14057 8.11979 9.01592 8.24444 8.88383C8.36909 8.75174 8.49188 8.5936 8.61654 8.45034C8.71883 8.32555 8.80221 8.18638 8.86398 8.03732C8.89654 7.96897 8.91171 7.89363 8.90814 7.818C8.90457 7.74238 8.88236 7.66881 8.84351 7.60383C8.78211 7.48104 8.28537 6.26429 8.08072 5.76941C7.87607 5.27453 7.677 5.35267 7.52258 5.34336C7.36816 5.33406 7.21375 5.34336 7.05003 5.34336C6.92287 5.34546 6.79757 5.3742 6.6822 5.42771C6.56684 5.48123 6.46398 5.55834 6.38025 5.65406C6.1028 5.91714 5.88272 6.23474 5.73385 6.58692C5.58497 6.93909 5.51052 7.31825 5.51514 7.70057C5.51514 8.91732 6.40072 10.0931 6.52538 10.2587C6.65003 10.4243 8.26863 12.921 10.7486 13.9908C11.2091 14.1895 11.6798 14.3634 12.1589 14.5117C12.6633 14.6649 13.1964 14.6987 13.7161 14.6103C14.1905 14.5396 15.1784 14.0113 15.3905 13.4345C15.6026 12.8578 15.5896 12.3685 15.5282 12.2662Z" fill="#FFFEFE"/>
</svg>
