<svg width="21" height="20" viewBox="0 0 21 20" fill="none" xmlns="http://www.w3.org/2000/svg"> <path d="M0.21582 19.9534L1.62048 14.826C0.533782 12.9391 0.0999228 10.7463 0.386162 8.58772C0.672402 6.42913 1.66274 4.42525 3.20367 2.88674C4.7446 1.34823 6.75003 0.361038 8.90908 0.0781924C11.0681 -0.204653 13.2602 0.232653 15.1454 1.32232C17.0306 2.41198 18.5037 4.09313 19.3364 6.10515C20.169 8.11717 20.3146 10.3477 19.7506 12.4509C19.1866 14.554 17.9446 16.4124 16.217 17.738C14.4894 19.0635 12.3728 19.782 10.1954 19.7823C8.54362 19.7813 6.9184 19.3669 5.46792 18.5767L0.21582 19.9534ZM5.70419 16.7906L6.0056 16.9767C7.27299 17.7272 8.71868 18.1237 10.1916 18.1246C12.0157 18.125 13.7881 17.5191 15.2303 16.4024C16.6725 15.2856 17.7026 13.7212 18.1588 11.9551C18.615 10.1891 18.4713 8.32146 17.7504 6.64595C17.0294 4.97044 15.7721 3.58202 14.1761 2.69898C12.58 1.81594 10.7358 1.48835 8.93328 1.76771C7.13076 2.04706 5.4722 2.91753 4.21833 4.24225C2.96446 5.56698 2.18638 7.27084 2.00643 9.08597C1.82647 10.9011 2.25485 12.7246 3.2242 14.2697L3.41025 14.5804L2.57861 17.6148L5.70419 16.7906Z" fill="currentColor"/> <path fill-rule="evenodd" clip-rule="evenodd" d="M15.1797 12.24C15.1183 12.1358 14.9527 12.0744 14.7053 11.9516C14.4579 11.8288 13.243 11.2298 13.016 11.1461C12.789 11.0623 12.6253 11.0233 12.4579 11.2707C12.2904 11.5181 11.8197 12.0744 11.6765 12.24C11.5332 12.4056 11.3862 12.4261 11.1407 12.3014C10.4155 12.0102 9.74633 11.5953 9.16298 11.0754C8.62244 10.5754 8.1591 9.9979 7.7881 9.36187C7.64298 9.11442 7.77135 8.98977 7.89601 8.85768C8.02066 8.72559 8.14345 8.56745 8.2681 8.42419C8.37039 8.2994 8.45377 8.16023 8.51554 8.01117C8.54811 7.94282 8.56328 7.86748 8.55971 7.79186C8.55614 7.71623 8.53393 7.64266 8.49507 7.57768C8.43368 7.45489 7.93694 6.23814 7.73228 5.74326C7.52763 5.24838 7.32856 5.32652 7.17414 5.31721C7.01973 5.30791 6.86531 5.31721 6.70159 5.31721C6.57444 5.31931 6.44913 5.34805 6.33377 5.40156C6.2184 5.45508 6.11554 5.53219 6.03182 5.62791C5.75436 5.89099 5.53429 6.20859 5.38541 6.56077C5.23654 6.91295 5.16208 7.2921 5.16671 7.67442C5.16671 8.89117 6.05229 10.067 6.17694 10.2326C6.30159 10.3981 7.9202 12.8949 10.4002 13.9647C10.8606 14.1633 11.3314 14.3372 11.8104 14.4856C12.3148 14.6388 12.8479 14.6725 13.3676 14.5842C13.842 14.5135 14.83 13.9851 15.042 13.4084C15.2541 12.8316 15.2411 12.3423 15.1797 12.24Z" fill="currentColor"/> </svg>